<?xml version="1.0" encoding="UTF-8" standalone="no"?>
<svg width="176px" height="176px" viewBox="0 0 176 176" version="1.1" xmlns="http://www.w3.org/2000/svg" xmlns:xlink="http://www.w3.org/1999/xlink" xmlns:sketch="http://www.bohemiancoding.com/sketch/ns">
    <!-- Generator: Sketch 3.5.2 (25235) - http://www.bohemiancoding.com/sketch -->
    <title>Page 1</title>
    <desc>Created with Sketch.</desc>
    <defs>
        <path id="path-1" d="M0,88 C0,136.601422 39.3985778,176 88,176 C136.601422,176 176,136.601422 176,88 C176,39.4005333 136.601422,0 88,0 C39.3985778,0 0,39.4005333 0,88 L0,88 Z"></path>
        <path d="M0.306973988,98.4814837 C15.9713824,122.766119 43.2634337,138.844444 74.3111111,138.844444 C105.358548,138.844444 132.650417,122.766368 148.314884,98.4820485 C141.717642,90.3128617 133.110614,83.3881614 123.2,78.2222222 C113.965867,92.7637333 95.3861333,102.887644 74.3111111,102.887644 C53.2360889,102.887644 34.6563556,92.7637333 25.4222222,78.2222222 C15.5109972,83.3880423 6.90401843,90.3125425 0.306973988,98.4814837 L0.306973988,98.4814837 Z M29.2023111,44.9777778 C29.2023111,69.8172444 49.2819556,89.9555556 74.0490667,89.9555556 C98.8181333,89.9555556 118.897778,69.8172444 118.897778,44.9777778 C118.897778,20.1363556 98.8181333,0 74.0490667,0 C49.2819556,0 29.2023111,20.1363556 29.2023111,44.9777778 L29.2023111,44.9777778 Z" id="path-3"></path>
    </defs>
    <g id="Page-1" stroke="none" stroke-width="1" fill="none" fill-rule="evenodd" sketch:type="MSPage">
        <g sketch:type="MSLayerGroup">
            <g id="Group-3">
                <mask id="mask-2" sketch:name="Clip 2" fill="white">
                    <use xlink:href="#path-1"></use>
                </mask>
                <use id="Clip-2" fill="#E1E0E2" sketch:type="MSShapeGroup" xlink:href="#path-1"></use>
                <path d="M-9.77777778,-9.77777778 L185.777778,-9.77777778 L185.777778,185.777778 L-9.77777778,185.777778 L-9.77777778,-9.77777778 Z" id="Fill-1" fill="#E1E0E2" sketch:type="MSShapeGroup" mask="url(#mask-2)"></path>
            </g>
            <g id="Group-6" transform="translate(13.688889, 37.155556)">
                <mask id="mask-4" sketch:name="Clip 5" fill="white">
                    <use xlink:href="#path-3"></use>
                </mask>
                <use id="Clip-5" fill="#D8D8D8" sketch:type="MSShapeGroup" xlink:href="#path-3"></use>
                <path d="M-23.4666667,-9.77777778 L172.088889,-9.77777778 L172.088889,188.840178 L-23.4666667,188.840178 L-23.4666667,-9.77777778 Z" id="Fill-4" fill="#BEBCBF" sketch:type="MSShapeGroup" mask="url(#mask-4)"></path>
            </g>
        </g>
    </g>
</svg>