<?xml version="1.0" encoding="iso-8859-1"?>
<!-- Generator: Adobe Illustrator 16.0.0, SVG Export Plug-In . SVG Version: 6.00 Build 0)  -->
<!DOCTYPE svg PUBLIC "-//W3C//DTD SVG 1.1//EN" "http://www.w3.org/Graphics/SVG/1.1/DTD/svg11.dtd">
<svg version="1.1" id="Layer_1" xmlns="http://www.w3.org/2000/svg" xmlns:xlink="http://www.w3.org/1999/xlink" x="0px" y="0px"
	 width="12.013px" height="12.5px" viewBox="0 0 12.013 12.5" style="enable-background:new 0 0 12.013 12.5;" xml:space="preserve"
	>
<path style="fill-rule:evenodd;clip-rule:evenodd;fill:#5C6B78;" d="M11.908,9.344L11.513,9.57c0.018,0.108,0.026,0.215,0.026,0.32
	c0,0.102-0.009,0.208-0.029,0.32l0.391,0.226c0.048,0.028,0.083,0.074,0.098,0.127c0.014,0.053,0.006,0.11-0.022,0.158l-0.534,0.91
	c-0.058,0.098-0.183,0.132-0.283,0.076l-0.411-0.23c-0.164,0.126-0.366,0.238-0.583,0.321v0.492c0,0.115-0.093,0.208-0.209,0.208
	H8.902c-0.115,0-0.209-0.093-0.209-0.208v-0.494c-0.187-0.076-0.363-0.182-0.526-0.315l-0.366,0.222
	c-0.048,0.029-0.106,0.037-0.161,0.024c-0.055-0.014-0.102-0.049-0.129-0.098l-0.527-0.91c-0.058-0.1-0.024-0.227,0.076-0.285
	l0.394-0.227c-0.018-0.109-0.027-0.214-0.027-0.32c0-0.107,0.008-0.214,0.025-0.319L7.055,9.344C6.955,9.287,6.92,9.16,6.977,9.06
	l0.521-0.911c0.027-0.048,0.074-0.084,0.128-0.098C7.68,8.038,7.738,8.045,7.786,8.073l0.38,0.225
	c0.164-0.134,0.34-0.24,0.527-0.316V7.563c0-0.115,0.094-0.208,0.209-0.208h1.055c0.116,0,0.209,0.093,0.209,0.208v0.417
	c0.218,0.083,0.42,0.196,0.583,0.322l0.425-0.233c0.1-0.054,0.225-0.02,0.282,0.078l0.528,0.91c0.027,0.048,0.035,0.105,0.021,0.158
	C11.991,9.271,11.956,9.316,11.908,9.344z M11.197,8.534l-0.373,0.204c-0.079,0.043-0.178,0.031-0.244-0.031
	c-0.163-0.153-0.419-0.295-0.687-0.38C9.807,8.299,9.749,8.219,9.749,8.128V7.772H9.112v0.357c0,0.09-0.059,0.171-0.146,0.198
	c-0.229,0.072-0.441,0.2-0.631,0.379c-0.068,0.064-0.17,0.075-0.251,0.028L7.755,8.541L7.443,9.086l0.347,0.198
	c0.081,0.046,0.121,0.14,0.1,0.229C7.86,9.635,7.846,9.762,7.846,9.89c0,0.121,0.015,0.245,0.046,0.377
	c0.021,0.089-0.019,0.182-0.099,0.228l-0.342,0.198l0.315,0.545l0.314-0.191c0.081-0.049,0.184-0.038,0.253,0.027
	c0.191,0.18,0.404,0.307,0.632,0.379c0.087,0.027,0.146,0.108,0.146,0.199v0.432h0.637v-0.432c0-0.091,0.059-0.171,0.146-0.199
	c0.267-0.084,0.523-0.226,0.686-0.379c0.066-0.062,0.167-0.075,0.247-0.03l0.359,0.202l0.324-0.553l-0.34-0.197
	c-0.08-0.046-0.12-0.139-0.098-0.228c0.033-0.141,0.049-0.264,0.049-0.377c0-0.122-0.016-0.249-0.046-0.377
	c-0.021-0.089,0.019-0.183,0.099-0.229l0.344-0.197L11.197,8.534z M9.484,10.886c-0.551,0-1-0.447-1-0.996s0.449-0.997,1-0.997
	c0.552,0,1,0.447,1,0.997S10.036,10.886,9.484,10.886z M9.484,9.311c-0.321,0-0.582,0.26-0.582,0.58s0.261,0.58,0.582,0.58
	c0.321,0,0.582-0.26,0.582-0.58S9.805,9.311,9.484,9.311z M6.563,6.426c0.278,0.108,0.541,0.209,0.813,0.3L7.246,7.122
	c-0.28-0.092-0.549-0.197-0.834-0.307c-0.136-0.053-0.274-0.106-0.42-0.161C5.91,6.623,5.856,6.545,5.856,6.458v-1.25
	c0-0.078,0.044-0.15,0.115-0.186C5.994,5.01,6.593,4.679,6.593,3.586c0-0.115,0.094-0.208,0.209-0.208
	c0.025,0,0.101-0.119,0.101-0.336c0-0.217-0.076-0.335-0.101-0.335c-0.115,0-0.209-0.093-0.209-0.208c0-0.07,0.028-0.141,0.08-0.27
	c0.106-0.266,0.304-0.762,0.19-1.219C6.777,0.666,6.141,0.417,5.352,0.417h0c-0.79,0-1.425,0.249-1.511,0.592
	C3.814,1.117,3.705,1.186,3.596,1.163C3.457,1.135,3.271,1.12,3.188,1.21C3.007,1.406,3.192,2.041,3.262,2.28
	c0.041,0.14,0.058,0.199,0.058,0.255c0,0.115-0.094,0.208-0.209,0.208c-0.031,0-0.101,0.12-0.101,0.317
	c0,0.197,0.07,0.317,0.101,0.317c0.116,0,0.209,0.093,0.209,0.208c0,1.127,0.764,1.653,0.771,1.658
	c0.058,0.039,0.092,0.104,0.092,0.173v1.042c0,0.086-0.054,0.164-0.135,0.195C3.656,6.802,3.24,6.938,2.837,7.069
	c-0.956,0.312-2.04,0.667-2.166,1.048C0.49,8.66,0.438,9.586,0.424,10h5.223v0.417H0.209c-0.056,0-0.109-0.022-0.148-0.062
	C0.021,10.315,0,10.262,0,10.206c0-0.059,0.017-1.448,0.274-2.22c0.193-0.58,1.231-0.919,2.433-1.312
	C3.059,6.559,3.42,6.44,3.765,6.314V5.519c-0.229-0.19-0.805-0.764-0.86-1.776C2.713,3.639,2.591,3.387,2.591,3.06
	c0-0.17,0.036-0.333,0.102-0.458c0.044-0.084,0.102-0.152,0.17-0.198c0-0.002-0.001-0.005-0.002-0.008
	c-0.111-0.385-0.32-1.1,0.021-1.468c0.143-0.155,0.353-0.221,0.623-0.199C3.784,0.195,4.646,0,5.351,0h0
	c0.78,0,1.75,0.238,1.917,0.909c0.146,0.584-0.082,1.159-0.206,1.47C7.222,2.5,7.32,2.74,7.32,3.042c0,0.174-0.035,0.341-0.1,0.468
	C7.167,3.614,7.094,3.693,7.007,3.741c-0.046,0.963-0.511,1.417-0.733,1.58v0.993C6.373,6.353,6.469,6.39,6.563,6.426z"/>
</svg>
