<?xml version="1.0" encoding="iso-8859-1"?>
<!-- Generator: Adobe Illustrator 16.0.0, SVG Export Plug-In . SVG Version: 6.00 Build 0)  -->
<!DOCTYPE svg PUBLIC "-//W3C//DTD SVG 1.1//EN" "http://www.w3.org/Graphics/SVG/1.1/DTD/svg11.dtd">
<svg version="1.1" id="Layer_1" xmlns="http://www.w3.org/2000/svg" xmlns:xlink="http://www.w3.org/1999/xlink" x="0px" y="0px"
	 width="9.6px" height="5.94px" viewBox="0 0 9.6 5.94" style="enable-background:new 0 0 9.6 5.94;" xml:space="preserve">
<path style="fill-rule:evenodd;clip-rule:evenodd;fill:none;" d="M4.8,5.12c-0.043,0-0.085-0.018-0.115-0.049l-4.64-4.8
	c-0.062-0.063-0.06-0.165,0.004-0.226c0.064-0.062,0.165-0.06,0.226,0.003L4.8,4.73l4.525-4.681
	c0.062-0.063,0.163-0.065,0.227-0.003c0.063,0.061,0.065,0.163,0.004,0.226l-4.64,4.8C4.885,5.103,4.843,5.12,4.8,5.12z"/>
<path style="fill-rule:evenodd;clip-rule:evenodd;fill:none;" d="M4.8,5.44c-0.043,0-0.085-0.018-0.115-0.049l-4.64-4.8
	c-0.062-0.063-0.06-0.166,0.004-0.227c0.064-0.062,0.165-0.06,0.226,0.004L4.8,5.05l4.525-4.681
	c0.062-0.063,0.163-0.065,0.227-0.004c0.063,0.061,0.065,0.163,0.004,0.227l-4.64,4.8C4.885,5.423,4.843,5.44,4.8,5.44z"/>
<path style="fill-rule:evenodd;clip-rule:evenodd;fill:none;" d="M4.8,5.62c-0.043,0-0.085-0.018-0.115-0.049l-4.64-4.8
	c-0.062-0.063-0.06-0.165,0.004-0.226c0.064-0.062,0.165-0.06,0.226,0.003L4.8,5.23l4.525-4.681
	c0.062-0.063,0.163-0.065,0.227-0.003c0.063,0.061,0.065,0.163,0.004,0.226l-4.64,4.8C4.885,5.603,4.843,5.62,4.8,5.62z"/>
<path style="fill-rule:evenodd;clip-rule:evenodd;fill:#FFFFFF;" d="M4.8,5.94c-0.043,0-0.085-0.018-0.115-0.049l-4.64-4.8
	c-0.062-0.063-0.06-0.165,0.004-0.227c0.064-0.061,0.165-0.06,0.226,0.004L4.8,5.55l4.525-4.681
	c0.062-0.063,0.163-0.065,0.227-0.004c0.063,0.062,0.065,0.163,0.004,0.227l-4.64,4.8C4.885,5.923,4.843,5.94,4.8,5.94z"/>
</svg>
