<?xml version="1.0" encoding="UTF-8" standalone="no"?>
<svg width="42px" height="34px" viewBox="0 0 42 34" version="1.1" xmlns="http://www.w3.org/2000/svg" xmlns:xlink="http://www.w3.org/1999/xlink">
    <!-- Generator: Sketch 3.6.1 (26313) - http://www.bohemiancoding.com/sketch -->
    <title>272 - Camera (Solid)</title>
    <desc>Created with Sketch.</desc>
    <defs></defs>
    <g id="Products" stroke="none" stroke-width="1" fill="none" fill-rule="evenodd">
        <g id="1-1-Add-product" transform="translate(-240.000000, -204.000000)" fill="#D2DCE4">
            <g id="thumbnail" transform="translate(182.000000, 142.000000)">
                <g id="272---Camera-(Solid)" transform="translate(58.000000, 62.000000)">
                    <path d="M21,10.4081633 C16.3681,10.4081633 12.6,14.1433061 12.6,18.7346939 C12.6,23.3260816 16.3681,27.0612245 21,27.0612245 C25.6319,27.0612245 29.4,23.3260816 29.4,18.7346939 C29.4,14.1433061 25.6319,10.4081633 21,10.4081633" id="Fill-835"></path>
                    <path d="M38.6407,6.93877551 L32.6739,6.93877551 L29.8739,0 L12.1261,0 L9.3261,6.93877551 L8.4,6.93877551 L8.4,3.46938776 L4.2,3.46938776 L4.2,6.93877551 L3.3593,6.93877551 C1.5064,6.93877551 0,8.432 0,10.2686939 L0,30.6464898 C0,32.4956735 1.5176,34 3.3831,34 L38.6169,34 C40.4824,34 42,32.4956735 42,30.6464898 L42,10.2686939 C42,8.432 40.4936,6.93877551 38.6407,6.93877551 L38.6407,6.93877551 Z M5.6,4.85714286 L7,4.85714286 L7,6.93877551 L5.6,6.93877551 L5.6,4.85714286 Z M21,31.2244898 C14.0525,31.2244898 8.4,25.6214286 8.4,18.7346939 C8.4,11.8479592 14.0525,6.24489796 21,6.24489796 C27.9475,6.24489796 33.6,11.8479592 33.6,18.7346939 C33.6,25.6214286 27.9475,31.2244898 21,31.2244898 L21,31.2244898 Z M36.4,15.2653061 C34.8558,15.2653061 33.6,14.0204898 33.6,12.4897959 C33.6,10.959102 34.8558,9.71428571 36.4,9.71428571 C37.9442,9.71428571 39.2,10.959102 39.2,12.4897959 C39.2,14.0204898 37.9442,15.2653061 36.4,15.2653061 L36.4,15.2653061 Z" id="Fill-836"></path>
                </g>
            </g>
        </g>
    </g>
</svg>