<?xml version="1.0" encoding="iso-8859-1"?>
<!-- Generator: Adobe Illustrator 16.0.0, SVG Export Plug-In . SVG Version: 6.00 Build 0)  -->
<!DOCTYPE svg PUBLIC "-//W3C//DTD SVG 1.1//EN" "http://www.w3.org/Graphics/SVG/1.1/DTD/svg11.dtd">
<svg version="1.1" id="Layer_1" xmlns="http://www.w3.org/2000/svg" xmlns:xlink="http://www.w3.org/1999/xlink" x="0px" y="0px"
	 width="12px" height="11px" viewBox="0 0 12 11" style="enable-background:new 0 0 12 11;" xml:space="preserve">
<path style="fill-rule:evenodd;clip-rule:evenodd;fill:#5C6B78;" d="M6,9.688c-0.693,0-1.37-0.094-2.015-0.28L0.688,10.98
	C0.66,10.994,0.63,11,0.6,11c-0.052,0-0.104-0.02-0.142-0.058c-0.061-0.06-0.075-0.151-0.037-0.226l1.269-2.5
	C0.599,7.308,0,6.116,0,4.844C0,2.173,2.691,0,6,0s6,2.173,6,4.844C12,7.515,9.309,9.688,6,9.688z M6,0.393
	c-3.088,0-5.6,1.997-5.6,4.451c0,1.198,0.591,2.322,1.665,3.166C2.139,8.067,2.161,8.168,2.119,8.25l-1.078,2.125l2.84-1.354
	C3.926,9,3.978,8.996,4.026,9.011C4.656,9.199,5.32,9.295,6,9.295c3.088,0,5.6-1.997,5.6-4.451C11.6,2.39,9.088,0.393,6,0.393z
	 M6.4,5.49v0.599c0,0.108-0.089,0.196-0.2,0.196C6.089,6.286,6,6.198,6,6.089V5.304c0-0.109,0.089-0.197,0.2-0.197
	c0.778,0,1.365-0.507,1.365-1.18c0-0.702-0.589-1.274-1.313-1.274c-0.711,0-1.313,0.604-1.313,1.32c0,0.108-0.089,0.196-0.2,0.196
	c-0.111,0-0.2-0.088-0.2-0.196c0-0.945,0.769-1.713,1.713-1.713c0.945,0,1.713,0.748,1.713,1.667C7.965,4.749,7.292,5.404,6.4,5.49z
	 M6.2,6.679c0.22,0,0.4,0.176,0.4,0.393c0,0.217-0.18,0.393-0.4,0.393c-0.221,0-0.4-0.176-0.4-0.393
	C5.8,6.855,5.979,6.679,6.2,6.679z"/>
</svg>
