<?xml version="1.0" encoding="iso-8859-1"?>
<!-- Generator: Adobe Illustrator 16.0.0, SVG Export Plug-In . SVG Version: 6.00 Build 0)  -->
<!DOCTYPE svg PUBLIC "-//W3C//DTD SVG 1.1//EN" "http://www.w3.org/Graphics/SVG/1.1/DTD/svg11.dtd">
<svg version="1.1" id="Layer_1" xmlns="http://www.w3.org/2000/svg" xmlns:xlink="http://www.w3.org/1999/xlink" x="0px" y="0px"
	 width="11.874px" height="11.874px" viewBox="0 0 11.874 11.874" style="enable-background:new 0 0 11.874 11.874;"
	 xml:space="preserve">
<path style="fill-rule:evenodd;clip-rule:evenodd;fill:#5C6B78;" d="M11.87,0.217c-0.002,0.018,0.001,0.036-0.006,0.053
	l-4.95,11.484c-0.03,0.07-0.097,0.116-0.173,0.12c-0.003,0-0.006,0-0.009,0c-0.072,0-0.14-0.04-0.174-0.104L4.296,7.578L0.104,5.316
	C0.037,5.28-0.003,5.209,0,5.133S0.05,4.99,0.12,4.96l11.484-4.95c0.017-0.007,0.036-0.003,0.054-0.006
	C11.671,0.002,11.682-0.001,11.696,0c0.046,0.003,0.091,0.018,0.125,0.052s0.049,0.079,0.052,0.125
	C11.875,0.192,11.872,0.203,11.87,0.217z M6.712,11.222l4.379-10.159L4.686,7.468L6.712,11.222z M4.406,7.188l6.405-6.404
	L0.652,5.162L4.406,7.188z"/>
</svg>
