<?xml version="1.0" encoding="utf-8"?>
<!-- Generator: Adobe Illustrator 19.2.1, SVG Export Plug-In . SVG Version: 6.00 Build 0)  -->
<svg version="1.1" id="Layer_1" xmlns:sketch="http://www.bohemiancoding.com/sketch/ns"
	 xmlns="http://www.w3.org/2000/svg" xmlns:xlink="http://www.w3.org/1999/xlink" x="0px" y="0px" viewBox="0 0 24 24"
	 style="enable-background:new 0 0 24 24;" xml:space="preserve">
<style type="text/css">
	.st0{fill:#C0CAD0;}
</style>
<path class="st0" d="M7.8,23.4c-0.1,0-0.2,0-0.3-0.1C7.2,23.2,7,22.9,7,22.6v-3c-3.6-0.3-6.4-3.2-6.4-6.9V7.4c0-3.8,3.1-6.9,6.9-6.9
	h9.1c3.8,0,6.9,3.1,7,6.9v5.3c0,3.8-3.1,6.9-6.9,6.9H16c-2.6,0-5.1,1-6.9,2.9l-0.7,0.7C8.2,23.3,8,23.4,7.8,23.4z M7.5,1.5
	c-3.3,0-5.9,2.6-5.9,5.9v5.3c0,3.3,2.6,5.9,5.9,5.9c0.3,0,0.5,0.2,0.5,0.5v3l0.3-0.3c2-2,4.7-3.1,7.7-3.1h0.7c3.3,0,5.9-2.6,5.9-5.9
	V7.4c-0.1-3.2-2.8-5.9-6-5.9H7.5z"/>
</svg>
