<?xml version="1.0" encoding="iso-8859-1"?>
<!-- Generator: Adobe Illustrator 16.0.0, SVG Export Plug-In . SVG Version: 6.00 Build 0)  -->
<!DOCTYPE svg PUBLIC "-//W3C//DTD SVG 1.1//EN" "http://www.w3.org/Graphics/SVG/1.1/DTD/svg11.dtd">
<svg version="1.1" id="Layer_1" xmlns="http://www.w3.org/2000/svg" xmlns:xlink="http://www.w3.org/1999/xlink" x="0px" y="0px"
	 width="7px" height="12px" viewBox="0 0 7 12" style="enable-background:new 0 0 7 12;" xml:space="preserve">
<path style="fill-rule:evenodd;clip-rule:evenodd;fill:#5C6B78;" d="M5.639,12H1.361C0.611,12,0,11.372,0,10.6V1.4
	C0,0.628,0.611,0,1.361,0h4.277C6.39,0,7,0.628,7,1.4v9.2C7,11.372,6.39,12,5.639,12z M6.611,1.4c0-0.551-0.436-1-0.973-1H1.361
	c-0.537,0-0.973,0.449-0.973,1V2h6.223V1.4z M6.611,2.4H0.389v7.2h6.223V2.4z M6.611,10H0.389v0.6c0,0.551,0.436,1,0.973,1h4.277
	c0.537,0,0.973-0.449,0.973-1V10z M3.5,11.4c-0.322,0-0.583-0.269-0.583-0.6c0-0.331,0.262-0.6,0.583-0.6s0.583,0.269,0.583,0.6
	C4.083,11.131,3.822,11.4,3.5,11.4z M3.5,10.6c-0.107,0-0.194,0.089-0.194,0.2S3.393,11,3.5,11s0.194-0.09,0.194-0.2
	S3.607,10.6,3.5,10.6z M2.139,1.2h2.723c0.107,0,0.194,0.089,0.194,0.2c0,0.111-0.087,0.2-0.194,0.2H2.139
	c-0.107,0-0.194-0.089-0.194-0.2C1.944,1.29,2.031,1.2,2.139,1.2z"/>
</svg>
