<?xml version="1.0" encoding="UTF-8" standalone="no"?>
<svg width="24px" height="21px" viewBox="0 0 24 21" version="1.1" xmlns="http://www.w3.org/2000/svg" xmlns:xlink="http://www.w3.org/1999/xlink">
    <!-- Generator: Sketch 3.8.3 (29802) - http://www.bohemiancoding.com/sketch -->
    <title>ic-company</title>
    <desc>Created with Sketch.</desc>
    <defs></defs>
    <g id="Customers" stroke="none" stroke-width="1" fill="none" fill-rule="evenodd">
        <g id="Artboard-6" transform="translate(0.000000, -1.000000)" stroke="#C0CAD0">
            <g id="ic-company" transform="translate(1.000000, 2.000000)">
                <rect id="Rectangle-50-Copy" x="11" y="0" width="11" height="19"></rect>
                <rect id="Rectangle-52" x="18" y="2" width="2" height="3"></rect>
                <rect id="Rectangle-52-Copy-2" x="18" y="7" width="2" height="3"></rect>
                <rect id="Rectangle-52-Copy-5" x="18" y="12" width="2" height="3"></rect>
                <rect id="Rectangle-52-Copy" x="13" y="2" width="2" height="3"></rect>
                <rect id="Rectangle-52-Copy-3" x="13" y="7" width="2" height="3"></rect>
                <rect id="Rectangle-52-Copy-6" x="13" y="12" width="2" height="3"></rect>
                <rect id="Rectangle-52-Copy-4" fill="#C0CAD0" x="15" y="17" width="3" height="2"></rect>
                <rect id="Rectangle-50-Copy" x="0" y="5" width="11" height="14"></rect>
                <rect id="Rectangle-52-Copy-2" x="7" y="7" width="2" height="3"></rect>
                <rect id="Rectangle-52-Copy-5" x="7" y="12" width="2" height="3"></rect>
                <rect id="Rectangle-52-Copy-3" x="2" y="7" width="2" height="3"></rect>
                <rect id="Rectangle-52-Copy-6" x="2" y="12" width="2" height="3"></rect>
                <rect id="Rectangle-52-Copy-4" fill="#C0CAD0" x="4" y="17" width="3" height="2"></rect>
            </g>
        </g>
    </g>
</svg>