<?xml version="1.0" encoding="iso-8859-1"?>
<!-- Generator: Adobe Illustrator 16.0.0, SVG Export Plug-In . SVG Version: 6.00 Build 0)  -->
<!DOCTYPE svg PUBLIC "-//W3C//DTD SVG 1.1//EN" "http://www.w3.org/Graphics/SVG/1.1/DTD/svg11.dtd">
<svg version="1.1" id="Layer_1" xmlns="http://www.w3.org/2000/svg" xmlns:xlink="http://www.w3.org/1999/xlink" x="0px" y="0px"
	 width="21.995px" height="21.995px" viewBox="0 0 21.995 21.995" style="enable-background:new 0 0 21.995 21.995;"
	 xml:space="preserve">
<path style="fill:#7B8B99;" d="M21.995,20.137l-6.434-6.433c1.048-1.427,1.675-3.182,1.675-5.085C17.237,3.866,13.371,0,8.619,0
	C3.866,0,0,3.866,0,8.619s3.866,8.618,8.619,8.618c1.903,0,3.657-0.627,5.084-1.676l6.434,6.434L21.995,20.137z M1.005,8.619
	c0-4.198,3.415-7.614,7.614-7.614c4.198,0,7.613,3.416,7.613,7.614c0,4.198-3.415,7.614-7.613,7.614
	C4.42,16.232,1.005,12.816,1.005,8.619z M14.656,14.759c0.035-0.035,0.07-0.069,0.104-0.104c0.055-0.056,0.113-0.109,0.166-0.166
	l5.648,5.648l-0.437,0.438l-5.648-5.648C14.547,14.873,14.6,14.814,14.656,14.759z"/>
</svg>
