<?xml version="1.0" encoding="iso-8859-1"?>
<!-- Generator: Adobe Illustrator 16.0.0, SVG Export Plug-In . SVG Version: 6.00 Build 0)  -->
<!DOCTYPE svg PUBLIC "-//W3C//DTD SVG 1.1//EN" "http://www.w3.org/Graphics/SVG/1.1/DTD/svg11.dtd">
<svg version="1.1" id="Layer_1" xmlns="http://www.w3.org/2000/svg" xmlns:xlink="http://www.w3.org/1999/xlink" x="0px" y="0px"
	 width="12px" height="12px" viewBox="0 0 12 12" style="enable-background:new 0 0 12 12;" xml:space="preserve">
<path style="fill-rule:evenodd;clip-rule:evenodd;fill:#5C6B78;" d="M11.8,6.8h-1.459c-0.098,0.782-0.247,1.09-0.432,1.399
	l1.047,1.047c0.078,0.078,0.078,0.205,0,0.283l-1.427,1.426c-0.078,0.078-0.205,0.078-0.283,0L8.194,9.904
	c-0.229,0.117-0.508,0.214-0.74,0.296C7.36,10.233,7.27,10.265,7.2,10.292V11.8C7.2,11.911,7.11,12,7,12H5
	c-0.11,0-0.2-0.089-0.2-0.2v-1.508c-0.07-0.027-0.16-0.059-0.254-0.092c-0.232-0.082-0.511-0.18-0.741-0.297l-1.051,1.052
	c-0.078,0.078-0.205,0.078-0.283,0L1.044,9.529C1.006,9.492,0.985,9.441,0.985,9.388s0.021-0.104,0.059-0.141l1.052-1.052
	C1.889,7.784,1.75,7.204,1.671,6.8H0.2C0.089,6.8,0,6.71,0,6.6V5c0-0.11,0.089-0.2,0.2-0.2h1.507
	c0.027-0.07,0.059-0.161,0.092-0.254c0.082-0.232,0.179-0.511,0.296-0.74L1.044,2.753c-0.078-0.078-0.078-0.205,0-0.283l1.427-1.427
	c0.078-0.078,0.205-0.078,0.283,0l1.052,1.052c0.23-0.117,0.509-0.215,0.742-0.296C4.64,1.766,4.73,1.734,4.8,1.708V0.2
	C4.8,0.09,4.89,0,5,0h2c0.11,0,0.2,0.09,0.2,0.2v1.508C7.27,1.735,7.36,1.766,7.453,1.799C7.686,1.88,7.964,1.979,8.194,2.095
	l1.052-1.052c0.078-0.078,0.205-0.078,0.283,0l1.427,1.427c0.037,0.038,0.059,0.088,0.059,0.142s-0.021,0.104-0.059,0.141
	L9.901,3.808c0.085,0.19,0.159,0.439,0.225,0.663c0.031,0.106,0.071,0.24,0.102,0.329H11.8C11.911,4.8,12,4.89,12,5v1.6
	C12,6.71,11.911,6.8,11.8,6.8z M11.6,5.2h-1.375c-0.031,0.016-0.063,0.026-0.091,0.026c-0.203,0-0.259-0.188-0.392-0.642
	c-0.074-0.25-0.166-0.562-0.256-0.71C9.438,3.795,9.45,3.693,9.515,3.628l1.017-1.016L9.388,1.468L8.371,2.484
	C8.306,2.55,8.205,2.563,8.125,2.514C7.913,2.384,7.584,2.269,7.321,2.177C7.138,2.112,6.993,2.061,6.904,2.013
	C6.84,1.978,6.8,1.911,6.8,1.837V0.4H5.2v1.438c0,0.073-0.04,0.141-0.104,0.176C5.007,2.061,4.862,2.112,4.679,2.177
	C4.415,2.269,4.087,2.384,3.875,2.514C3.795,2.561,3.694,2.55,3.629,2.484L2.612,1.468L1.468,2.612l1.017,1.017
	C2.55,3.694,2.562,3.796,2.514,3.875c-0.13,0.212-0.245,0.54-0.337,0.804C2.112,4.862,2.061,5.007,2.013,5.096
	C1.978,5.16,1.91,5.2,1.837,5.2H0.4v1.2h1.437c0.097,0,0.18,0.07,0.197,0.165c0.125,0.696,0.299,1.264,0.48,1.561
	c0.048,0.079,0.036,0.18-0.029,0.246L1.468,9.388l1.144,1.143l1.017-1.017c0.065-0.066,0.167-0.077,0.246-0.029
	c0.212,0.13,0.541,0.245,0.805,0.338c0.184,0.064,0.329,0.115,0.417,0.164C5.16,10.022,5.2,10.09,5.2,10.163V11.6h1.6v-1.438
	c0-0.073,0.04-0.141,0.104-0.176c0.089-0.049,0.233-0.1,0.417-0.164C7.585,9.73,7.913,9.615,8.125,9.486
	c0.078-0.048,0.18-0.036,0.246,0.029l1.017,1.016l1.144-1.143L9.515,8.371C9.45,8.306,9.438,8.204,9.486,8.125
	c0.227-0.372,0.379-0.621,0.478-1.547C9.975,6.477,10.061,6.4,10.163,6.4H11.6V5.2z M6,8.4C4.677,8.4,3.6,7.323,3.6,6
	c0-1.323,1.077-2.4,2.4-2.4S8.4,4.677,8.4,6C8.4,7.323,7.323,8.4,6,8.4z M6,4C4.897,4,4,4.897,4,6s0.897,2,2,2s2-0.897,2-2
	S7.103,4,6,4z"/>
</svg>
