<?xml version="1.0" encoding="utf-8"?>
<!-- Generator: Adobe Illustrator 19.2.1, SVG Export Plug-In . SVG Version: 6.00 Build 0)  -->
<svg version="1.1" id="Layer_1" xmlns:sketch="http://www.bohemiancoding.com/sketch/ns"
	 xmlns="http://www.w3.org/2000/svg" xmlns:xlink="http://www.w3.org/1999/xlink" x="0px" y="0px" viewBox="0 0 35 18"
	 style="enable-background:new 0 0 35 18;" xml:space="preserve">
<style type="text/css">
	.st0{fill:#C0CAD0;}
</style>
<title>Oval 9 + Oval 7 + Oval 9 + Oval 7 Copy 4 + Oval 9 + Oval 7 Copy 5</title>
<desc>Created with Sketch.</desc>
<g id="_x2D_-Dashboard" sketch:type="MSPage">
	<g id="_x2D_-02-Customers" transform="translate(-26.000000, -344.000000)" sketch:type="MSArtboardGroup">
		
			<g id="Oval-9-_x2B_-Oval-7-_x2B_-Oval-9-_x2B_-Oval-7-Copy-4-_x2B_-Oval-9-_x2B_-Oval-7-Copy-5" transform="translate(26.000000, 344.000000)" sketch:type="MSLayerGroup">
			<g>
				<path class="st0" d="M17.9,0.5c2.2,0,4,1.8,4.1,4c0,2.2-1.8,4-4.1,4c-2.3,0-4.1-1.8-4.1-4C13.8,2.3,15.6,0.5,17.9,0.5 M17.9,0
					c-2.5,0-4.6,2-4.6,4.5s2,4.5,4.6,4.5c2.5,0,4.6-2,4.6-4.5C22.4,2,20.4,0,17.9,0L17.9,0z"/>
				<path class="st0" d="M13.4,8.9c0.9,1.3,2.6,2.2,4.5,2.2c1.6,0,3.2-0.7,4.2-1.8c0.1,0.1,0.3,0.2,0.4,0.3c1.3,1.1,2,2.6,2,4.2
					c0,3-2.7,3.6-7,3.6s-7-0.6-7-3.6c0-1.9,0.9-3.5,2.5-4.7L13.4,8.9 M13.6,8.2l-0.9,0.5c-1.7,1.2-2.7,3-2.7,5.1
					c0,3.6,3.4,4.1,7.5,4.1s7.5-0.5,7.5-4.1c0-1.7-0.8-3.4-2.2-4.6C22.5,9,22.3,8.8,22,8.6c-0.8,1.2-2.4,2-4.1,2
					C16,10.6,14.3,9.6,13.6,8.2L13.6,8.2z"/>
			</g>
			<g id="Oval-9-_x2B_-Oval-7-Copy-4" transform="translate(0.000000, 2.000000)" sketch:type="MSShapeGroup">
				<path id="Shape_2_" class="st0" d="M5.9,0.5c1.8,0,3.2,1.4,3.2,3.1c0,1.8-1.4,3.2-3.2,3.2S2.7,5.4,2.7,3.7
					C2.7,2,4.2,0.5,5.9,0.5 M5.9,0c-2,0-3.7,1.7-3.7,3.7s1.7,3.6,3.7,3.6c2.1,0,3.7-1.7,3.7-3.7S7.9,0,5.9,0L5.9,0z"/>
				<path id="Shape_7_" class="st0" d="M9.5,8"/>
				<path id="Shape_4_" class="st0" d="M2.6,7.3c0.7,1,1.9,1.6,3.4,1.6c1.1,0,2.4-0.9,3.1-1.3l0.1,0.1C9,8.3,8.6,9.5,8.5,10.1
					c-0.2,1.2-0.1,2.5-0.1,3.2c-0.8,0.1-1.8,0.2-2.7,0.2c-3.8,0-5.2-0.7-5.2-2.6c0-1.3,0.6-2.5,1.7-3.3c0,0,0,0,0.1,0l0.1-0.1
					C2.4,7.4,2.5,7.3,2.6,7.3 M2.8,6.6C2.5,6.7,2.2,6.9,2,7.1L1.9,7.2C0.7,8.1,0,9.4,0,10.9C0,13.6,2.5,14,5.7,14
					C6.9,14,8,13.9,9,13.7c0,0-0.3-1.8,0-3.5c0.1-0.7,0.8-2.6,0.8-2.6L9.2,6.9C9.1,6.9,7.3,8.4,6,8.4C4.5,8.4,3.3,7.7,2.8,6.6
					L2.8,6.6z"/>
			</g>
			<g id="Oval-9-_x2B_-Oval-7-Copy-4_1_" transform="translate(0.000000, 2.000000)" sketch:type="MSShapeGroup">
				<path id="Shape_8_" class="st0" d="M29.1,0.5c1.8,0,3.2,1.4,3.2,3.1c0,1.7-1.5,3.2-3.2,3.2c-1.8,0-3.2-1.4-3.2-3.1
					C25.9,1.9,27.3,0.5,29.1,0.5 M29.1,0c-2.1,0-3.7,1.7-3.7,3.7s1.7,3.6,3.7,3.6s3.7-1.7,3.7-3.7S31.1,0,29.1,0L29.1,0z"/>
				<path id="Shape_3_" class="st0" d="M25.5,8"/>
				<path id="Shape_1_" class="st0" d="M32.5,7.3C32.5,7.3,32.5,7.3,32.5,7.3c0.2,0.1,0.2,0.2,0.3,0.2l0.1,0.1
					c0.6,0.5,1.7,1.7,1.7,3.3c0,2.2-1.8,2.6-5.2,2.6c-1,0-1.9-0.1-2.7-0.2c0.1-0.5,0.2-1.4-0.1-2.8c-0.2-1.4-0.6-2.4-0.9-2.9
					l0.1-0.1c0.6,0.5,2,1.3,3.1,1.3C30.4,8.9,31.7,8.3,32.5,7.3 M32.3,6.6c-0.6,1.1-1.8,1.8-3.3,1.8c-1.4,0-3.2-1.5-3.2-1.5
					l-0.6,0.7c0,0,0.7,1,1,3c0.4,2.2-0.1,3.1-0.1,3.1c0.9,0.2,2.1,0.3,3.3,0.3c3.2,0,5.7-0.3,5.7-3.1c0-1.5-0.8-2.8-1.9-3.7
					l-0.1-0.1C32.8,6.9,32.6,6.7,32.3,6.6L32.3,6.6z"/>
			</g>
		</g>
	</g>
</g>
</svg>
