<?xml version="1.0" encoding="UTF-8" standalone="no"?>
<svg width="25px" height="21px" viewBox="0 0 25 21" version="1.1" xmlns="http://www.w3.org/2000/svg" xmlns:xlink="http://www.w3.org/1999/xlink">
    <!-- Generator: Sketch Beta 3.6 (26298) - http://www.bohemiancoding.com/sketch -->
    <title>twitter</title>
    <desc>Created with Sketch Beta.</desc>
    <defs></defs>
    <g id="MessageUs" stroke="none" stroke-width="1" fill="none" fill-rule="evenodd">
        <g id="05-About" transform="translate(-998.000000, -804.000000)" fill="#605C62">
            <g id="Assets/Icon-twitter" transform="translate(998.000000, 804.000000)">
                <path d="M25.0379878,2.41251445 C24.092543,2.83633456 23.1470981,3.12974848 22.1038486,3.26015467 C23.1470981,2.64072528 23.9621368,1.59747579 24.3207538,0.39121856 C23.3427074,0.9780464 22.2668564,1.43446805 21.0932007,1.66267888 C20.1477558,0.652030933 18.8110924,0 17.3114213,0 C14.4750867,0 12.1929785,2.31470981 12.1929785,5.15104437 C12.1929785,5.54226293 12.2581815,5.96608304 12.3233846,6.32470005 C8.05258203,6.12909077 4.27080261,4.04259179 1.72788197,0.945444853 C1.30406187,1.72788197 1.04324949,2.60812373 1.04324949,3.55356859 C1.04324949,5.31405211 1.9560928,6.87892635 3.32535776,7.8243712 C2.47771755,7.79176965 1.72788197,7.56355883 1.01064795,7.20494181 L1.01064795,7.27014491 C1.01064795,9.74786245 2.77113147,11.8017599 5.15104437,12.2581815 C4.72722427,12.3885877 4.23820107,12.4537908 3.78177941,12.4537908 C3.45576395,12.4537908 3.09714693,12.4211893 2.80373301,12.3559862 C3.45576395,14.3772821 5.31405211,15.9095548 7.59616037,15.9421563 C5.83567685,17.3114213 3.65137323,18.1590615 1.23885877,18.1590615 C0.815038667,18.1590615 0.39121856,18.0938584 0,18.0612569 C2.28210827,19.4957249 4.98803664,20.3759667 7.88957429,20.3759667 C17.3440228,20.3759667 22.4950672,12.5515955 22.4950672,5.77047376 C22.4950672,5.54226293 22.4950672,5.31405211 22.4624657,5.08584128 C23.4731136,4.33600571 24.3207538,3.45576395 25.0379878,2.41251445 L25.0379878,2.41251445 Z" id="twitter"></path>
            </g>
        </g>
    </g>
</svg>