<?xml version="1.0" encoding="iso-8859-1"?>
<!-- Generator: Adobe Illustrator 16.0.0, SVG Export Plug-In . SVG Version: 6.00 Build 0)  -->
<!DOCTYPE svg PUBLIC "-//W3C//DTD SVG 1.1//EN" "http://www.w3.org/Graphics/SVG/1.1/DTD/svg11.dtd">
<svg version="1.1" id="Layer_1" xmlns="http://www.w3.org/2000/svg" xmlns:xlink="http://www.w3.org/1999/xlink" x="0px" y="0px"
	 width="162px" height="27px" viewBox="0 0 162 27" style="enable-background:new 0 0 162 27;" xml:space="preserve">
<g>
	<defs>
		<path id="SVGID_1_" d="M151.608,18.381c0-0.24,0.087-0.438,0.26-0.598c0.173-0.158,0.385-0.237,0.636-0.237
			c0.217,0,0.411,0.06,0.585,0.18c1.107,0.865,2.332,1.298,3.673,1.298c0.961,0,1.707-0.201,2.239-0.604
			c0.532-0.402,0.798-0.929,0.798-1.579c0-0.411-0.146-0.759-0.441-1.041c-0.294-0.282-0.675-0.501-1.142-0.655
			c-0.468-0.154-0.982-0.295-1.545-0.424c-0.562-0.128-1.127-0.278-1.694-0.449c-0.566-0.172-1.083-0.381-1.551-0.63
			c-0.467-0.248-0.848-0.602-1.143-1.06c-0.294-0.458-0.44-1.004-0.44-1.638c0-1.036,0.428-1.905,1.284-2.608
			c0.857-0.702,2.025-1.053,3.505-1.053c1.73,0,3.185,0.501,4.361,1.503c0.173,0.146,0.26,0.338,0.26,0.578
			c0,0.223-0.078,0.409-0.233,0.559c-0.156,0.15-0.342,0.225-0.559,0.225c-0.207,0-0.385-0.06-0.532-0.18
			c-0.935-0.719-2.033-1.079-3.297-1.079c-0.856,0-1.545,0.19-2.063,0.571c-0.52,0.381-0.779,0.859-0.779,1.433
			c0,0.376,0.147,0.689,0.441,0.938c0.295,0.249,0.673,0.445,1.136,0.591s0.979,0.278,1.545,0.398c0.566,0.12,1.134,0.272,1.7,0.456
			c0.567,0.184,1.082,0.407,1.545,0.668s0.842,0.633,1.136,1.118c0.294,0.483,0.441,1.06,0.441,1.728
			c0,1.113-0.441,2.031-1.324,2.755s-2.124,1.086-3.726,1.086c-1.946,0-3.543-0.544-4.789-1.632
			C151.704,18.835,151.608,18.629,151.608,18.381z M138.189,16.569V8.387c0-0.257,0.1-0.478,0.298-0.662
			c0.199-0.184,0.441-0.276,0.728-0.276c0.251,0,0.474,0.094,0.668,0.283c0.195,0.188,0.292,0.407,0.292,0.655v7.579
			c0,1.062,0.247,1.81,0.74,2.241c0.493,0.433,1.203,0.649,2.129,0.649c0.753,0,1.478-0.185,2.174-0.553
			c0.697-0.368,1.24-0.822,1.629-1.361V8.387c0-0.257,0.102-0.478,0.306-0.662c0.203-0.184,0.447-0.276,0.733-0.276
			c0.251,0,0.474,0.094,0.668,0.283c0.195,0.188,0.292,0.407,0.292,0.655v11.111c0,0.266-0.1,0.493-0.298,0.682
			c-0.199,0.188-0.438,0.282-0.714,0.282c-0.269,0-0.5-0.095-0.695-0.282c-0.194-0.188-0.292-0.416-0.292-0.682v-0.976
			c-0.536,0.6-1.207,1.101-2.012,1.503s-1.657,0.604-2.557,0.604C139.552,20.629,138.189,19.275,138.189,16.569z M126.042,12.754
			h6.321c-0.018-0.325-0.089-0.645-0.214-0.957c-0.126-0.312-0.308-0.612-0.546-0.899c-0.237-0.287-0.564-0.518-0.979-0.694
			c-0.416-0.175-0.888-0.263-1.415-0.263c-0.502,0-0.954,0.085-1.356,0.257s-0.725,0.398-0.967,0.681
			c-0.242,0.283-0.433,0.583-0.571,0.899S126.085,12.42,126.042,12.754z M122.563,13.937c0-1.225,0.278-2.342,0.837-3.353
			c0.558-1.01,1.348-1.813,2.369-2.408c1.021-0.595,2.167-0.893,3.439-0.893c1.437,0,2.681,0.383,3.731,1.15
			c1.052,0.766,1.807,1.813,2.266,3.141c0.251,0.796,0.376,1.438,0.376,1.927c0,0.411-0.153,0.766-0.461,1.066
			c-0.307,0.3-0.677,0.45-1.109,0.45h-7.918c0.112,0.848,0.495,1.552,1.148,2.113c0.653,0.561,1.504,0.841,2.551,0.841
			c0.874,0,1.705-0.21,2.492-0.629c0.226-0.111,0.445-0.167,0.662-0.167c0.372,0,0.705,0.13,1,0.392
			c0.294,0.261,0.44,0.58,0.44,0.957c0,0.351-0.175,0.67-0.525,0.957c-0.351,0.286-0.794,0.509-1.33,0.668
			c-0.537,0.158-1.075,0.278-1.616,0.359s-1.041,0.122-1.499,0.122c-1.982,0-3.62-0.614-4.913-1.844
			C123.21,17.557,122.563,15.94,122.563,13.937z M110.701,13.756c0,1.08,0.299,1.931,0.896,2.556
			c0.598,0.625,1.381,0.938,2.35,0.938c0.554,0,1.104-0.137,1.648-0.41c0.545-0.274,0.961-0.617,1.246-1.028v-4.11
			c-0.276-0.419-0.688-0.764-1.233-1.034c-0.545-0.27-1.099-0.404-1.661-0.404c-0.969,0-1.752,0.312-2.35,0.938
			C111,11.825,110.701,12.677,110.701,13.756z M107.223,13.756c0-2.029,0.525-3.616,1.577-4.759
			c1.051-1.143,2.412-1.715,4.082-1.715c1.584,0,2.903,0.651,3.959,1.953V9.106c0-0.462,0.164-0.854,0.493-1.175
			c0.329-0.321,0.74-0.482,1.233-0.482c0.467,0,0.863,0.161,1.188,0.482c0.324,0.321,0.487,0.713,0.487,1.175v10.328
			c0,0.933-0.141,1.76-0.422,2.479c-0.281,0.72-0.647,1.298-1.098,1.734c-0.449,0.437-0.986,0.797-1.609,1.079
			s-1.241,0.476-1.856,0.578c-0.614,0.103-1.263,0.154-1.946,0.154c-0.979,0-1.965-0.129-2.96-0.386s-1.666-0.65-2.012-1.182
			c-0.147-0.231-0.221-0.479-0.221-0.745c0-0.394,0.141-0.724,0.422-0.989s0.612-0.398,0.993-0.398c0.26,0,0.497,0.061,0.714,0.181
			c0.856,0.522,1.878,0.783,3.063,0.783c0.441,0,0.856-0.052,1.246-0.154c0.389-0.103,0.762-0.27,1.116-0.501
			s0.638-0.562,0.85-0.995c0.213-0.433,0.318-0.948,0.318-1.548v-1.298c-1.073,1.336-2.393,2.004-3.959,2.004
			c-1.67,0-3.031-0.565-4.082-1.695C107.748,17.404,107.223,15.812,107.223,13.756z M96.399,16.492c0,0.574,0.231,1.028,0.694,1.362
			s1.036,0.501,1.72,0.501c0.562,0,1.088-0.095,1.577-0.283s0.867-0.462,1.136-0.822v-1.566c-0.269-0.36-0.646-0.634-1.136-0.822
			s-1.015-0.283-1.577-0.283c-0.692,0-1.268,0.17-1.727,0.508S96.399,15.894,96.399,16.492z M92.998,16.415
			c0-0.573,0.089-1.096,0.267-1.566c0.177-0.472,0.415-0.861,0.714-1.169c0.298-0.308,0.643-0.567,1.031-0.777
			c0.39-0.21,0.79-0.362,1.201-0.456s0.828-0.142,1.253-0.142c0.856,0,1.642,0.135,2.355,0.405c0.714,0.27,1.283,0.653,1.707,1.15
			v-1.708c0-0.643-0.258-1.158-0.772-1.548s-1.196-0.584-2.044-0.584c-1.073,0-2.029,0.274-2.869,0.822
			c-0.208,0.12-0.411,0.18-0.61,0.18c-0.328,0-0.625-0.12-0.889-0.36s-0.396-0.548-0.396-0.925c0-0.214,0.065-0.433,0.195-0.655
			c0.354-0.565,1.073-1.006,2.154-1.323c1.082-0.317,2.081-0.476,2.999-0.476c0.77,0,1.476,0.082,2.115,0.244
			c0.641,0.163,1.231,0.424,1.772,0.784c0.54,0.359,0.962,0.86,1.266,1.503c0.303,0.642,0.454,1.404,0.454,2.287v6.705
			c0,0.463-0.16,0.854-0.48,1.176s-0.71,0.481-1.168,0.481h-0.26c-0.096,0-0.212-0.02-0.351-0.058
			c-0.139-0.039-0.296-0.105-0.474-0.199c-0.178-0.095-0.329-0.246-0.454-0.456c-0.126-0.21-0.188-0.46-0.188-0.752
			c-0.441,0.515-1.019,0.914-1.733,1.201c-0.714,0.287-1.49,0.431-2.329,0.431c-0.528,0-1.05-0.09-1.564-0.27
			s-0.993-0.438-1.435-0.771s-0.796-0.776-1.064-1.329C93.133,17.706,92.998,17.092,92.998,16.415z M80.591,18.227
			c0-0.385,0.143-0.713,0.428-0.982c0.285-0.27,0.61-0.404,0.974-0.404c0.269,0,0.497,0.06,0.688,0.18
			c1.203,0.685,2.358,1.027,3.466,1.027c0.71,0,1.246-0.126,1.61-0.379c0.363-0.253,0.545-0.585,0.545-0.995
			c0-0.283-0.141-0.515-0.422-0.694s-0.647-0.321-1.097-0.424c-0.45-0.103-0.945-0.203-1.486-0.302s-1.082-0.235-1.623-0.411
			s-1.036-0.396-1.486-0.661c-0.449-0.266-0.815-0.645-1.097-1.137c-0.281-0.492-0.422-1.077-0.422-1.753
			c0-1.122,0.472-2.07,1.415-2.845s2.224-1.163,3.842-1.163c0.927,0,1.854,0.142,2.784,0.424c0.931,0.283,1.564,0.66,1.902,1.13
			c0.139,0.188,0.207,0.407,0.207,0.655c0,0.351-0.134,0.651-0.402,0.899c-0.268,0.248-0.575,0.373-0.921,0.373
			c-0.226,0-0.438-0.056-0.637-0.167c-0.865-0.505-1.834-0.758-2.907-0.758c-0.597,0-1.082,0.12-1.454,0.36s-0.558,0.54-0.558,0.899
			c0,0.248,0.141,0.454,0.422,0.616c0.281,0.163,0.645,0.295,1.09,0.398c0.446,0.103,0.937,0.203,1.474,0.302
			c0.536,0.099,1.075,0.242,1.616,0.43c0.541,0.188,1.034,0.422,1.479,0.7s0.809,0.674,1.09,1.188s0.422,1.118,0.422,1.812
			c0,1.19-0.493,2.169-1.479,2.936s-2.345,1.149-4.075,1.149c-0.961,0-1.969-0.15-3.024-0.449c-1.057-0.3-1.766-0.711-2.129-1.233
			C80.669,18.74,80.591,18.501,80.591,18.227z M68.132,18.227c0-0.385,0.143-0.713,0.428-0.982s0.61-0.404,0.974-0.404
			c0.268,0,0.498,0.06,0.688,0.18c1.203,0.685,2.358,1.027,3.466,1.027c0.709,0,1.246-0.126,1.609-0.379
			c0.364-0.253,0.545-0.585,0.545-0.995c0-0.283-0.141-0.515-0.422-0.694s-0.647-0.321-1.097-0.424
			c-0.45-0.103-0.945-0.203-1.486-0.302c-0.541-0.099-1.082-0.235-1.623-0.411c-0.541-0.176-1.037-0.396-1.486-0.661
			c-0.45-0.266-0.816-0.645-1.097-1.137c-0.281-0.492-0.422-1.077-0.422-1.753c0-1.122,0.472-2.07,1.415-2.845
			s2.224-1.163,3.842-1.163c0.926,0,1.854,0.142,2.784,0.424c0.93,0.283,1.564,0.66,1.902,1.13c0.138,0.188,0.208,0.407,0.208,0.655
			c0,0.351-0.134,0.651-0.402,0.899c-0.269,0.248-0.576,0.373-0.922,0.373c-0.225,0-0.437-0.056-0.636-0.167
			c-0.865-0.505-1.834-0.758-2.908-0.758c-0.597,0-1.082,0.12-1.454,0.36s-0.558,0.54-0.558,0.899c0,0.248,0.141,0.454,0.422,0.616
			c0.281,0.163,0.645,0.295,1.09,0.398c0.445,0.103,0.937,0.203,1.473,0.302s1.075,0.242,1.616,0.43
			c0.541,0.188,1.034,0.422,1.479,0.7s0.809,0.674,1.09,1.188s0.422,1.118,0.422,1.812c0,1.19-0.493,2.169-1.48,2.936
			c-0.986,0.767-2.345,1.149-4.076,1.149c-0.96,0-1.969-0.15-3.024-0.449c-1.056-0.3-1.765-0.711-2.128-1.233
			C68.21,18.74,68.132,18.501,68.132,18.227z M57.075,12.754h6.321c-0.017-0.325-0.088-0.645-0.214-0.957s-0.307-0.612-0.545-0.899
			c-0.238-0.287-0.564-0.518-0.98-0.694c-0.415-0.175-0.887-0.263-1.415-0.263c-0.502,0-0.954,0.085-1.356,0.257
			c-0.403,0.171-0.725,0.398-0.967,0.681c-0.242,0.283-0.433,0.583-0.571,0.899C57.209,12.095,57.119,12.42,57.075,12.754z
			 M53.597,13.937c0-1.225,0.279-2.342,0.837-3.353c0.558-1.01,1.348-1.813,2.369-2.408c1.021-0.595,2.167-0.893,3.44-0.893
			c1.437,0,2.68,0.383,3.731,1.15c1.052,0.766,1.807,1.813,2.265,3.141c0.251,0.796,0.376,1.438,0.376,1.927
			c0,0.411-0.153,0.766-0.461,1.066c-0.307,0.3-0.677,0.45-1.109,0.45h-7.918c0.112,0.848,0.495,1.552,1.148,2.113
			c0.653,0.561,1.503,0.841,2.551,0.841c0.874,0,1.705-0.21,2.492-0.629c0.225-0.111,0.446-0.167,0.662-0.167
			c0.372,0,0.705,0.13,1,0.392c0.294,0.261,0.441,0.58,0.441,0.957c0,0.351-0.175,0.67-0.525,0.957
			c-0.351,0.286-0.794,0.509-1.331,0.668c-0.537,0.158-1.075,0.278-1.616,0.359c-0.541,0.081-1.041,0.122-1.499,0.122
			c-1.982,0-3.619-0.614-4.913-1.844C54.243,17.557,53.597,15.94,53.597,13.937z M31.986,18.805V9.081
			c0-0.454,0.165-0.839,0.494-1.156c0.329-0.317,0.74-0.476,1.233-0.476c0.45,0,0.837,0.161,1.162,0.482
			c0.325,0.321,0.487,0.704,0.487,1.149v0.18c0.32-0.463,0.878-0.908,1.674-1.336c0.796-0.428,1.64-0.643,2.531-0.643
			c0.926,0,1.69,0.201,2.291,0.604c0.602,0.402,1.023,0.972,1.266,1.708c0.398-0.625,1.002-1.167,1.811-1.625
			c0.809-0.458,1.676-0.688,2.603-0.688c1.203,0,2.133,0.321,2.791,0.963c0.658,0.643,0.986,1.602,0.986,2.877v7.682
			c0,0.463-0.164,0.854-0.493,1.176c-0.329,0.321-0.74,0.481-1.233,0.481c-0.467,0-0.863-0.16-1.188-0.481
			c-0.324-0.321-0.486-0.713-0.486-1.176v-6.525c0-0.625-0.156-1.118-0.467-1.478c-0.312-0.359-0.796-0.539-1.454-0.539
			c-0.545,0-1.054,0.146-1.525,0.437c-0.472,0.291-0.846,0.634-1.123,1.028v7.078c0,0.463-0.167,0.854-0.5,1.176
			c-0.333,0.321-0.747,0.481-1.24,0.481c-0.467,0-0.863-0.16-1.188-0.481c-0.324-0.321-0.486-0.713-0.486-1.176v-6.525
			c0-1.345-0.636-2.017-1.908-2.017c-0.537,0-1.043,0.147-1.519,0.443c-0.476,0.295-0.856,0.645-1.142,1.047v7.052
			c0,0.463-0.165,0.854-0.493,1.176c-0.329,0.321-0.731,0.481-1.207,0.481c-0.467,0-0.863-0.16-1.188-0.481
			C32.149,19.659,31.986,19.268,31.986,18.805z"/>
	</defs>
	<clipPath id="SVGID_2_">
		<use xlink:href="#SVGID_1_"  style="overflow:visible;"/>
	</clipPath>
	<g style="clip-path:url(#SVGID_2_);">
		<defs>
			<rect id="SVGID_3_" x="-172" y="-39" width="1440" height="6123"/>
		</defs>
		<clipPath id="SVGID_4_">
			<use xlink:href="#SVGID_3_"  style="overflow:visible;"/>
		</clipPath>
		<rect x="26.986" y="2.282" style="clip-path:url(#SVGID_4_);fill:#FFFFFF;" width="139.747" height="28.177"/>
	</g>
</g>
<g>
	<defs>
		<path id="SVGID_5_" d="M2.021,17.386C4.637,22.207,9.039,27,10.626,27c2.434,0,10.534-9.84,10.358-16.638S16.287,0,10.492,0
			C4.697,0,0,5.015,0,10.362C0,12.224,0.624,14.81,2.021,17.386z M5.292,14.203c-0.837-1.096-1.333-2.46-1.333-3.939
			c0-3.617,2.969-6.549,6.632-6.549s6.632,2.932,6.632,6.549s-2.969,6.549-6.632,6.549c-0.015,0-0.03,0-0.045,0v3.704
			C10.546,20.518,6.252,15.899,5.292,14.203z"/>
	</defs>
	<clipPath id="SVGID_6_">
		<use xlink:href="#SVGID_5_"  style="overflow:visible;"/>
	</clipPath>
	<g style="clip-path:url(#SVGID_6_);">
		<defs>
			<rect id="SVGID_7_" x="-172" y="-39" width="1440" height="6123"/>
		</defs>
		<clipPath id="SVGID_8_">
			<use xlink:href="#SVGID_7_"  style="overflow:visible;"/>
		</clipPath>
		<rect x="-5" y="-5" style="clip-path:url(#SVGID_8_);fill:#FFFFFF;" width="30.987" height="37"/>
	</g>
</g>
</svg>
