<?xml version="1.0" encoding="UTF-8" standalone="no"?>
<svg width="324px" height="54px" viewBox="0 0 324 54" version="1.1" xmlns="http://www.w3.org/2000/svg" xmlns:xlink="http://www.w3.org/1999/xlink" xmlns:sketch="http://www.bohemiancoding.com/sketch/ns">
    <!-- Generator: Sketch 3.5.2 (25235) - http://www.bohemiancoding.com/sketch -->
    <title>messageus-logo-sign</title>
    <desc>Created with Sketch.</desc>
    <defs></defs>
    <g id="MessageUs" stroke="none" stroke-width="1" fill="none" fill-rule="evenodd" sketch:type="MSPage">
        <g id="20---SignIn" sketch:type="MSArtboardGroup" transform="translate(-557.000000, -180.000000)">
            <g id="messageus-logo-sign" sketch:type="MSLayerGroup" transform="translate(557.000000, 180.000000)">
                <path d="M64,39.0449219 L64,19.5967548 C64,18.6889979 64.3288314,17.9182724 64.9865042,17.2845553 C65.6441769,16.6508382 66.4662555,16.3339844 67.4527646,16.3339844 C68.3527378,16.3339844 69.1272223,16.65512 69.7762414,17.2974008 C70.4252606,17.9396817 70.7497653,18.7061254 70.7497653,19.5967548 L70.7497653,19.9564303 C71.3901308,19.0315459 72.506427,18.1409298 74.0986873,17.2845553 C75.6909476,16.4281808 77.378372,16 79.1610113,16 C81.0128792,16 82.5402147,16.40249 83.7430635,17.207482 C84.9459123,18.012474 85.7896245,19.1514349 86.2742255,20.624399 C87.0703556,19.3740923 88.2775131,18.2907948 89.8957341,17.3744742 C91.5139552,16.4581535 93.2489737,16 95.1008416,16 C97.5065392,16 99.3670328,16.6422712 100.682378,17.9268329 C101.997724,19.2113946 102.655387,21.1296447 102.655387,23.6816406 L102.655387,39.0449219 C102.655387,39.9698063 102.326555,40.7533772 101.668882,41.3956581 C101.01121,42.0379389 100.189131,42.3590745 99.202622,42.3590745 C98.2680345,42.3590745 97.476243,42.0379389 96.8272239,41.3956581 C96.1782047,40.7533772 95.8537,39.9698063 95.8537,39.0449219 L95.8537,25.9938401 C95.8537,24.7435334 95.5421755,23.7587175 94.9191172,23.039363 C94.2960588,22.3200084 93.3268714,21.9603365 92.011526,21.9603365 C90.9211738,21.9603365 89.9043924,22.2514995 88.9611513,22.8338341 C88.0179101,23.4161688 87.2693859,24.1012581 86.7155563,24.8891226 L86.7155563,39.0449219 C86.7155563,39.9698063 86.3823981,40.7533772 85.7160718,41.3956581 C85.0497455,42.0379389 84.2233402,42.3590745 83.2368311,42.3590745 C82.3022435,42.3590745 81.510452,42.0379389 80.8614329,41.3956581 C80.2124138,40.7533772 79.8879091,39.9698063 79.8879091,39.0449219 L79.8879091,25.9938401 C79.8879091,23.3048243 78.6158506,21.9603365 76.0716956,21.9603365 C74.9986506,21.9603365 73.986196,22.2557813 73.0343012,22.8466797 C72.0824065,23.4375781 71.3209021,24.1355128 70.7497653,24.9405048 L70.7497653,39.0449219 C70.7497653,39.9698063 70.4209339,40.7533772 69.7632611,41.3956581 C69.1055884,42.0379389 68.3008167,42.3590745 67.348922,42.3590745 C66.4143344,42.3590745 65.622543,42.0379389 64.9735238,41.3956581 C64.3245047,40.7533772 64,39.9698063 64,39.0449219 L64,39.0449219 Z M107.220086,29.3079928 C107.220086,26.8587618 107.778234,24.6236579 108.894547,22.6026142 C110.01086,20.5815704 111.590116,18.9758924 113.632363,17.7855319 C115.67461,16.5951713 117.967777,16 120.511932,16 C123.384923,16 125.872792,16.7664437 127.975614,18.299354 C130.078436,19.8322643 131.588465,21.9260685 132.505745,24.5808293 C133.007653,26.1736858 133.258604,27.4582283 133.258604,28.4344952 C133.258604,29.2566147 132.951406,29.9673948 132.337001,30.566857 C131.722596,31.1663191 130.982726,31.4660457 130.117367,31.4660457 L114.281379,31.4660457 C114.506372,33.1616671 115.272203,34.570382 116.578895,35.6922326 C117.885587,36.8140831 119.585992,37.375 121.68016,37.375 C123.428185,37.375 125.089649,36.9553828 126.664602,36.1161358 C127.114589,35.8934785 127.555915,35.7821514 127.988595,35.7821514 C128.732803,35.7821514 129.39912,36.0433417 129.987564,36.5657302 C130.576008,37.0881186 130.870225,37.726108 130.870225,38.4797175 C130.870225,39.1819446 130.51976,39.819934 129.81882,40.3937049 C129.117879,40.9674758 128.230899,41.4127839 127.157854,41.7296424 C126.084809,42.046501 125.007454,42.2862822 123.925755,42.4489934 C122.844057,42.6117045 121.844582,42.6930589 120.927302,42.6930589 C116.963958,42.6930589 113.688624,41.46418 111.101201,39.0063852 C108.513778,36.5485905 107.220086,33.3158253 107.220086,29.3079928 L107.220086,29.3079928 Z M114.177537,26.9444111 L126.820366,26.9444111 C126.785752,26.2935665 126.64297,25.655577 126.392016,25.0304237 C126.141062,24.4052703 125.777616,23.8058172 125.301669,23.2320463 C124.825722,22.6582754 124.172385,22.1958401 123.341641,21.8447266 C122.510896,21.493613 121.567669,21.3180589 120.511932,21.3180589 C119.508115,21.3180589 118.603829,21.4893312 117.799045,21.831881 C116.994261,22.1744308 116.349579,22.6283025 115.864978,23.1935096 C115.380377,23.7587168 114.999625,24.3581699 114.72271,24.991887 C114.445795,25.6256041 114.264072,26.276439 114.177537,26.9444111 L114.177537,26.9444111 Z M136.291626,37.8888221 C136.291626,37.1180851 136.57719,36.4629684 137.148327,35.9234525 C137.719464,35.3839366 138.368473,35.1141827 139.095374,35.1141827 C139.631897,35.1141827 140.09053,35.2340733 140.471288,35.4738582 C142.876986,36.8440573 145.187459,37.5291466 147.402778,37.5291466 C148.821966,37.5291466 149.894995,37.27652 150.621897,36.771259 C151.348798,36.2659981 151.712243,35.6023178 151.712243,34.7801983 C151.712243,34.2149912 151.431006,33.7525559 150.868523,33.3928786 C150.30604,33.0332013 149.574822,32.750602 148.674849,32.5450721 C147.774876,32.3395422 146.784055,32.1382973 145.702356,31.9413311 C144.620658,31.744365 143.538975,31.4703293 142.457277,31.1192157 C141.375578,30.7681022 140.384757,30.327076 139.484784,29.7961238 C138.584811,29.2651716 137.853594,28.5072916 137.29111,27.5224609 C136.728627,26.5376303 136.44739,25.3686967 136.44739,24.015625 C136.44739,21.7719239 137.390617,19.8750829 139.277099,18.3250451 C141.163581,16.7750073 143.725005,16 146.961447,16 C148.813315,16 150.669482,16.2825993 152.530003,16.8478065 C154.390525,17.4130136 155.658257,18.1666119 156.333237,19.1086238 C156.610151,19.4854286 156.748607,19.922173 156.748607,20.4188702 C156.748607,21.1210973 156.48035,21.7205504 155.943827,22.2172476 C155.407305,22.7139448 154.792909,22.9622897 154.100622,22.9622897 C153.650635,22.9622897 153.226616,22.8509627 152.828551,22.6283053 C151.097833,21.6177834 149.159458,21.11253 147.013368,21.11253 C145.819173,21.11253 144.849986,21.3523113 144.105777,21.831881 C143.361569,22.3114507 142.98947,22.9109039 142.98947,23.6302584 C142.98947,24.1269556 143.270707,24.5380092 143.833191,24.8634315 C144.395674,25.1888538 145.122564,25.4543259 146.013884,25.6598558 C146.905204,25.8653856 147.887371,26.0666306 148.960416,26.2635968 C150.033461,26.4605629 151.110817,26.747444 152.192515,27.1242488 C153.274214,27.5010536 154.260708,27.9677707 155.152028,28.5244141 C156.043347,29.0810575 156.770238,29.873192 157.332721,30.9008413 C157.895204,31.9284907 158.176442,33.1359606 158.176442,34.5232873 C158.176442,36.9040083 157.189947,38.8607946 155.216929,40.3937049 C153.243911,41.9266152 150.526725,42.6930589 147.06529,42.6930589 C145.144193,42.6930589 143.127937,42.3933323 141.016462,41.7938702 C138.904986,41.1944081 137.485819,40.3723009 136.758917,39.327524 C136.447388,38.9164643 136.291626,38.4369018 136.291626,37.8888221 L136.291626,37.8888221 Z M161.209464,37.8888221 C161.209464,37.1180851 161.495028,36.4629684 162.066165,35.9234525 C162.637302,35.3839366 163.286311,35.1141827 164.013212,35.1141827 C164.549735,35.1141827 165.008368,35.2340733 165.389126,35.4738582 C167.794824,36.8440573 170.105297,37.5291466 172.320616,37.5291466 C173.739804,37.5291466 174.812833,37.27652 175.539735,36.771259 C176.266636,36.2659981 176.630081,35.6023178 176.630081,34.7801983 C176.630081,34.2149912 176.348844,33.7525559 175.786361,33.3928786 C175.223878,33.0332013 174.49266,32.750602 173.592687,32.5450721 C172.692714,32.3395422 171.701893,32.1382973 170.620194,31.9413311 C169.538496,31.744365 168.456813,31.4703293 167.375115,31.1192157 C166.293416,30.7681022 165.302595,30.327076 164.402622,29.7961238 C163.502649,29.2651716 162.771432,28.5072916 162.208948,27.5224609 C161.646465,26.5376303 161.365228,25.3686967 161.365228,24.015625 C161.365228,21.7719239 162.308455,19.8750829 164.194937,18.3250451 C166.081419,16.7750073 168.642843,16 171.879285,16 C173.731153,16 175.58732,16.2825993 177.447841,16.8478065 C179.308363,17.4130136 180.576095,18.1666119 181.251075,19.1086238 C181.527989,19.4854286 181.666445,19.922173 181.666445,20.4188702 C181.666445,21.1210973 181.398188,21.7205504 180.861665,22.2172476 C180.325143,22.7139448 179.710747,22.9622897 179.01846,22.9622897 C178.568473,22.9622897 178.144454,22.8509627 177.746389,22.6283053 C176.015671,21.6177834 174.077296,21.11253 171.931206,21.11253 C170.737011,21.11253 169.767824,21.3523113 169.023615,21.831881 C168.279407,22.3114507 167.907308,22.9109039 167.907308,23.6302584 C167.907308,24.1269556 168.188545,24.5380092 168.751028,24.8634315 C169.313512,25.1888538 170.040402,25.4543259 170.931722,25.6598558 C171.823042,25.8653856 172.805209,26.0666306 173.878254,26.2635968 C174.951299,26.4605629 176.028655,26.747444 177.110353,27.1242488 C178.192052,27.5010536 179.178546,27.9677707 180.069866,28.5244141 C180.961185,29.0810575 181.688076,29.873192 182.250559,30.9008413 C182.813042,31.9284907 183.09428,33.1359606 183.09428,34.5232873 C183.09428,36.9040083 182.107785,38.8607946 180.134767,40.3937049 C178.161749,41.9266152 175.444563,42.6930589 171.983128,42.6930589 C170.062031,42.6930589 168.045775,42.3933323 165.9343,41.7938702 C163.822824,41.1944081 162.403657,40.3723009 161.676755,39.327524 C161.365226,38.9164643 161.209464,38.4369018 161.209464,37.8888221 L161.209464,37.8888221 Z M186.023459,34.2663762 C186.023459,33.1188344 186.200855,32.0740732 186.555652,31.1320613 C186.910449,30.1900494 187.38639,29.4107603 187.983487,28.7941707 C188.580585,28.1775811 189.268535,27.6594823 190.047358,27.2398588 C190.826181,26.8202353 191.626626,26.5162269 192.448717,26.3278245 C193.270807,26.1394221 194.105866,26.0452224 194.953918,26.0452224 C196.667328,26.0452224 198.237931,26.3149763 199.665773,26.8544922 C201.093615,27.3940081 202.231545,28.1604518 203.079597,29.1538462 L203.079597,25.7369291 C203.079597,24.4523674 202.564716,23.4204516 201.534939,22.6411508 C200.505162,21.8618501 199.142242,21.4722055 197.446139,21.4722055 C195.300049,21.4722055 193.387635,22.020277 191.708838,23.1164363 C191.293466,23.3562212 190.886754,23.4761118 190.488689,23.4761118 C189.831016,23.4761118 189.238254,23.2363305 188.710385,22.7567608 C188.182516,22.2771911 187.918586,21.6606107 187.918586,20.9070012 C187.918586,20.478814 188.048388,20.0420695 188.307995,19.5967548 C189.017589,18.4663405 190.454064,17.584288 192.617461,16.9505709 C194.780858,16.3168538 196.779807,16 198.614368,16 C200.154706,16 201.56522,16.1627087 202.845951,16.488131 C204.126682,16.8135533 205.307879,17.3359339 206.389578,18.0552885 C207.471277,18.774643 208.314989,19.7765861 208.92074,21.0611478 C209.526491,22.3457095 209.829362,23.8700332 209.829362,25.6341647 L209.829362,39.0449219 C209.829362,39.9698063 209.509184,40.7533772 208.868819,41.3956581 C208.228453,42.0379389 207.449642,42.3590745 206.532361,42.3590745 L206.013149,42.3590745 C205.82277,42.3590745 205.589126,42.3205382 205.312212,42.2434645 C205.035297,42.1663908 204.719445,42.0336548 204.364648,41.8452524 C204.009851,41.65685 203.70698,41.3528416 203.456026,40.9332181 C203.205072,40.5135947 203.079597,40.0126231 203.079597,39.4302885 C202.196931,40.4579378 201.041694,41.258636 199.613852,41.8324069 C198.18601,42.4061777 196.632714,42.6930589 194.953918,42.6930589 C193.89818,42.6930589 192.855438,42.513223 191.825661,42.1535457 C190.795884,41.7938684 189.839677,41.2800514 188.957011,40.6120793 C188.074345,39.9441072 187.364761,39.057773 186.828239,37.9530499 C186.291716,36.8483268 186.023459,35.6194479 186.023459,34.2663762 L186.023459,34.2663762 Z M192.825146,34.4205228 C192.825146,35.5680646 193.288106,36.475808 194.21404,37.14378 C195.139974,37.8117521 196.286557,38.1457332 197.653824,38.1457332 C198.778791,38.1457332 199.830186,37.9573336 200.808041,37.5805288 C201.785897,37.2037241 202.543074,36.6556526 203.079597,35.9362981 L203.079597,32.8019832 C202.543074,32.0826286 201.785897,31.5345572 200.808041,31.1577524 C199.830186,30.7809476 198.778791,30.5925481 197.653824,30.5925481 C196.26925,30.5925481 195.11834,30.9308109 194.201059,31.6073468 C193.283779,32.2838826 192.825146,33.2215986 192.825146,34.4205228 L192.825146,34.4205228 Z M214.471944,28.9483173 C214.471944,24.8891023 215.523339,21.7162825 217.626161,19.4297626 C219.728983,17.1432428 222.450496,16 225.790781,16 C228.957994,16 231.597299,17.3016697 233.708775,19.9050481 L233.708775,19.648137 C233.708775,18.7232526 234.037606,17.9396817 234.695279,17.2974008 C235.352952,16.65512 236.17503,16.3339844 237.161539,16.3339844 C238.096127,16.3339844 238.887918,16.65512 239.536937,17.2974008 C240.185957,17.9396817 240.510461,18.7232526 240.510461,19.648137 L240.510461,40.3037861 C240.510461,42.1706824 240.229224,43.8234604 239.666741,45.2621695 C239.104257,46.7008786 238.37304,47.8569668 237.473067,48.7304688 C236.573094,49.6039707 235.500065,50.3233145 234.253948,50.8885216 C233.007831,51.4537288 231.770387,51.8390915 230.541577,52.0446214 C229.312768,52.2501513 228.014749,52.3529147 226.647482,52.3529147 C224.691771,52.3529147 222.718782,52.0960062 220.728457,51.5821815 C218.738132,51.0683568 217.396845,50.2805041 216.704558,49.2185998 C216.410336,48.7561575 216.263228,48.2594678 216.263228,47.7285156 C216.263228,46.9406511 216.544465,46.2812527 217.106948,45.7503005 C217.669431,45.2193483 218.331421,44.9538762 219.092937,44.9538762 C219.612152,44.9538762 220.088092,45.0737668 220.520772,45.3135517 C222.234182,46.3583285 224.276399,46.8807091 226.647482,46.8807091 C227.530148,46.8807091 228.36088,46.7779457 229.139703,46.5724159 C229.918526,46.366886 230.662723,46.032905 231.372318,45.5704627 C232.081912,45.1080205 232.648713,44.4443403 233.072739,43.579402 C233.496765,42.7144638 233.708775,41.6825481 233.708775,40.4836238 L233.708775,37.8888221 C231.562685,40.5607105 228.92338,41.8966346 225.790781,41.8966346 C222.450496,41.8966346 219.728983,40.7662373 217.626161,38.5054087 C215.523339,36.24458 214.471944,33.0589148 214.471944,28.9483173 L214.471944,28.9483173 Z M221.429394,28.9483173 C221.429394,31.106381 222.026483,32.8105406 223.220678,34.0608474 C224.414873,35.3111541 225.981149,35.9362981 227.919553,35.9362981 C229.027212,35.9362981 230.126202,35.6622624 231.216554,35.1141827 C232.306906,34.566103 233.137638,33.8810137 233.708775,33.0588942 L233.708775,24.8377404 C233.154945,23.9984934 232.332866,23.3091223 231.242514,22.7696064 C230.152162,22.2300905 229.044519,21.9603365 227.919553,21.9603365 C225.981149,21.9603365 224.414873,22.5854805 223.220678,23.8357873 C222.026483,25.086094 221.429394,26.7902536 221.429394,28.9483173 L221.429394,28.9483173 Z M245.153043,29.3079928 C245.153043,26.8587618 245.711191,24.6236579 246.827504,22.6026142 C247.943817,20.5815704 249.523073,18.9758924 251.56532,17.7855319 C253.607567,16.5951713 255.900733,16 258.444888,16 C261.31788,16 263.805749,16.7664437 265.908571,18.299354 C268.011393,19.8322643 269.521422,21.9260685 270.438702,24.5808293 C270.94061,26.1736858 271.19156,27.4582283 271.19156,28.4344952 C271.19156,29.2566147 270.884363,29.9673948 270.269958,30.566857 C269.655553,31.1663191 268.915682,31.4660457 268.050323,31.4660457 L252.214336,31.4660457 C252.439329,33.1616671 253.20516,34.570382 254.511852,35.6922326 C255.818544,36.8140831 257.518948,37.375 259.613117,37.375 C261.361142,37.375 263.022606,36.9553828 264.597559,36.1161358 C265.047546,35.8934785 265.488872,35.7821514 265.921551,35.7821514 C266.66576,35.7821514 267.332076,36.0433417 267.92052,36.5657302 C268.508964,37.0881186 268.803182,37.726108 268.803182,38.4797175 C268.803182,39.1819446 268.452717,39.819934 267.751776,40.3937049 C267.050835,40.9674758 266.163856,41.4127839 265.090811,41.7296424 C264.017766,42.046501 262.94041,42.2862822 261.858712,42.4489934 C260.777013,42.6117045 259.777539,42.6930589 258.860258,42.6930589 C254.896915,42.6930589 251.621581,41.46418 249.034158,39.0063852 C246.446735,36.5485905 245.153043,33.3158253 245.153043,29.3079928 L245.153043,29.3079928 Z M252.110493,26.9444111 L264.753323,26.9444111 C264.718708,26.2935665 264.575926,25.655577 264.324972,25.0304237 C264.074018,24.4052703 263.710573,23.8058172 263.234626,23.2320463 C262.758678,22.6582754 262.105342,22.1958401 261.274598,21.8447266 C260.443853,21.493613 259.500626,21.3180589 258.444888,21.3180589 C257.441072,21.3180589 256.536786,21.4893312 255.732002,21.831881 C254.927218,22.1744308 254.282535,22.6283025 253.797934,23.1935096 C253.313333,23.7587168 252.932581,24.3581699 252.655666,24.991887 C252.378752,25.6256041 252.197029,26.276439 252.110493,26.9444111 L252.110493,26.9444111 Z M276.405276,34.5746695 L276.405276,18.2094351 C276.405276,17.6956104 276.604305,17.2545842 277.00237,16.8863431 C277.400436,16.5181021 277.885029,16.3339844 278.456166,16.3339844 C278.958074,16.3339844 279.403727,16.5223839 279.793139,16.8991887 C280.18255,17.2759935 280.377253,17.7127379 280.377253,18.2094351 L280.377253,33.3671875 C280.377253,35.4909962 280.8705,36.9853472 281.857009,37.8502855 C282.843518,38.7152237 284.262686,39.1476863 286.114554,39.1476863 C287.620278,39.1476863 289.069732,38.7794508 290.46296,38.0429688 C291.856188,37.3064867 292.942197,36.3987434 293.72102,35.3197115 L293.72102,18.2094351 C293.72102,17.6956104 293.924376,17.2545842 294.331095,16.8863431 C294.737813,16.5181021 295.226734,16.3339844 295.797871,16.3339844 C296.299779,16.3339844 296.745432,16.5223839 297.134843,16.8991887 C297.524255,17.2759935 297.718958,17.7127379 297.718958,18.2094351 L297.718958,40.4322416 C297.718958,40.9631938 297.519928,41.4170654 297.121863,41.7938702 C296.723798,42.170675 296.247858,42.3590745 295.694028,42.3590745 C295.157506,42.3590745 294.694546,42.170675 294.305134,41.7938702 C293.915723,41.4170654 293.72102,40.9631938 293.72102,40.4322416 L293.72102,38.4797175 C292.647975,39.6786418 291.306689,40.6805849 289.697121,41.4855769 C288.087554,42.2905689 286.382823,42.6930589 284.582876,42.6930589 C279.131115,42.6930589 276.405276,39.9869561 276.405276,34.5746695 L276.405276,34.5746695 Z M303.244201,38.1971154 C303.244201,37.7175457 303.41727,37.3193375 303.763414,37.002479 C304.109557,36.6856204 304.533577,36.5271935 305.035485,36.5271935 C305.468164,36.5271935 305.85757,36.6470841 306.203713,36.886869 C308.419032,38.6167454 310.867961,39.4816707 313.550573,39.4816707 C315.47167,39.4816707 316.964392,39.0791807 318.028783,38.2741887 C319.093174,37.4691967 319.625362,36.4158719 319.625362,35.1141827 C319.625362,34.2920632 319.331144,33.5984103 318.7427,33.0332031 C318.154256,32.467996 317.392752,32.0312515 316.458164,31.7229567 C315.523577,31.4146619 314.493815,31.1320626 313.368849,30.8751502 C312.243882,30.6182379 311.114606,30.3185113 309.980986,29.9759615 C308.847366,29.6334117 307.813277,29.2137946 306.87869,28.7170974 C305.944102,28.2204002 305.182598,27.5139018 304.594154,26.5975811 C304.00571,25.6812604 303.711492,24.5893994 303.711492,23.3219651 C303.711492,21.2495389 304.568185,19.5111248 306.281595,18.1066707 C307.995006,16.7022165 310.33144,16 313.290967,16 C316.752402,16 319.659964,17.0019431 322.01374,19.0058594 C322.359884,19.2970267 322.532953,19.6823894 322.532953,20.1619591 C322.532953,20.6072739 322.377191,20.9797912 322.065662,21.2795222 C321.754133,21.5792533 321.382034,21.7291166 320.949354,21.7291166 C320.533982,21.7291166 320.17919,21.609226 319.884968,21.3694411 C318.015793,19.930732 315.817815,19.2113882 313.290967,19.2113882 C311.577556,19.2113882 310.201656,19.5924691 309.163226,20.3546424 C308.124795,21.1168157 307.605588,22.0716589 307.605588,23.2192007 C307.605588,23.9728103 307.899805,24.5979542 308.488249,25.0946514 C309.076693,25.5913486 309.833871,25.985275 310.759805,26.2764423 C311.685739,26.5676096 312.7155,26.8330817 313.849121,27.0728666 C314.982741,27.3126514 316.116344,27.6166598 317.249964,27.9849008 C318.383584,28.3531419 319.413346,28.7984499 320.339279,29.3208383 C321.265213,29.8432268 322.022391,30.5882614 322.610835,31.5559645 C323.199279,32.5236677 323.493497,33.6754741 323.493497,35.0114183 C323.493497,37.2379919 322.610844,39.0748876 320.845512,40.5221605 C319.08018,41.9694333 316.596637,42.6930589 313.394809,42.6930589 C309.500695,42.6930589 306.307568,41.6054796 303.815335,39.4302885 C303.434577,39.1048662 303.244201,38.6938126 303.244201,38.1971154 L303.244201,38.1971154 Z" id="Label" fill="#605C62" sketch:type="MSShapeGroup"></path>
                <path d="M10.5846865,28.406583 C8.91093844,26.2141018 7.91861281,23.4856827 7.91861281,20.5283702 C7.91861281,13.2939617 13.856963,7.42931493 21.1822893,7.42931493 C28.5076155,7.42931493 34.4459657,13.2939617 34.4459657,20.5283702 C34.4459657,27.7627787 28.5076155,33.6274255 21.1822893,33.6274255 C21.1519778,33.6274255 21.12169,33.6273251 21.0914263,33.6271245 L21.0914263,41.0352314 C21.0914263,41.0352314 12.5052392,31.7996222 10.5846865,28.406583 Z M4.04301635,34.7712635 C9.274885,44.4130946 18.0784817,54 21.2516931,54 C26.1204027,54 42.3191471,34.320678 41.9686479,20.7238785 C41.6181488,7.12707897 32.5736461,0 20.984324,0 C9.39500185,0 5.08884942e-16,10.0306825 0,20.7238785 C1.76406013e-16,24.4477181 1.24754442,29.6194774 4.04301635,34.7712635 Z" id="Oval-39" fill="#A500E6" sketch:type="MSShapeGroup"></path>
            </g>
        </g>
    </g>
</svg>