<?xml version="1.0" encoding="UTF-8" standalone="no"?>
<svg width="14px" height="14px" viewBox="0 0 14 14" version="1.1" xmlns="http://www.w3.org/2000/svg" xmlns:xlink="http://www.w3.org/1999/xlink">
    <!-- Generator: Sketch 3.7.2 (28276) - http://www.bohemiancoding.com/sketch -->
    <title>Common-Button-Request-Close</title>
    <desc>Created with Sketch.</desc>
    <defs></defs>
    <g id="Mobile" stroke="none" stroke-width="1" fill="none" fill-rule="evenodd">
        <g id="00-signup-new" transform="translate(-280.000000, -27.000000)" fill="#FFFFFF">
            <g id="Bitmap">
                <g id="Common-Button-Request-Close" transform="translate(274.000000, 21.000000)">
                    <path d="M13.3279221,12.1279221 L13.3279221,4.32681427 C13.3279221,3.99634118 13.0592929,3.72792206 12.7279221,3.72792206 C12.4062424,3.72792206 12.1279221,3.99605524 12.1279221,4.32681427 L12.1279221,12.1279221 L4.32681427,12.1279221 C3.99634118,12.1279221 3.72792206,12.3965512 3.72792206,12.7279221 C3.72792206,13.0496017 3.99605524,13.3279221 4.32681427,13.3279221 L12.1279221,13.3279221 L12.1279221,21.1290298 C12.1279221,21.4595029 12.3965512,21.7279221 12.7279221,21.7279221 C13.0496017,21.7279221 13.3279221,21.4597889 13.3279221,21.1290298 L13.3279221,13.3279221 L21.1290298,13.3279221 C21.4595029,13.3279221 21.7279221,13.0592929 21.7279221,12.7279221 C21.7279221,12.4062424 21.4597889,12.1279221 21.1290298,12.1279221 L13.3279221,12.1279221 Z" id="Rectangle-3-Copy-3" transform="translate(12.727922, 12.727922) rotate(-45.000000) translate(-12.727922, -12.727922) "></path>
                </g>
            </g>
        </g>
    </g>
</svg>