<?xml version="1.0" encoding="UTF-8" standalone="no"?>
<svg width="18px" height="18px" viewBox="0 0 18 18" version="1.1" xmlns="http://www.w3.org/2000/svg" xmlns:xlink="http://www.w3.org/1999/xlink">
    <!-- Generator: Sketch 3.7.2 (28276) - http://www.bohemiancoding.com/sketch -->
    <title>modal_close</title>
    <desc>Created with Sketch.</desc>
    <defs></defs>
    <g id="MessageUs" stroke="none" stroke-width="1" fill="none" fill-rule="evenodd">
        <g id="09-Modal1" transform="translate(-1127.000000, -214.000000)" fill="#22282D">
            <g id="modal_close" transform="translate(1119.000000, 206.000000)">
                <path d="M17.4288212,15.8595904 L17.4288212,5.65814174 C17.4288212,5.22598462 17.0775369,4.874975 16.6442058,4.874975 C16.2078536,4.874975 15.8595904,5.2256107 15.8595904,5.65814174 L15.8595904,15.8595904 L5.65814174,15.8595904 C5.22598462,15.8595904 4.874975,16.2108747 4.874975,16.6442058 C4.874975,17.080558 5.2256107,17.4288212 5.65814174,17.4288212 L15.8595904,17.4288212 L15.8595904,27.6302698 C15.8595904,28.0624269 16.2108747,28.4134365 16.6442058,28.4134365 C17.080558,28.4134365 17.4288212,28.0628008 17.4288212,27.6302698 L17.4288212,17.4288212 L27.6302698,17.4288212 C28.0624269,17.4288212 28.4134365,17.0775369 28.4134365,16.6442058 C28.4134365,16.2078536 28.0628008,15.8595904 27.6302698,15.8595904 L17.4288212,15.8595904 Z" id="Rectangle-3-Copy-3" transform="translate(16.644206, 16.644206) rotate(-45.000000) translate(-16.644206, -16.644206) "></path>
            </g>
        </g>
    </g>
</svg>