<?xml version="1.0" standalone="no"?>
<!DOCTYPE svg PUBLIC "-//W3C//DTD SVG 1.1//EN" "http://www.w3.org/Graphics/SVG/1.1/DTD/svg11.dtd">
<svg xmlns="http://www.w3.org/2000/svg">
<metadata>Copyright (C) 2016 by original authors @ fontello.com</metadata>
<defs>
<font id="messageus" horiz-adv-x="1000" >
<font-face font-family="messageus" font-weight="400" font-stretch="normal" units-per-em="1000" ascent="850" descent="-150" />
<missing-glyph horiz-adv-x="1000" />
<glyph glyph-name="analytics" unicode="&#xe800;" d="M867 583c-9 0-18 1-26 3l-83-249c44-22 75-67 75-120 0-74-59-134-133-134-74 0-133 60-133 134 0 22 6 43 16 62l-118 82c-24-27-59-44-98-44-16 0-30 3-44 8l-116-231c36-24 60-64 60-111 0-73-60-133-134-133-73 0-133 60-133 133 0 74 60 134 133 134 16 0 31-3 44-8l116 230c-36 24-60 65-60 111 0 74 60 133 134 133 73 0 133-59 133-133 0-22-6-43-16-62l118-82c24 27 59 44 98 44 9 0 18-1 26-3l83 250c-44 21-76 67-76 120 0 73 60 133 134 133 73 0 133-60 133-133 0-74-60-134-133-134z m-734-500c-55 0-100-44-100-100 0-55 45-100 100-100s100 45 100 100c0 56-44 100-100 100z m234 467c-55 0-100-45-100-100 0-55 45-100 100-100s100 45 100 100c0 55-45 100-100 100z m233-333c0-55 45-100 100-100 55 0 100 45 100 100 0 55-45 100-100 100-55 0-100-45-100-100z m267 600c-55 0-100-45-100-100 0-55 45-100 100-100s100 45 100 100c0 55-45 100-100 100z" horiz-adv-x="1000" />
<glyph glyph-name="angellist" unicode="&#xe801;" d="M0 140c0 41 9 73 27 96 15 21 39 35 71 44-10 27-15 46-15 58 0 22 11 45 34 69 23 23 46 34 66 34 11 0 24-3 39-9-31 90-53 158-67 204-15 53-23 91-23 113 0 31 8 56 23 74 16 18 38 27 65 27 46 0 101-96 166-289l17-48c4 10 7 20 11 32 64 191 122 286 174 286 25 0 46-8 60-26 16-18 23-41 23-69 0-18-7-55-23-110-13-48-34-114-63-197 36-9 63-26 79-52 17-29 26-72 26-131 0-116-34-211-102-285-70-74-158-111-264-111-43 0-83 8-123 23-38 14-72 36-103 65-32 32-57 64-73 97-17 36-25 71-25 105l0 0z m63 5c0-16 4-35 13-58 8-21 21-43 38-65 26-35 57-62 93-80 37-18 78-27 124-27 83 0 153 31 209 95 56 63 84 142 84 238 0 30-2 53-6 70-3 14-9 25-18 33-17 15-51 28-102 39-51 12-105 18-162 18-14 0-23-2-27-6-4-2-7-8-7-20 0-26 15-45 45-56 32-14 85-21 159-21l27 0c10 0 17-4 22-11 5-5 9-15 10-30-10-11-28-21-53-31-23-8-40-17-51-25-25-19-46-42-61-68-15-25-22-49-22-72 0-14 3-31 9-50 7-22 11-36 11-43l0-5-4-15c-28 2-49 15-62 40-11 21-17 48-18 81-2-1-6-1-12-1l-10 0c1-4 1-8 1-12 0-20-8-36-22-50-15-14-32-21-52-21-30 0-61 15-92 44-31 30-46 60-46 89 0 5 1 10 3 15 0 5 6 12 15 22 16-20 27-34 33-42 27-39 51-58 73-58 6 0 11 2 17 6 3 4 5 7 5 10 0 5-3 14-11 28-5 10-17 27-36 52-18 23-32 40-43 49-10 9-17 14-21 14-13 0-24-8-36-22-12-14-17-32-17-54l0 0z m86 187c0-8 5-23 16-44 9-17 23-40 43-66 20-27 38-47 54-61 15-13 27-20 35-20 4 0 9 3 13 7 5 5 7 11 7 16 0 8-6 27-17 57-14 33-29 63-45 90-14 23-26 39-37 48-11 10-20 15-30 15-7 0-15-5-24-15-10-10-15-19-15-27l0 0z m44 424c0-22 7-57 23-105 14-46 35-108 63-186 7 4 16 6 27 6 1 0 3-1 7-1 3 0 7 0 10 0 2 0 11-1 25-2l-67 196c-18 52-32 86-42 102-8 13-17 20-25 20-6 0-11-2-15-8-4-5-6-13-6-22l0 0z m160-500c5-15 11-31 18-49 13 15 26 27 38 37-3 1-8 2-14 3-6 1-11 1-14 2-13 3-23 5-28 7l0 0z m101 200l64-12c29 81 51 146 67 195 16 53 24 85 24 94 0 11-2 19-7 25-3 4-7 7-14 7-9 0-19-9-30-27-12-19-26-52-42-99l-62-183z" horiz-adv-x="690" />
<glyph glyph-name="arrow" unicode="&#xe802;" d="M808-12c-7 0-14 3-19 8l-781 808c-11 11-11 28 0 38 11 11 28 11 38 0l762-788 762 788c10 10 27 11 38 0 11-10 11-27 1-38l-781-808c-6-5-13-8-20-8z m0-54c-7 0-14 3-19 8l-781 809c-11 10-11 28 0 38 11 10 28 10 38-1l762-788 762 788c10 11 27 11 38 1 11-11 11-28 1-39l-781-808c-6-5-13-8-20-8z m0-30c-7 0-14 3-19 8l-781 808c-11 11-11 28 0 38 11 11 28 10 38 0l762-789 762 789c10 10 27 11 38 0 11-10 11-27 1-38l-781-808c-6-5-13-8-20-8z m0-54c-7 0-14 3-19 8l-781 808c-11 11-11 28 0 39 11 10 28 10 38-1l762-788 762 788c10 10 27 11 38 0 11-10 11-27 1-38l-781-808c-6-5-13-8-20-8z" horiz-adv-x="1616" />
<glyph glyph-name="attachment" unicode="&#xe803;" d="M208-150c-53 0-106 20-146 61-83 81-82 209 0 291l571 566c54 53 126 82 204 82 78 0 150-29 204-82 111-110 111-275 0-385l-411-407c-8-7-20-7-27 0-8 8-8 20 0 27l411 407c95 94 95 237 0 331-96 95-258 95-354 0l-571-565c-67-67-68-172-1-239 68-66 173-66 241 1l552 547c30 30 30 76 0 105-29 29-77 29-107 0l-399-395c-8-8-20-8-27 0-8 7-8 19 0 26l400 396c43 43 116 43 160 0 21-21 33-50 33-79 0-30-12-58-33-80l-552-546c-42-41-95-62-148-62z" horiz-adv-x="1124" />
<glyph glyph-name="away" unicode="&#xe804;" d="M893 574h133c10 0 18-7 18-17 0-10-8-17-18-17h-175c-7 0-14 4-16 10-3 7-2 14 3 19l146 143h-133c-10 0-18 8-18 17 0 10 8 18 18 18h175c7 0 14-5 16-11 3-6 1-14-4-19l-145-143z m7-587c8-3 13-11 11-20-1-8-8-14-16-14h-270c-2-26-10-55-32-77-17-17-41-26-70-26 0 0-1 0-1 0-61 1-98 38-103 103h-270c-8 0-15 6-17 14-2 8 3 16 10 20 48 19 84 36 84 70l-7 180c0 118 69 224 176 273 6 64 61 114 127 114s120-50 126-114c108-49 176-155 176-272l-7-182c0-33 36-50 83-69z m-378-103c20 1 36 5 47 17 14 13 19 35 21 52h-136c5-44 27-68 68-69z m261 173l6 181c0 107-64 203-164 245-7 2-11 9-11 15 0 51-41 92-92 92s-92-41-92-92c0-6-5-13-11-15-100-42-165-138-165-245l7-180c0-32-17-54-39-70h600c-23 16-39 38-39 69z m-266 672c0-9-8-17-17-17h-88c-7 0-13 4-16 10s-2 13 3 18l64 76h-51c-10 0-17 7-17 17 0 9 7 17 17 17h88c7 0 13-4 16-10 2-6 1-13-3-18l-64-75h51c9 0 17-8 17-18z m-351-241c0-10-7-17-17-17h-132c-7 0-13 4-16 10-2 6-1 14 4 19l104 109h-92c-9 0-17 7-17 17 0 9 8 17 17 17h132c7 0 13-4 16-10s1-14-3-19l-104-109h91c10 0 17-8 17-17z" horiz-adv-x="1043" />
<glyph glyph-name="cart" unicode="&#xe805;" d="M1070 759h-146l-162-673c0 0 0 0 0 0 0-2-1-5-2-7l-14-56c31-15 52-46 52-82 0-50-41-91-91-91s-90 41-90 91c0 20 7 39 18 54h-345c11-15 18-34 18-54 0-50-40-91-90-91s-91 41-91 91c0 50 41 91 91 91h493l9 36h-565c-8 0-14 5-17 13l-137 436c-2 6-1 12 3 17 3 4 8 7 14 7h81l-97 229c-4 9 0 20 8 24l115 54c4 2 9 3 14 1 4-2 8-5 10-10l135-298h115v127c0 10 8 18 18 18h215l37 36c3 3 8 5 13 5 5-1 10-3 13-7l141-171 57 233c1 8 9 13 17 13h160c10 0 18-8 18-18 0-10-8-18-18-18z m-852-764c-30 0-55-24-55-54s25-55 55-55c30 0 54 25 54 55s-24 54-54 54z m489 0c-30 0-54-24-54-54s24-55 54-55c30 0 55 25 55 55s-25 54-55 54z m-583 812l-82-39 97-227h105l-120 266z m311-157v-109h47l113 109h-160z m245 32l-145-141h261l-116 141z m-191-177c0 0 0 0 0 0h-216c0 0 0 0 0 0h-230l126-400h560l97 400h-337z" horiz-adv-x="1088" />
<glyph glyph-name="check" unicode="&#xe806;" d="M396 18l832 832 167-168-831-832-168 168z m119-168l-515 515 168 168 515-515-168-168z" horiz-adv-x="1395" />
<glyph glyph-name="checkbox-tick" unicode="&#xe807;" d="M1341 699l-728-819c-17-20-42-30-68-30-19 0-40 6-56 20l-455 364c-39 31-45 88-14 127 31 40 89 46 128 15l387-310 670 754c33 37 91 40 128 7 38-33 41-91 8-128l0 0z" horiz-adv-x="1364" />
<glyph glyph-name="clock" unicode="&#xe808;" d="M500-150c-276 0-500 224-500 500s224 500 500 500 500-224 500-500-224-500-500-500z m0 967c-257 0-467-210-467-467s210-467 467-467 467 210 467 467-210 467-467 467z m231-715c-4 0-8 2-11 5l-248 231c-3 3-5 7-5 12v231c0 9 7 17 16 17s17-8 17-17v-224l243-226c6-6 7-17 0-23-3-4-7-6-12-6z" horiz-adv-x="1000" />
<glyph glyph-name="customers" unicode="&#xe809;" d="M881 231h-190c-14 0-24-11-24-24v-190c0-13 10-24 24-24h190c13 0 24 11 24 24v190c0 13-11 24-24 24z m-24-190h-143v142h143v-142z m-333 309v191c0 13-11 23-24 23h-190c-14 0-24-10-24-23v-191c0-13 10-24 24-24h190c13 0 24 11 24 24z m-48 24h-143v143h143v-143z m500 476h-762c-13 0-23-11-23-24v-452h-167c-13 0-24-11-24-24v-381c0-94 78-119 119-119h773c60 0 108 47 108 106v870c0 13-11 24-24 24z m-24-48v-142h-714v142h714z m-833-904c-12 0-71 4-71 71v357h143v-367c-10-36-40-61-72-61z m773 0h-680c12 14 21 32 25 52 1 2 1 4 1 6v656h714v-656c0-32-27-58-60-58z m-35 643h-238v-48h238v48z m-524-381h238v47h-238v-47z m524 285h-238v-47h238v47z m-524-381h238v48h-238v-48z" horiz-adv-x="1000" />
<glyph glyph-name="facebook" unicode="&#xe80a;" d="M57 850c-30 0-57-27-57-57l0-886c0-30 27-57 57-57l886 0c30 0 57 27 57 57l0 886c0 30-27 57-57 57l-886 0z m653-562l0-366-139 0 0 366-98 0 0 133 98 0 0 114c0 88 58 171 190 171 54 0 92-6 92-6l-3-123-84 0c-48 0-56-21-56-59l0-6 0-91 144 0-6-133-138 0z" horiz-adv-x="1000" />
<glyph glyph-name="help" unicode="&#xe80b;" d="M546-31c-63 0-125 9-184 26l-299-143c-3-2-6-2-8-2-5 0-10 2-13 5-6 6-7 14-4 21l116 227c-99 83-154 191-154 307 0 243 245 440 546 440s545-197 545-440c0-243-245-441-545-441z m0 845c-281 0-510-181-510-404 0-109 54-211 152-288 7-5 9-14 5-22l-98-193 258 123c4 2 9 2 13 1 57-17 118-26 180-26 280 0 509 182 509 405 0 223-229 404-509 404z m36-463v-54c0-10-8-18-18-18-10 0-18 8-18 18v71c0 10 8 18 18 18 70 0 124 46 124 107 0 64-54 116-120 116-64 0-119-55-119-120 0-10-8-18-18-18-10 0-18 8-18 18 0 86 70 156 155 156 86 0 156-68 156-152 0-75-61-134-142-142z m-18-108c20 0 36-16 36-36 0-20-16-36-36-36-20 0-37 16-37 36 0 20 17 36 37 36z" horiz-adv-x="1091" />
<glyph glyph-name="invite" unicode="&#xe80c;" d="M1000 832c0-2 0-3-1-5l-417-967c-2-6-8-10-14-10 0 0-1 0-1 0-6 0-12 3-15 9l-190 353-353 190c-6 3-9 9-9 16s4 12 10 14l967 417c2 1 3 0 5 1 1 0 2 0 3 0 4 0 8-1 11-4s4-7 4-11c0-1 0-2 0-3z m-435-927l369 856-539-540 170-316z m-194 340l540 539-856-369 316-170z" horiz-adv-x="1000" />
<glyph glyph-name="linkedin" unicode="&#xe80d;" d="M0 724c0 34 17 67 38 89 22 22 51 37 88 37l748 0c70 0 126-56 126-126l0-748c0-37-15-66-37-89-22-21-55-37-89-37l-748 0c-70 0-126 56-126 126l0 748z m135-99c0-50 39-89 87-89 50 0 90 39 90 89 0 48-40 90-90 90-48 0-87-42-87-90l0 0z m242-617c0-9 10-20 18-20l131 0c10 0 21 9 21 20l0 249c0 59 16 102 82 102 53 0 66-25 66-72l0-279c0-9 8-20 18-20l132 0c9 0 18 9 18 20l0 309c0 123-75 179-192 179-48 0-94-9-130-45 0 13 0 34-18 34l-128 0c-8 0-18-9-18-19l0-458z m-239 0c0-9 9-20 18-20l131 0c10 0 19 9 19 20l0 458c0 12-7 19-19 19l-131 0c-7 0-18-9-18-19l0-458z" horiz-adv-x="1000" />
<glyph glyph-name="map" unicode="&#xe80e;" d="M401-147c-3-2-7-3-10-3s-7 1-10 3c-16 11-381 276-381 614 0 207 179 383 391 383s390-176 390-383c0-338-365-603-380-614z m-10 964c-194 0-357-161-357-350 0-291 298-534 357-579 58 45 356 288 356 579 0 189-163 350-356 350z m0-584c-131 0-238 105-238 234 0 128 107 233 238 233s237-105 237-233c0-129-106-234-237-234z m0 434c-113 0-204-90-204-200 0-111 91-200 204-200s203 89 203 200c0 110-91 200-203 200z" horiz-adv-x="781" />
<glyph glyph-name="messages" unicode="&#xe80f;" d="M692 808h-379c-150 0-267-120-267-266v-221c0-150 121-267 267-267v-146c0-8 12-16 20-8l30 29c79 79 187 125 304 125h29c150 0 267 121 267 267v221c-5 146-125 266-271 266l0 0z" horiz-adv-x="1000" />
<glyph glyph-name="mobile" unicode="&#xe810;" d="M470-150h-357c-62 0-113 52-113 117v766c0 65 51 117 113 117h357c63 0 113-52 113-117v-766c0-65-50-117-113-117z m81 883c0 46-36 84-81 84h-357c-44 0-81-38-81-84v-50h519v50z m0-83h-519v-600h519v600z m0-633h-519v-50c0-46 37-84 82-84h356c45 0 81 38 81 84v50z m-259-117c-27 0-49 22-49 50 0 28 22 50 49 50s48-22 48-50c0-28-21-50-48-50z m0 67c-9 0-16-8-16-17s7-17 16-17 16 8 16 17-7 17-16 17z m-114 783h227c9 0 16-7 16-17 0-9-7-16-16-16h-227c-9 0-16 7-16 16 0 10 7 17 16 17z" horiz-adv-x="583" />
<glyph glyph-name="profile" unicode="&#xe811;" d="M953 103l-32-19c2-8 2-17 2-25 0-8-1-17-2-26l31-18c4-2 7-6 8-10 1-4 0-9-2-13l-43-73c-4-7-14-10-22-6l-33 19c-13-10-29-19-47-26v-39c0-9-7-17-16-17h-85c-9 0-17 8-17 17v39c-14 6-29 15-42 25l-29-17c-4-3-8-3-13-2-4 1-8 4-10 8l-42 72c-5 9-2 19 6 23l31 18c-1 9-2 18-2 26 0 9 1 17 2 26l-32 18c-8 4-10 14-6 22l42 73c2 4 6 7 10 8 4 1 9 0 13-2l30-18c13 11 28 19 42 25v34c0 9 8 17 17 17h85c9 0 16-8 16-17v-33c18-7 34-16 47-26l34 19c8 4 18 1 23-7l42-73c2-3 3-8 1-12-1-5-3-8-7-10z m-57 64l-30-16c-6-3-14-2-20 2-13 13-33 24-55 31-6 2-11 9-11 16v28h-51v-28c0-7-5-14-12-16-18-6-35-16-50-30-6-6-14-6-20-3l-27 16-25-44 28-16c7-3 10-11 8-18-2-10-3-20-3-30 0-10 1-20 3-30 2-7-1-15-8-19l-27-15 25-44 25 15c7 4 15 3 21-2 15-14 32-25 50-30 7-2 12-9 12-16v-35h51v35c0 7 5 13 12 16 21 6 41 18 54 30 6 5 14 6 20 2l29-16 26 45-27 15c-7 4-10 11-8 19 2 11 4 21 4 30 0 10-2 20-4 30-2 7 2 15 8 18l27 16-25 44z m-137-188c-44 0-80 36-80 80s36 80 80 80c44 0 80-36 80-80s-36-80-80-80z m0 126c-26 0-47-21-47-46s21-47 47-47c25 0 46 21 46 47s-21 46-46 46z m-234 231c22-9 43-17 65-24l-10-32c-23 8-44 16-67 25-11 4-22 8-34 13-6 2-10 8-10 15v100c0 7 3 12 9 15 2 1 49 28 49 115 0 9 8 17 17 17 2 0 8 9 8 27 0 17-6 26-8 26-9 0-17 8-17 17 0 6 3 11 7 22 8 21 24 61 15 97-7 28-58 48-121 48h0c-63 0-114-20-121-48-2-8-11-14-19-12-11 2-26 3-33-4-14-15 0-66 6-85 3-12 5-16 5-21 0-9-8-16-17-16-3 0-8-10-8-26 0-16 5-25 8-25 9 0 17-8 17-17 0-90 61-132 61-132 5-4 8-9 8-14v-84c0-6-5-13-11-15-31-12-65-23-97-33-76-25-163-54-173-84-15-44-19-118-20-151h418v-33h-435c-5 0-9 1-12 5-3 3-5 7-5 12 0 4 1 115 22 177 15 47 98 74 195 105 28 9 57 19 84 29v64c-18 15-64 61-69 142-15 8-25 28-25 54 0 14 3 27 8 37 4 7 9 12 14 16 0 0 0 0 0 0-9 31-26 88 2 118 11 12 28 17 49 16 23 42 92 58 148 58h0c63 0 140-19 153-73 12-46-6-92-16-117 13-10 21-29 21-53 0-14-3-28-8-38-5-8-10-14-17-18-4-77-41-114-59-127v-79c8-3 16-6 23-9z" horiz-adv-x="961" />
<glyph glyph-name="scroll" unicode="&#xe812;" d="M333 414l167-154 0 0 167 154" horiz-adv-x="1000" />
<glyph glyph-name="search" unicode="&#xe813;" d="M1000-66l-292 293c47 65 76 145 76 231 0 216-176 392-392 392-216 0-392-176-392-392s176-392 392-392c86 0 166 29 231 77l293-293 84 84z m-954 524c0 191 155 346 346 346 191 0 346-155 346-346 0-191-155-346-346-346-191 0-346 155-346 346z m620-279c2 2 4 3 5 5 3 2 5 5 8 7l256-257-19-19-257 256c2 3 5 6 7 8z" horiz-adv-x="1000" />
<glyph glyph-name="settings" unicode="&#xe814;" d="M983 283h-121c-8-65-21-90-36-116l87-87c7-7 7-18 0-24l-119-119c-6-6-17-6-23 0l-88 88c-19-10-42-18-62-25-8-3-15-5-21-8v-125c0-10-7-17-17-17h-166c-9 0-17 7-17 17v125c-6 3-13 5-21 8-19 7-43 15-62 25l-87-88c-7-6-18-6-24 0l-119 119c-3 3-5 7-5 12s2 8 5 11l88 88c-18 34-29 83-36 116h-122c-10 0-17 8-17 17v133c0 10 7 17 17 17h125c3 6 5 13 8 21 7 20 15 43 25 62l-88 88c-6 6-6 17 0 23l119 119c6 7 17 7 24 0l87-88c19 10 43 18 62 25 8 3 15 6 21 8v125c0 10 8 17 17 17h166c10 0 17-7 17-17v-125c6-3 13-5 21-8 20-7 43-15 62-25l88 88c6 7 17 7 23 0l119-119c3-3 5-7 5-12s-2-8-5-11l-88-88c7-16 13-37 19-56 2-8 6-20 8-27h131c10 0 17-7 17-17v-133c0-9-7-17-17-17z m-16 134h-115c-2-2-5-2-7-2-17 0-22 15-33 53-6 21-14 47-21 59-4 7-3 15 2 21l85 84-96 96-84-85c-6-5-14-7-21-2-18 10-45 20-67 28-15 5-27 9-35 13-5 3-8 9-8 15v120h-134v-120c0-6-3-12-8-15-8-4-20-8-35-13-22-8-49-18-67-28-7-4-15-3-21 2l-84 85-96-96 85-84c6-6 7-14 3-21-11-18-21-45-29-67-5-15-9-27-13-35-3-5-9-8-15-8h-120v-100h120c8 0 15-6 17-14 10-58 24-105 40-130 4-7 3-15-3-21l-85-84 96-96 84 85c6 6 14 7 21 3 18-11 45-21 67-29 15-5 27-9 35-13 5-3 8-9 8-15v-120h134v120c0 6 3 12 8 15 8 4 20 8 35 14 22 7 49 17 67 28 7 4 15 3 21-3l84-85 96 96-85 84c-5 6-6 14-2 21 18 31 31 52 39 129 1 8 8 15 17 15h120v100z m-467-267c-110 0-200 90-200 200 0 110 90 200 200 200s200-90 200-200c0-110-90-200-200-200z m0 367c-92 0-167-75-167-167s75-167 167-167 167 75 167 167-75 167-167 167z" horiz-adv-x="1000" />
<glyph glyph-name="sign-out" unicode="&#xe815;" d="M446-150c-246 0-446 202-446 451 0 182 107 345 272 416 13 5 28-1 34-14 5-13-1-29-14-34-146-63-241-207-241-368 0-220 177-399 395-399s394 179 394 399c0 162-95 306-243 369-13 5-19 20-14 33s21 20 34 14c167-70 274-233 274-416 0-249-200-451-445-451z m0 523c-15 0-26 12-26 26v425c0 14 11 26 26 26s25-12 25-26v-425c0-14-11-26-25-26z" horiz-adv-x="891" />
<glyph glyph-name="smiley" unicode="&#xe816;" d="M500-150c-276 0-500 224-500 500s224 500 500 500 500-224 500-500-224-500-500-500z m0 967c-257 0-467-210-467-467s210-467 467-467 467 210 467 467-210 467-467 467z m0-841c-181 0-333 156-333 341 0 9 7 16 16 16s17-7 17-16c0-167 137-307 300-307s300 140 300 307c0 9 8 16 17 16s16-7 16-16c0-185-152-341-333-341z m283 441c-9 0-16 7-16 16 0 39-42 69-78 69-38 0-72-32-72-69 0-9-8-16-17-16-9 0-17 7-17 16 0 54 50 102 106 102 53 0 111-44 111-102 0-9-7-16-17-16z m-383 0c-9 0-17 7-17 16 0 37-33 69-72 69-36 0-78-30-78-69 0-9-7-16-16-16s-17 7-17 16c0 58 59 102 111 102 56 0 106-48 106-102 0-9-8-16-17-16z" horiz-adv-x="1000" />
<glyph glyph-name="teamchat" unicode="&#xe817;" d="M994 350c139 0 256 111 256 250-6 139-117 250-256 250-138 0-255-111-255-250 0-139 111-250 255-250z m0 444c112 0 200-88 200-194 0-106-88-194-200-194-111 0-200 88-200 194 0 106 89 194 200 194z m273-455c0 0 0 0 0 0 0 0 0 0 0 0l0 0c-17 11-28 22-45 33-44-66-133-111-228-111-105 0-200 56-238 133-17-5-28-16-45-27l0 0c0 0 0 0-5 0 0 0 0 0 0 0-95-67-150-167-150-284 0-200 188-227 416-227s417 27 417 227c0 95-45 189-122 256z m-295-433c-261 0-361 44-361 172 0 94 50 178 128 239 61-73 155-111 255-111 89 0 178 33 239 94 67-56 106-133 106-217-6-133-106-177-367-177z m-644 483c83 0 150 67 150 144s-67 150-150 150-150-66-150-144 66-150 150-150l0 0z m0-56l0 0c-111 0-206 89-206 200s95 206 206 206 205-89 205-200-89-206-205-206l0 0z m200-39m-389 0l0 0c-56-38-83-94-83-161 0-89 66-116 261-116 77 0 127 5 166 16 6 0 17 0 23 0l-6-55c-56-11-117-17-183-17-178 0-317 22-317 172 0 84 39 156 106 206l5 5 0 0c11 12 28 23 45 28 27-61 94-100 177-100 73 0 173 84 178 84l33-39-16-23c-50-50-122-77-195-77-50 0-94 11-133 33-28 11-44 28-61 44m1478 95c83 0 150 67 150 144s-67 150-150 150c-84 0-150-66-150-144s66-150 150-150l0 0z m0-56c-111 0-206 89-206 200s89 206 206 206c111 0 205-89 205-200s-94-206-205-206l0 0 0 0z m-200-39m389 0c-17-16-39-33-62-44-38-22-83-33-133-33-78 0-150 27-194 77l-17 23 33 39c0 0 100-84 178-84 83 0 150 39 183 100 17-5 28-16 45-28l0 0 5-5c62-50 106-122 106-206 0-155-139-172-317-172-66 0-133 6-183 17l-6 55c6 0 17 0 23 0 39-11 94-16 166-16 195 0 261 27 261 116-5 67-33 123-88 161l0 0" horiz-adv-x="1944" />
<glyph glyph-name="twitter" unicode="&#xe818;" d="M1192 735c-45-20-90-34-139-40 49 29 88 79 105 136-46-28-98-49-154-60-45 48-108 79-180 79-135 0-243-110-243-245 0-19 3-39 6-56-203 9-384 109-505 256-20-37-32-79-32-124 0-84 43-159 108-204-40 2-76 13-110 30l0-3c0-118 84-216 197-238-20-6-43-9-65-9-15 0-32 2-46 5 31-97 119-170 228-171-84-65-188-106-303-106-20 0-40 3-59 5 109-68 238-110 376-110 450 0 695 372 695 695 0 11 0 22-1 33 48 36 88 77 122 127l0 0z" horiz-adv-x="1190" />
</font>
</defs>
</svg>
