<?xml version="1.0" encoding="UTF-8" standalone="no"?>
<svg width="73px" height="50px" viewBox="0 0 73 50" version="1.1" xmlns="http://www.w3.org/2000/svg" xmlns:xlink="http://www.w3.org/1999/xlink" xmlns:sketch="http://www.bohemiancoding.com/sketch/ns">
    <!-- Generator: Sketch 3.5.2 (25235) - http://www.bohemiancoding.com/sketch -->
    <title>Icons/Business-payment</title>
    <desc>Created with Sketch.</desc>
    <defs></defs>
    <g id="MessageUs" stroke="none" stroke-width="1" fill="none" fill-rule="evenodd" sketch:type="MSPage">
        <g id="02-Businesses-home" sketch:type="MSArtboardGroup" transform="translate(-266.000000, -2918.000000)">
            <g id="payments" sketch:type="MSLayerGroup" transform="translate(266.000000, 2918.000000)">
                <g id="Icons/Business-payment" transform="translate(0.000000, 1.000000)" sketch:type="MSShapeGroup">
                    <path d="M67.8246739,42 L16.2586739,42 C14.4816739,42 13.0416739,40.56 13.0416739,38.783 L13.0416739,3.217 C13.0416739,1.44 14.4816739,0 16.2586739,0 L67.8246739,0 C69.6016739,0 71.0416739,1.44 71.0416739,3.217 L71.0416739,38.783 C71.0416739,40.56 69.6016739,42 67.8246739,42 L67.8246739,42 Z" id="Stroke-165" stroke="#49444C" stroke-width="2"></path>
                    <path d="M18.0416739,8 L27.0416739,8" id="Stroke-214" stroke="#49444C" stroke-width="2" stroke-linecap="round"></path>
                    <path d="M31.0416739,8 L40.0416739,8" id="Stroke-216" stroke="#49444C" stroke-width="2" stroke-linecap="round"></path>
                    <path d="M18.0416739,13 L19.0416739,13" id="Stroke-218" stroke="#49444C" stroke-width="2" stroke-linecap="round"></path>
                    <path d="M23.0416739,13 L25.0416739,13" id="Stroke-220" stroke="#49444C" stroke-width="2" stroke-linecap="round"></path>
                    <path d="M29.0416739,13 L30.0416739,13" id="Stroke-222" stroke="#49444C" stroke-width="2" stroke-linecap="round"></path>
                    <path d="M34.0416739,13 L36.0416739,13" id="Stroke-224" stroke="#49444C" stroke-width="2" stroke-linecap="round"></path>
                    <path id="Stroke-226" stroke="#49444C" stroke-width="2" stroke-linecap="round"></path>
                    <path d="M50.0416739,7 L66.0416739,7 L66.0416739,17 L50.0416739,17 L50.0416739,7 Z" id="Stroke-228" stroke="#49444C" stroke-width="2" stroke-linecap="round"></path>
                    <path d="M18.0416739,29 L27.0416739,29 L27.0416739,35 L18.0416739,35 L18.0416739,29 Z" id="Stroke-230" stroke="#49444C" stroke-width="2"></path>
                    <path d="M31.0416739,29 L40.0416739,29 L40.0416739,35 L31.0416739,35 L31.0416739,29 Z" id="Stroke-232" stroke="#49444C" stroke-width="2"></path>
                    <path d="M44.0416739,29 L53.0416739,29 L53.0416739,35 L44.0416739,35 L44.0416739,29 Z" id="Stroke-234" stroke="#49444C" stroke-width="2"></path>
                    <path d="M57.0416739,29 L66.0416739,29 L66.0416739,35 L57.0416739,35 L57.0416739,29 Z" id="Stroke-236" stroke="#49444C" stroke-width="2"></path>
                    <g id="Group-2" transform="translate(16.500000, 32.000000) scale(-1, -1) translate(-16.500000, -32.000000) translate(0.000000, 16.000000)" stroke="#A500E6">
                        <circle id="Oval-43" stroke-width="2" fill="#FFFFFF" cx="16" cy="16" r="16"></circle>
                        <path d="M22,12 L7,12 L7,20 L22,20 L22,22.9991283 C22,23.5553691 22.352791,23.7307887 22.7879808,23.3986998 L31.6957116,16.6013002 C32.1348812,16.2661743 32.1309014,15.7307887 31.6957116,15.3986998 L22.7879808,8.60130024 C22.3488112,8.26617432 22,8.4481055 22,9.00087166 L22,12 Z" id="Rectangle-81" fill="#A500E6" transform="translate(19.511799, 15.999725) scale(-1, 1) translate(-19.511799, -15.999725) "></path>
                    </g>
                </g>
            </g>
        </g>
    </g>
</svg>