<?xml version="1.0" encoding="UTF-8" standalone="no"?>
<svg width="105px" height="105px" viewBox="0 0 105 105" version="1.1" xmlns="http://www.w3.org/2000/svg" xmlns:xlink="http://www.w3.org/1999/xlink" xmlns:sketch="http://www.bohemiancoding.com/sketch/ns">
    <!-- Generator: Sketch 3.5.2 (25235) - http://www.bohemiancoding.com/sketch -->
    <title>Icons/third-party</title>
    <desc>Created with Sketch.</desc>
    <defs></defs>
    <g id="MessageUs" stroke="none" stroke-width="1" fill="none" fill-rule="evenodd" sketch:type="MSPage">
        <g id="02-Businesses-home" sketch:type="MSArtboardGroup" transform="translate(-998.000000, -1210.000000)">
            <g id="Icons/third-party" sketch:type="MSLayerGroup" transform="translate(998.000000, 1210.000000)">
                <ellipse id="Oval-75" fill="#24CE83" sketch:type="MSShapeGroup" cx="52.5" cy="52.5" rx="52.5" ry="52.5"></ellipse>
                <g id="Chat-convo" transform="translate(23.000000, 23.000000)" sketch:type="MSShapeGroup">
                    <path d="M24,52 L16.24,53.727 L24,52 Z" id="Path" stroke="#49444C" stroke-width="2" stroke-linecap="round" stroke-linejoin="round"></path>
                    <path d="M41,25.759 C50.389,25.759 58,32.582 58,41 C58,44.102 56.964,46.986 55.188,49.393 C55.422,52.175 56.092,56.092 58,58 C58,58 52.171,57.182 48.224,54.798 C46.031,55.722 43.583,56.241 41,56.241 C31.611,56.241 24,49.418 24,41 C24,32.582 31.611,25.759 41,25.759 L41,25.759 Z" id="Path" stroke="#49444C" stroke-width="2" stroke-linecap="round" stroke-linejoin="round" fill="#A500E6"></path>
                    <path d="M35,41 C35,42.657 33.657,44 32,44 C30.343,44 29,42.657 29,41 C29,39.343 30.343,38 32,38 C33.657,38 35,39.343 35,41 L35,41 Z" id="Path" fill="#FFFFFF"></path>
                    <path d="M44,41 C44,42.657 42.657,44 41,44 C39.343,44 38,42.657 38,41 C38,39.343 39.343,38 41,38 C42.657,38 44,39.343 44,41 L44,41 Z" id="Path" fill="#FFFFFF"></path>
                    <path d="M53,41 C53,42.657 51.657,44 50,44 C48.343,44 47,42.657 47,41 C47,39.343 48.343,38 50,38 C51.657,38 53,39.343 53,41 L53,41 Z" id="Path" fill="#FFFFFF"></path>
                    <path d="M24,41 C24,32.583 31.611,25.759 41,25.759 C48.403,25.759 54.683,30.008 57.016,35.929 C57.654,33.56 58,31.071 58,28.5 C58,12.76 45.24,0 29.5,0 C13.76,0 1,12.76 1,28.5 C1,33.812 2.457,38.78 4.987,43.037 L0,58 L16.24,53.727 C20.202,55.813 24.711,57 29.5,57 C32.235,57 34.877,56.606 37.381,55.887 C29.732,54.399 24,48.303 24,41 L24,41 Z" id="Path" stroke="#49444C" stroke-width="2" stroke-linecap="round" stroke-linejoin="round" fill="#FFFFFF"></path>
                </g>
            </g>
        </g>
    </g>
</svg>