<?xml version="1.0" encoding="iso-8859-1"?>
<!-- Generator: Adobe Illustrator 16.0.0, SVG Export Plug-In . SVG Version: 6.00 Build 0)  -->
<!DOCTYPE svg PUBLIC "-//W3C//DTD SVG 1.1//EN" "http://www.w3.org/Graphics/SVG/1.1/DTD/svg11.dtd">
<svg version="1.1" id="Layer_1" xmlns="http://www.w3.org/2000/svg" xmlns:xlink="http://www.w3.org/1999/xlink" x="0px" y="0px"
	 width="22px" height="22px" viewBox="0 0 22 22" style="enable-background:new 0 0 22 22;" xml:space="preserve">
<path style="fill-rule:evenodd;clip-rule:evenodd;fill:#C0C9D0;" d="M19.067,5.867c-0.196,0-0.386-0.021-0.572-0.058l-1.83,5.489
	c0.983,0.474,1.668,1.472,1.668,2.635c0,1.618-1.316,2.934-2.934,2.934c-1.618,0-2.933-1.316-2.933-2.934
	c0-0.494,0.134-0.952,0.35-1.36l-2.586-1.81c-0.537,0.592-1.304,0.971-2.165,0.971c-0.341,0-0.663-0.07-0.968-0.177l-2.536,5.073
	c0.786,0.527,1.305,1.422,1.305,2.437C5.867,20.684,4.551,22,2.933,22C1.315,22,0,20.684,0,19.066c0-1.617,1.315-2.933,2.933-2.933
	c0.341,0,0.663,0.07,0.968,0.177l2.537-5.073C5.652,10.71,5.133,9.815,5.133,8.8c0-1.617,1.316-2.933,2.933-2.933
	C9.685,5.867,11,7.183,11,8.8c0,0.494-0.134,0.952-0.35,1.36l2.586,1.81C13.773,11.379,14.54,11,15.4,11
	c0.196,0,0.387,0.021,0.572,0.058l1.83-5.489c-0.983-0.474-1.668-1.472-1.668-2.635C16.133,1.316,17.449,0,19.067,0
	C20.684,0,22,1.316,22,2.933C22,4.551,20.684,5.867,19.067,5.867z M2.933,16.867c-1.213,0-2.2,0.987-2.2,2.2
	c0,1.213,0.987,2.2,2.2,2.2s2.2-0.987,2.2-2.2C5.133,17.854,4.146,16.867,2.933,16.867z M8.067,6.6c-1.213,0-2.2,0.987-2.2,2.2
	c0,1.213,0.987,2.2,2.2,2.2s2.2-0.987,2.2-2.2C10.267,7.587,9.28,6.6,8.067,6.6z M13.2,13.933c0,1.213,0.987,2.2,2.2,2.2
	c1.213,0,2.2-0.987,2.2-2.2c0-1.213-0.987-2.2-2.2-2.2C14.187,11.733,13.2,12.72,13.2,13.933z M19.067,0.733
	c-1.213,0-2.2,0.987-2.2,2.2c0,1.213,0.987,2.2,2.2,2.2s2.2-0.987,2.2-2.2C21.267,1.72,20.28,0.733,19.067,0.733z"/>
</svg>
