<?xml version="1.0" encoding="iso-8859-1"?>
<!-- Generator: Adobe Illustrator 16.0.0, SVG Export Plug-In . SVG Version: 6.00 Build 0)  -->
<!DOCTYPE svg PUBLIC "-//W3C//DTD SVG 1.1//EN" "http://www.w3.org/Graphics/SVG/1.1/DTD/svg11.dtd">
<svg version="1.1" id="Layer_1" xmlns="http://www.w3.org/2000/svg" xmlns:xlink="http://www.w3.org/1999/xlink" x="0px" y="0px"
	 width="14.52px" height="13.915px" viewBox="0 0 14.52 13.915" style="enable-background:new 0 0 14.52 13.915;"
	 xml:space="preserve">
<path style="fill-rule:evenodd;clip-rule:evenodd;fill:#5C6B78;" d="M12.424,3.838h1.854c0.134,0,0.242,0.107,0.242,0.24
	c0,0.132-0.108,0.24-0.242,0.24h-2.441c-0.098,0-0.187-0.059-0.224-0.148c-0.037-0.09-0.016-0.193,0.053-0.262l2.024-1.989h-1.853
	c-0.134,0-0.242-0.107-0.242-0.24c0-0.132,0.108-0.24,0.242-0.24h2.441c0.098,0,0.187,0.059,0.224,0.148
	c0.038,0.09,0.016,0.194-0.053,0.262L12.424,3.838z M12.528,12.009c0.107,0.043,0.173,0.158,0.151,0.271
	c-0.022,0.112-0.116,0.196-0.232,0.196H8.698c-0.03,0.36-0.136,0.777-0.441,1.077c-0.246,0.24-0.574,0.362-0.979,0.362
	c-0.007,0-0.014,0-0.021,0C6.41,13.906,5.9,13.382,5.823,12.476h-3.75c-0.116,0-0.215-0.081-0.238-0.194
	c-0.022-0.112,0.039-0.225,0.146-0.268c0.665-0.271,1.165-0.511,1.165-0.978L3.051,8.531c0-1.647,0.956-3.119,2.448-3.798
	C5.581,3.84,6.339,3.14,7.26,3.14S8.938,3.84,9.02,4.732c1.493,0.681,2.448,2.151,2.448,3.789l-0.095,2.523
	C11.374,11.502,11.874,11.743,12.528,12.009z M7.262,13.435c0.281-0.003,0.499-0.07,0.655-0.224
	c0.198-0.194,0.271-0.492,0.297-0.736H6.32C6.387,13.094,6.693,13.429,7.262,13.435z M10.89,11.036l0.095-2.523
	c0-1.486-0.9-2.824-2.292-3.399c-0.09-0.038-0.149-0.125-0.149-0.222c0-0.702-0.576-1.273-1.284-1.273S5.976,4.19,5.976,4.892
	c0,0.097-0.059,0.184-0.149,0.222C4.435,5.688,3.535,7.026,3.535,8.521l0.094,2.506c0,0.44-0.234,0.743-0.546,0.968h8.351
	C11.124,11.772,10.89,11.471,10.89,11.036z M7.196,1.679c0,0.133-0.108,0.24-0.242,0.24H5.734c-0.094,0-0.18-0.054-0.219-0.139
	S5.488,1.596,5.549,1.525L6.435,0.48H5.734c-0.134,0-0.242-0.107-0.242-0.24C5.492,0.107,5.6,0,5.734,0h1.221
	c0.094,0,0.18,0.054,0.219,0.139C7.214,0.223,7.2,0.323,7.14,0.394L6.254,1.439h0.701C7.088,1.439,7.196,1.547,7.196,1.679z
	 M2.314,5.038c0,0.133-0.108,0.24-0.242,0.24H0.242c-0.097,0-0.184-0.058-0.222-0.145C-0.019,5.045,0,4.943,0.066,4.873l1.445-1.514
	H0.242C0.108,3.359,0,3.251,0,3.119c0-0.133,0.108-0.24,0.242-0.24h1.831c0.097,0,0.184,0.057,0.222,0.145s0.02,0.19-0.046,0.26
	L0.804,4.798h1.269C2.207,4.798,2.314,4.906,2.314,5.038z"/>
</svg>
