<?xml version="1.0" encoding="iso-8859-1"?>
<!-- Generator: Adobe Illustrator 16.0.0, SVG Export Plug-In . SVG Version: 6.00 Build 0)  -->
<!DOCTYPE svg PUBLIC "-//W3C//DTD SVG 1.1//EN" "http://www.w3.org/Graphics/SVG/1.1/DTD/svg11.dtd">
<svg version="1.1" id="Layer_1" xmlns="http://www.w3.org/2000/svg" xmlns:xlink="http://www.w3.org/1999/xlink" x="0px" y="0px"
	 width="21px" height="21px" viewBox="0 0 21 21" style="enable-background:new 0 0 21 21;" xml:space="preserve">
<path style="fill-rule:evenodd;clip-rule:evenodd;fill:none;" d="M18.5,13h-4c-0.276,0-0.5,0.224-0.5,0.5v4
	c0,0.276,0.224,0.5,0.5,0.5h4c0.276,0,0.5-0.224,0.5-0.5v-4C19,13.224,18.776,13,18.5,13z M18,17h-3v-3h3V17z"/>
<path style="fill-rule:evenodd;clip-rule:evenodd;fill:none;" d="M11,10.5v-4C11,6.224,10.776,6,10.5,6h-4C6.224,6,6,6.224,6,6.5v4
	C6,10.776,6.224,11,6.5,11h4C10.776,11,11,10.776,11,10.5z M10,10H7V7h3V10z"/>
<path style="fill-rule:evenodd;clip-rule:evenodd;fill:none;" d="M20.5,0h-16C4.224,0,4,0.224,4,0.5V10H0.5
	C0.224,10,0,10.224,0,10.5v8.005C0,20.479,1.635,21,2.5,21h16.238C19.985,21,21,20.004,21,18.779V0.5C21,0.224,20.776,0,20.5,0z
	 M20,1v3H5V1H20z M2.5,20C2.246,19.997,1,19.909,1,18.505V11h3v7.711C3.791,19.461,3.169,20,2.5,20z M18.738,20H4.456
	c0.243-0.313,0.427-0.688,0.53-1.104C4.995,18.856,5,18.815,5,18.775V5h15v13.779C20,19.452,19.434,20,18.738,20z"/>
<path style="fill-rule:evenodd;clip-rule:evenodd;fill:none;" d="M18,6.5h-5v1h5V6.5z"/>
<path style="fill-rule:evenodd;clip-rule:evenodd;fill:none;" d="M7,14.5h5v-1H7V14.5z"/>
<path style="fill-rule:evenodd;clip-rule:evenodd;fill:none;" d="M18,8.5h-5v1h5V8.5z"/>
<path style="fill-rule:evenodd;clip-rule:evenodd;fill:#C0CAD0;" d="M7,16.5h5v-1H7V16.5z"/>
</svg>
