<?xml version="1.0" encoding="UTF-8" standalone="no"?>
<svg width="26px" height="26px" viewBox="0 0 26 26" version="1.1" xmlns="http://www.w3.org/2000/svg" xmlns:xlink="http://www.w3.org/1999/xlink">
    <!-- Generator: Sketch Beta 3.6 (26298) - http://www.bohemiancoding.com/sketch -->
    <title>linkedin</title>
    <desc>Created with Sketch Beta.</desc>
    <defs></defs>
    <g id="MessageUs" stroke="none" stroke-width="1" fill="none" fill-rule="evenodd">
        <g id="05-About" transform="translate(-1054.000000, -801.000000)" fill="#605C62">
            <g id="Assets/Icon-Linkedin" transform="translate(1054.000000, 801.000000)">
                <path d="M0,3.27927928 C0,2.38138138 0.429429429,1.52252252 0.975975976,0.975975976 C1.56156156,0.39039039 2.3033033,0 3.27927928,0 L22.7207207,0 C24.5555556,0 26,1.44444444 26,3.27927928 L26,22.7207207 C26,23.6966967 25.6096096,24.4384384 25.024024,25.024024 C24.4774775,25.5705706 23.6186186,26 22.7207207,26 L3.27927928,26 C1.44444444,26 0,24.5555556 0,22.7207207 L0,3.27927928 Z M3.51351351,5.85585586 C3.51351351,7.14414414 4.52852853,8.15915916 5.77777778,8.15915916 C7.06606607,8.15915916 8.12012012,7.14414414 8.12012012,5.85585586 C8.12012012,4.60660661 7.06606607,3.51351351 5.77777778,3.51351351 C4.52852853,3.51351351 3.51351351,4.60660661 3.51351351,5.85585586 L3.51351351,5.85585586 Z M9.7987988,21.9009009 C9.7987988,22.1351351 10.0720721,22.4084084 10.2672673,22.4084084 L13.6636637,22.4084084 C13.9369369,22.4084084 14.2102102,22.1741742 14.2102102,21.9009009 L14.2102102,15.4204204 C14.2102102,13.8978979 14.6396396,12.7657658 16.3573574,12.7657658 C17.7237237,12.7657658 18.0750751,13.4294294 18.0750751,14.6396396 L18.0750751,21.9009009 C18.0750751,22.1351351 18.2702703,22.4084084 18.5435435,22.4084084 L21.978979,22.4084084 C22.2132132,22.4084084 22.4474474,22.1741742 22.4474474,21.9009009 L22.4474474,13.8588589 C22.4474474,10.6576577 20.4954955,9.21321321 17.4504505,9.21321321 C16.2012012,9.21321321 14.990991,9.44744745 14.0540541,10.3843844 C14.0540541,10.033033 14.0540541,9.48648649 13.5855856,9.48648649 L10.2672673,9.48648649 C10.0720721,9.48648649 9.7987988,9.72072072 9.7987988,9.99399399 L9.7987988,21.9009009 Z M3.59159159,21.9009009 C3.59159159,22.1351351 3.82582583,22.4084084 4.06006006,22.4084084 L7.45645646,22.4084084 C7.72972973,22.4084084 7.96396396,22.1741742 7.96396396,21.9009009 L7.96396396,9.99399399 C7.96396396,9.68168168 7.76876877,9.48648649 7.45645646,9.48648649 L4.06006006,9.48648649 C3.86486486,9.48648649 3.59159159,9.72072072 3.59159159,9.99399399 L3.59159159,21.9009009 Z" id="linkedin"></path>
            </g>
        </g>
    </g>
</svg>