<?xml version="1.0" encoding="iso-8859-1"?>
<!-- Generator: Adobe Illustrator 16.0.0, SVG Export Plug-In . SVG Version: 6.00 Build 0)  -->
<!DOCTYPE svg PUBLIC "-//W3C//DTD SVG 1.1//EN" "http://www.w3.org/Graphics/SVG/1.1/DTD/svg11.dtd">
<svg version="1.1" id="Layer_1" xmlns="http://www.w3.org/2000/svg" xmlns:xlink="http://www.w3.org/1999/xlink" x="0px" y="0px"
	 width="11.25px" height="14.4px" viewBox="0 0 11.25 14.4" style="enable-background:new 0 0 11.25 14.4;" xml:space="preserve">
<path style="fill-rule:evenodd;clip-rule:evenodd;fill:#5C6B78;" d="M5.769,14.354C5.726,14.385,5.676,14.4,5.625,14.4
	s-0.101-0.016-0.144-0.046C5.257,14.195,0,10.387,0,5.52C0,2.528,2.576,0,5.625,0s5.625,2.528,5.625,5.52
	C11.25,10.387,5.993,14.195,5.769,14.354z M5.625,0.48c-2.784,0-5.136,2.308-5.136,5.04c0,4.189,4.289,7.688,5.136,8.338
	c0.847-0.65,5.136-4.153,5.136-8.338C10.761,2.788,8.409,0.48,5.625,0.48z M5.625,8.88c-1.888,0-3.424-1.507-3.424-3.36
	c0-1.853,1.536-3.36,3.424-3.36s3.424,1.507,3.424,3.36C9.049,7.373,7.513,8.88,5.625,8.88z M5.625,2.64
	c-1.618,0-2.935,1.292-2.935,2.88c0,1.588,1.316,2.88,2.935,2.88S8.56,7.108,8.56,5.52C8.56,3.932,7.243,2.64,5.625,2.64z"/>
</svg>
