<?xml version="1.0" encoding="iso-8859-1"?>
<!-- Generator: Adobe Illustrator 16.0.0, SVG Export Plug-In . SVG Version: 6.00 Build 0)  -->
<!DOCTYPE svg PUBLIC "-//W3C//DTD SVG 1.1//EN" "http://www.w3.org/Graphics/SVG/1.1/DTD/svg11.dtd">
<svg version="1.1" id="Layer_1" xmlns="http://www.w3.org/2000/svg" xmlns:xlink="http://www.w3.org/1999/xlink" x="0px" y="0px"
	 width="10.811px" height="12.132px" viewBox="0 0 10.811 12.132" style="enable-background:new 0 0 10.811 12.132;"
	 xml:space="preserve">
<path style="fill-rule:evenodd;clip-rule:evenodd;fill:#5C6B78;" d="M5.405,12.132C2.425,12.132,0,9.677,0,6.66
	C0,4.457,1.296,2.479,3.301,1.62c0.158-0.066,0.341,0.007,0.408,0.167C3.775,1.947,3.701,2.131,3.543,2.2
	C1.769,2.959,0.622,4.71,0.622,6.66c0,2.67,2.146,4.842,4.784,4.842s4.784-2.172,4.784-4.842c0-1.961-1.156-3.715-2.944-4.47
	C7.087,2.124,7.012,1.939,7.078,1.779s0.249-0.233,0.406-0.169c2.021,0.853,3.326,2.835,3.326,5.051
	C10.811,9.677,8.386,12.132,5.405,12.132z M5.405,5.785c-0.172,0-0.311-0.141-0.311-0.314V0.315C5.094,0.141,5.233,0,5.405,0
	s0.311,0.141,0.311,0.315v5.156C5.716,5.645,5.577,5.785,5.405,5.785z"/>
</svg>
