<?xml version="1.0" encoding="iso-8859-1"?>
<!-- Generator: Adobe Illustrator 16.0.0, SVG Export Plug-In . SVG Version: 6.00 Build 0)  -->
<!DOCTYPE svg PUBLIC "-//W3C//DTD SVG 1.1//EN" "http://www.w3.org/Graphics/SVG/1.1/DTD/svg11.dtd">
<svg version="1.1" id="Layer_1" xmlns="http://www.w3.org/2000/svg" xmlns:xlink="http://www.w3.org/1999/xlink" x="0px" y="0px"
	 width="22px" height="22px" viewBox="0 0 22 22" style="enable-background:new 0 0 22 22;" xml:space="preserve">
<path style="fill-rule:evenodd;clip-rule:evenodd;fill:#BFC7CF;" d="M11,22C4.935,22,0,17.065,0,11S4.935,0,11,0s11,4.935,11,11
	S17.065,22,11,22z M11,0.733C5.339,0.733,0.733,5.339,0.733,11S5.339,21.267,11,21.267S21.267,16.661,21.267,11
	S16.661,0.733,11,0.733z M11,19.226c-3.975,0-7.333-3.431-7.333-7.493c0-0.203,0.164-0.367,0.367-0.367S4.4,11.531,4.4,11.733
	c0,3.664,3.022,6.759,6.6,6.759s6.6-3.096,6.6-6.759c0-0.203,0.164-0.367,0.367-0.367s0.366,0.164,0.366,0.367
	C18.333,15.795,14.975,19.226,11,19.226z M17.233,9.533c-0.203,0-0.367-0.164-0.367-0.367c0-0.844-0.917-1.499-1.706-1.499
	c-0.849,0-1.594,0.701-1.594,1.499c0,0.203-0.164,0.367-0.366,0.367c-0.203,0-0.367-0.164-0.367-0.367
	c0-1.188,1.087-2.232,2.327-2.232c1.152,0,2.439,0.955,2.439,2.232C17.6,9.369,17.436,9.533,17.233,9.533z M8.8,9.533
	c-0.203,0-0.367-0.164-0.367-0.367c0-0.798-0.745-1.499-1.594-1.499c-0.789,0-1.706,0.655-1.706,1.499
	c0,0.203-0.164,0.367-0.367,0.367S4.4,9.369,4.4,9.167c0-1.277,1.288-2.232,2.439-2.232c1.24,0,2.327,1.043,2.327,2.232
	C9.167,9.369,9.003,9.533,8.8,9.533z"/>
</svg>
