<?xml version="1.0" encoding="utf-8"?>
<!-- Generator: Adobe Illustrator 19.2.1, SVG Export Plug-In . SVG Version: 6.00 Build 0)  -->
<svg version="1.1" id="Layer_1" xmlns:sketch="http://www.bohemiancoding.com/sketch/ns"
	 xmlns="http://www.w3.org/2000/svg" xmlns:xlink="http://www.w3.org/1999/xlink" x="0px" y="0px" viewBox="0 0 35 18"
	 style="enable-background:new 0 0 35 18;" xml:space="preserve">
<style type="text/css">
	.st0{fill:#C0CAD0;}
</style>
<title>Oval 9 + Oval 7 + Oval 9 + Oval 7 Copy 4 + Oval 9 + Oval 7 Copy 5</title>
<desc>Created with Sketch.</desc>
<g id="_x2D_-Dashboard" sketch:type="MSPage">
	<g id="_x2D_-02-Customers" transform="translate(-26.000000, -344.000000)" sketch:type="MSArtboardGroup">
		
			<g id="Oval-9-_x2B_-Oval-7-_x2B_-Oval-9-_x2B_-Oval-7-Copy-4-_x2B_-Oval-9-_x2B_-Oval-7-Copy-5" transform="translate(26.000000, 344.000000)" sketch:type="MSLayerGroup">
			<g>
				<path class="st0" d="M17.9,9c2.5,0,4.6-2,4.6-4.5C22.4,2,20.4,0,17.9,0c-2.5,0-4.6,2-4.6,4.5C13.3,7,15.3,9,17.9,9z M17.9,1
					c2,0,3.6,1.6,3.6,3.5c0,1.9-1.6,3.5-3.6,3.5c-2,0-3.6-1.6-3.6-3.5C14.3,2.6,15.9,1,17.9,1z"/>
				<path class="st0" d="M22.8,9.2C22.8,9.2,22.8,9.2,22.8,9.2C22.8,9.2,22.8,9.2,22.8,9.2L22.8,9.2C22.5,9,22.3,8.8,22,8.6
					c-0.8,1.2-2.4,2-4.1,2c-1.9,0-3.6-1-4.3-2.4c-0.3,0.1-0.5,0.3-0.8,0.5l0,0c0,0,0,0-0.1,0c0,0,0,0,0,0c-1.7,1.2-2.7,3-2.7,5.1
					c0,3.6,3.4,4.1,7.5,4.1s7.5-0.5,7.5-4.1C25,12.1,24.2,10.4,22.8,9.2z M17.5,17c-4.7,0-6.5-0.8-6.5-3.1c0-1.7,0.9-3.2,2.3-4.3
					c1.1,1.3,2.8,2,4.6,2c1.6,0,3.2-0.6,4.3-1.7c1.2,1,1.9,2.4,1.9,3.9C24,16.2,22.2,17,17.5,17z"/>
			</g>
			<g id="Oval-9-_x2B_-Oval-7-Copy-4" transform="translate(0.000000, 2.000000)" sketch:type="MSShapeGroup">
				<path id="Shape_2_" class="st0" d="M5.9,6.3c1.5,0,2.7-1.2,2.7-2.6S7.4,1,5.9,1S3.2,2.2,3.2,3.6S4.4,6.3,5.9,6.3L5.9,6.3z
					 M5.9,7.3L5.9,7.3c-2,0-3.7-1.6-3.7-3.6S3.9,0,5.9,0s3.7,1.6,3.7,3.6S8,7.3,5.9,7.3L5.9,7.3z"/>
				<path id="Shape_7_" class="st0" d="M9.5,8"/>
				<path id="Shape_6_" class="st0" d="M2.5,8L2.5,8C1.5,8.7,1,9.7,1,10.9C1,12.5,2.2,13,5.7,13c1.4,0,2.3-0.1,3-0.3
					c0.1,0,0.3,0,0.4,0l-0.1,1C8,13.9,6.9,14,5.7,14C2.5,14,0,13.6,0,10.9c0-1.5,0.7-2.8,1.9-3.7l0.1-0.1l0,0
					c0.2-0.2,0.5-0.4,0.8-0.5C3.3,7.7,4.5,8.4,6,8.4c1.3,0,3.1-1.5,3.2-1.5l0.6,0.7L9.5,8C8.6,8.9,7.3,9.4,6,9.4
					c-0.9,0-1.7-0.2-2.4-0.6C3.1,8.6,2.8,8.3,2.5,8"/>
			</g>
			<g id="Oval-9-_x2B_-Oval-7-Copy-4_1_" transform="translate(0.000000, 2.000000)" sketch:type="MSShapeGroup">
				<path id="Shape_8_" class="st0" d="M29.1,6.3c1.5,0,2.7-1.2,2.7-2.6S30.6,1,29.1,1c-1.5,0-2.7,1.2-2.7,2.6S27.6,6.3,29.1,6.3
					L29.1,6.3z M29.1,7.3c-2,0-3.7-1.6-3.7-3.6S27,0,29.1,0c2,0,3.7,1.6,3.7,3.6S31.1,7.3,29.1,7.3L29.1,7.3L29.1,7.3z"/>
				<path id="Shape_3_" class="st0" d="M25.5,8"/>
				<path id="Shape_1_" class="st0" d="M32.5,8c-0.3,0.3-0.7,0.6-1.1,0.8c-0.7,0.4-1.5,0.6-2.4,0.6c-1.4,0-2.7-0.5-3.5-1.4l-0.3-0.4
					l0.6-0.7c0,0,1.8,1.5,3.2,1.5c1.5,0,2.7-0.7,3.3-1.8c0.3,0.1,0.5,0.3,0.8,0.5l0,0l0.1,0.1c1.1,0.9,1.9,2.2,1.9,3.7
					c0,2.8-2.5,3.1-5.7,3.1c-1.2,0-2.4-0.1-3.3-0.3l-0.1-1c0.1,0,0.3,0,0.4,0c0.7,0.2,1.7,0.3,3,0.3c3.5,0,4.7-0.5,4.7-2.1
					C34,9.7,33.5,8.7,32.5,8L32.5,8"/>
			</g>
		</g>
	</g>
</g>
</svg>
