<svg width="324" height="54" viewBox="0 0 324 54" xmlns="http://www.w3.org/2000/svg"><title>messageus-logo-sign</title><g fill="none" fill-rule="evenodd"><path d="M64 39.045V19.597c0-.908.33-1.68.987-2.312.657-.634 1.48-.95 2.466-.95.9 0 1.674.32 2.323.962.65.643.974 1.41.974 2.3v.36c.64-.925 1.756-1.816 3.35-2.672A10.533 10.533 0 0 1 79.16 16c1.853 0 3.38.402 4.583 1.207 1.203.805 2.047 1.944 2.53 3.417.797-1.25 2.005-2.333 3.623-3.25A10.394 10.394 0 0 1 95.1 16c2.407 0 4.267.642 5.582 1.927 1.316 1.284 1.973 3.203 1.973 5.755v15.363a3.16 3.16 0 0 1-.986 2.35c-.66.643-1.48.964-2.467.964-.935 0-1.727-.322-2.376-.964-.65-.643-.973-1.426-.973-2.35V25.993c0-1.25-.312-2.235-.935-2.955-.624-.72-1.593-1.08-2.908-1.08-1.09 0-2.108.29-3.05.874-.944.582-1.693 1.267-2.246 2.055v14.155a3.14 3.14 0 0 1-1 2.35c-.666.643-1.493.964-2.48.964-.934 0-1.726-.322-2.375-.964-.648-.643-.972-1.426-.972-2.35V25.993c0-2.69-1.272-4.034-3.816-4.034-1.073 0-2.086.296-3.038.887-.952.59-1.713 1.29-2.284 2.094v14.105a3.16 3.16 0 0 1-.987 2.35c-.657.643-1.462.964-2.414.964-.936 0-1.727-.322-2.376-.964-.65-.643-.974-1.426-.974-2.35zm43.22-9.737c0-2.45.558-4.684 1.675-6.705 1.116-2.02 2.695-3.627 4.737-4.817 2.043-1.19 4.336-1.786 6.88-1.786 2.873 0 5.36.766 7.464 2.3 2.102 1.532 3.612 3.626 4.53 6.28.502 1.594.753 2.878.753 3.854 0 .823-.31 1.533-.923 2.133-.614.6-1.354.9-2.22.9H114.28c.226 1.695.992 3.103 2.3 4.225 1.306 1.122 3.006 1.683 5.1 1.683 1.748 0 3.41-.42 4.985-1.26.45-.222.89-.333 1.324-.333.743 0 1.41.26 1.998.784.588.522.882 1.16.882 1.914 0 .702-.35 1.34-1.05 1.914-.702.573-1.59 1.02-2.662 1.336-1.073.317-2.15.556-3.232.72-1.082.162-2.08.243-3 .243-3.962 0-7.237-1.23-9.825-3.687-2.586-2.457-3.88-5.69-3.88-9.698zm6.958-2.364h12.642a5.957 5.957 0 0 0-.428-1.914 6.768 6.768 0 0 0-1.09-1.798c-.476-.574-1.13-1.036-1.96-1.387-.83-.35-1.774-.527-2.83-.527-1.004 0-1.908.17-2.713.514-.806.342-1.45.796-1.935 1.362a7.172 7.172 0 0 0-1.142 1.798 7.15 7.15 0 0 0-.545 1.952zm22.114 10.945c0-.772.285-1.427.856-1.967.57-.54 1.22-.81 1.947-.81.537 0 .996.12 1.376.36 2.407 1.37 4.717 2.056 6.933 2.056 1.42 0 2.492-.253 3.22-.76.726-.504 1.09-1.168 1.09-1.99 0-.565-.282-1.027-.844-1.387-.564-.36-1.295-.642-2.195-.848-.9-.205-1.89-.407-2.973-.604a25.025 25.025 0 0 1-3.245-.82 14.852 14.852 0 0 1-2.972-1.324c-.9-.53-1.63-1.29-2.194-2.274-.56-.984-.843-2.153-.843-3.506 0-2.244.944-4.14 2.83-5.69 1.887-1.55 4.448-2.326 7.684-2.326 1.853 0 3.71.283 5.57.848 1.86.565 3.128 1.32 3.803 2.26.277.377.416.814.416 1.31 0 .703-.27 1.303-.806 1.8-.537.496-1.15.744-1.843.744-.45 0-.873-.11-1.27-.334-1.732-1.01-3.67-1.515-5.817-1.515-1.194 0-2.163.24-2.907.72-.744.478-1.117 1.078-1.117 1.797 0 .497.28.908.843 1.233.563.326 1.29.59 2.18.797.892.205 1.874.407 2.947.604s2.15.483 3.233.86c1.08.377 2.068.844 2.96 1.4.89.557 1.617 1.35 2.18 2.377.562 1.028.843 2.236.843 3.623 0 2.38-.986 4.338-2.96 5.87-1.972 1.534-4.69 2.3-8.15 2.3-1.922 0-3.938-.3-6.05-.9-2.11-.6-3.53-1.42-4.257-2.465a2.315 2.315 0 0 1-.468-1.44zm24.917 0c0-.772.285-1.427.856-1.967.57-.54 1.22-.81 1.947-.81.537 0 .995.12 1.376.36 2.405 1.37 4.715 2.056 6.93 2.056 1.42 0 2.493-.253 3.22-.76.727-.504 1.09-1.168 1.09-1.99 0-.565-.28-1.027-.844-1.387-.562-.36-1.293-.642-2.193-.848-.9-.205-1.89-.407-2.973-.604a25.025 25.025 0 0 1-3.245-.82 14.852 14.852 0 0 1-2.972-1.324c-.9-.53-1.632-1.29-2.194-2.274-.564-.984-.845-2.153-.845-3.506 0-2.244.943-4.14 2.83-5.69 1.886-1.55 4.448-2.326 7.684-2.326 1.85 0 3.707.283 5.568.848 1.86.565 3.128 1.32 3.803 2.26.278.377.416.814.416 1.31 0 .703-.268 1.303-.804 1.8-.537.496-1.15.744-1.844.744-.45 0-.874-.11-1.272-.334-1.73-1.01-3.67-1.515-5.815-1.515-1.193 0-2.162.24-2.906.72-.745.478-1.117 1.078-1.117 1.797 0 .497.282.908.844 1.233.564.326 1.29.59 2.182.797.89.205 1.873.407 2.946.604 1.073.197 2.15.483 3.232.86 1.082.377 2.07.844 2.96 1.4.89.557 1.618 1.35 2.18 2.377.563 1.028.844 2.236.844 3.623 0 2.38-.986 4.338-2.96 5.87-1.972 1.534-4.69 2.3-8.15 2.3-1.922 0-3.938-.3-6.05-.9-2.11-.6-3.53-1.42-4.257-2.465a2.315 2.315 0 0 1-.468-1.44zm24.813-3.624c0-1.147.178-2.192.533-3.134.354-.942.83-1.72 1.427-2.338a8.394 8.394 0 0 1 2.064-1.554c.78-.42 1.58-.724 2.402-.912a11.18 11.18 0 0 1 2.504-.283c1.713 0 3.284.27 4.712.81s2.566 1.305 3.414 2.3v-3.418c0-1.285-.515-2.317-1.545-3.096-1.03-.778-2.393-1.168-4.09-1.168-2.145 0-4.057.548-5.736 1.644-.417.24-.823.36-1.22.36-.66 0-1.252-.24-1.78-.72-.527-.48-.79-1.095-.79-1.85 0-.427.128-.864.388-1.31.71-1.13 2.146-2.012 4.31-2.645 2.163-.633 4.162-.95 5.996-.95 1.54 0 2.95.163 4.232.488 1.28.326 2.462.848 3.544 1.567 1.08.72 1.925 1.722 2.53 3.006.606 1.286.91 2.81.91 4.574v13.41c0 .926-.32 1.71-.96 2.352-.642.642-1.42.963-2.338.963h-.52c-.19 0-.423-.04-.7-.117a4.84 4.84 0 0 1-.947-.398c-.355-.188-.658-.492-.91-.912-.25-.42-.375-.92-.375-1.503-.883 1.028-2.038 1.83-3.466 2.402-1.428.574-2.98.86-4.66.86a9.427 9.427 0 0 1-3.128-.538 10.424 10.424 0 0 1-2.87-1.542c-.882-.668-1.59-1.554-2.128-2.66-.536-1.104-.805-2.333-.805-3.686zm6.802.155c0 1.148.463 2.056 1.39 2.724.925.668 2.072 1.002 3.44 1.002a8.697 8.697 0 0 0 3.153-.565c.978-.376 1.735-.924 2.272-1.644v-3.134c-.537-.72-1.294-1.267-2.272-1.644a8.697 8.697 0 0 0-3.154-.565c-1.385 0-2.536.338-3.453 1.014-.916.677-1.375 1.615-1.375 2.814zm21.647-5.472c0-4.06 1.05-7.232 3.154-9.518 2.103-2.287 4.824-3.43 8.165-3.43 3.168 0 5.807 1.302 7.92 3.905v-.257c0-.925.328-1.708.985-2.35.658-.643 1.48-.964 2.467-.964.934 0 1.726.32 2.375.963.65.643.973 1.426.973 2.35v20.657c0 1.867-.28 3.52-.843 4.958-.563 1.44-1.294 2.595-2.194 3.468-.9.874-1.973 1.593-3.22 2.16-1.245.564-2.483.95-3.71 1.155-1.23.205-2.528.308-3.896.308-1.955 0-3.928-.257-5.92-.77-1.99-.515-3.33-1.302-4.022-2.364a2.726 2.726 0 0 1-.442-1.49c0-.79.28-1.45.844-1.98a2.798 2.798 0 0 1 1.986-.796c.52 0 .995.12 1.428.36 1.714 1.044 3.756 1.567 6.127 1.567.883 0 1.714-.102 2.493-.308a7.646 7.646 0 0 0 2.232-1.002c.71-.462 1.277-1.126 1.7-1.99.425-.866.637-1.897.637-3.096V37.89c-2.147 2.67-4.787 4.007-7.92 4.007-3.34 0-6.06-1.13-8.164-3.392-2.103-2.26-3.154-5.446-3.154-9.557zm6.957 0c0 2.158.596 3.863 1.79 5.113 1.195 1.25 2.76 1.876 4.7 1.876 1.107 0 2.206-.274 3.297-.822 1.09-.548 1.92-1.233 2.492-2.055v-8.222c-.555-.84-1.377-1.53-2.467-2.068-1.09-.54-2.198-.81-3.323-.81-1.94 0-3.505.625-4.7 1.876-1.194 1.25-1.79 2.954-1.79 5.112zm23.723.36c0-2.45.558-4.684 1.675-6.705 1.116-2.02 2.695-3.627 4.737-4.817 2.043-1.19 4.336-1.786 6.88-1.786 2.873 0 5.36.766 7.464 2.3 2.1 1.532 3.61 3.626 4.53 6.28.5 1.594.752 2.878.752 3.854 0 .823-.308 1.533-.922 2.133-.614.6-1.354.9-2.22.9h-15.836c.225 1.695.99 3.103 2.298 4.225 1.307 1.122 3.007 1.683 5.1 1.683 1.75 0 3.41-.42 4.986-1.26.45-.222.89-.333 1.324-.333.744 0 1.41.26 2 .784.587.522.88 1.16.88 1.914 0 .702-.35 1.34-1.05 1.914-.7.573-1.588 1.02-2.66 1.336-1.074.317-2.152.556-3.233.72-1.083.162-2.082.243-3 .243-3.963 0-7.238-1.23-9.826-3.687-2.587-2.457-3.88-5.69-3.88-9.698zm6.957-2.364h12.643a5.957 5.957 0 0 0-.428-1.914 6.768 6.768 0 0 0-1.09-1.798c-.476-.574-1.13-1.036-1.96-1.387-.83-.35-1.774-.527-2.83-.527-1.004 0-1.908.17-2.713.514-.805.342-1.45.796-1.934 1.362a7.172 7.172 0 0 0-1.142 1.798 7.15 7.15 0 0 0-.546 1.952zm24.295 7.63V18.21c0-.514.2-.955.597-1.324.398-.368.883-.552 1.454-.552.502 0 .948.188 1.337.565.39.376.584.813.584 1.31v15.157c0 2.124.493 3.618 1.48 4.483.987.865 2.406 1.298 4.258 1.298 1.505 0 2.955-.37 4.348-1.105 1.393-.737 2.48-1.644 3.258-2.723V18.21c0-.514.204-.955.61-1.324a2.11 2.11 0 0 1 1.468-.552c.502 0 .947.188 1.337.565.39.376.584.813.584 1.31V40.43c0 .53-.2.985-.598 1.362a2.005 2.005 0 0 1-1.428.565c-.536 0-1-.19-1.39-.566a1.826 1.826 0 0 1-.583-1.362V38.48c-1.072 1.2-2.413 2.2-4.023 3.006a11.282 11.282 0 0 1-5.114 1.207c-5.452 0-8.178-2.706-8.178-8.118zm26.84 3.623c0-.48.172-.878.518-1.195.347-.316.77-.475 1.272-.475.433 0 .823.12 1.17.36 2.214 1.73 4.663 2.595 7.346 2.595 1.922 0 3.414-.403 4.48-1.208 1.063-.805 1.595-1.858 1.595-3.16 0-.822-.294-1.516-.882-2.08-.59-.566-1.35-1.003-2.285-1.31a34.196 34.196 0 0 0-3.09-.85 50.855 50.855 0 0 1-3.387-.898 17.192 17.192 0 0 1-3.1-1.26 6.063 6.063 0 0 1-2.286-2.118c-.588-.917-.883-2.01-.883-3.276 0-2.072.858-3.81 2.572-5.215 1.713-1.405 4.05-2.107 7.01-2.107 3.46 0 6.368 1.002 8.722 3.006.346.29.52.676.52 1.156 0 .445-.157.818-.468 1.118-.312.3-.684.45-1.117.45-.416 0-.77-.12-1.065-.36-1.87-1.44-4.067-2.16-6.594-2.16-1.712 0-3.088.382-4.127 1.145-1.038.762-1.557 1.717-1.557 2.864 0 .753.294 1.378.882 1.875.59.496 1.346.89 2.272 1.18.926.293 1.956.558 3.09.798a33.33 33.33 0 0 1 3.4.912c1.134.368 2.163.813 3.09 1.336.925.523 1.682 1.268 2.27 2.236.59.968.883 2.12.883 3.455 0 2.228-.882 4.065-2.647 5.512-1.766 1.447-4.25 2.17-7.45 2.17-3.895 0-7.088-1.087-9.58-3.262a1.553 1.553 0 0 1-.572-1.233z" fill="#605C62"/><path d="M10.585 28.407a12.936 12.936 0 0 1-2.666-7.88c0-7.233 5.937-13.098 13.262-13.098 7.326 0 13.264 5.864 13.264 13.098 0 7.235-5.938 13.1-13.264 13.1h-.09v7.407S12.504 31.8 10.584 28.407zM4.043 34.77C9.275 44.414 18.078 54 21.253 54c4.867 0 21.066-19.68 20.716-33.276C41.617 7.127 32.573 0 20.983 0S0 10.03 0 20.724c0 3.724 1.248 8.895 4.043 14.047z" fill="#A500E6"/></g></svg>