<svg xmlns="http://www.w3.org/2000/svg" xmlns:xlink="http://www.w3.org/1999/xlink" width="162" height="27" viewBox="0 0 162 27"><defs><path id="a" d="M151.608 18.38a.78.78 0 0 1 .26-.597.91.91 0 0 1 .636-.237c.217 0 .41.06.585.18 1.106.865 2.33 1.298 3.672 1.298.96 0 1.707-.2 2.24-.604.53-.402.797-.93.797-1.58 0-.41-.147-.758-.442-1.04-.294-.282-.675-.5-1.142-.655a17.354 17.354 0 0 0-1.545-.424 25.42 25.42 0 0 1-1.693-.448 8.646 8.646 0 0 1-1.55-.63 3.04 3.04 0 0 1-1.144-1.06c-.294-.458-.44-1.004-.44-1.638 0-1.036.428-1.905 1.284-2.608.857-.702 2.025-1.053 3.505-1.053 1.73 0 3.185.5 4.36 1.503a.72.72 0 0 1 .26.578c0 .223-.077.41-.232.56a.778.778 0 0 1-.56.224.816.816 0 0 1-.53-.18c-.936-.72-2.034-1.08-3.298-1.08-.856 0-1.545.19-2.063.572-.52.38-.78.86-.78 1.433 0 .376.147.69.44.938.296.25.674.446 1.137.592s.98.278 1.545.398c.566.12 1.134.272 1.7.456.567.184 1.082.407 1.545.668s.842.633 1.136 1.118c.294.483.44 1.06.44 1.728 0 1.113-.44 2.03-1.323 2.755s-2.124 1.086-3.726 1.086c-1.946 0-3.543-.543-4.79-1.63a.78.78 0 0 1-.286-.62zm-13.42-1.81V8.386c0-.257.1-.478.3-.662.198-.184.44-.276.727-.276a.93.93 0 0 1 .668.282.884.884 0 0 1 .292.655v7.58c0 1.06.247 1.81.74 2.24.493.433 1.203.65 2.13.65.752 0 1.477-.186 2.173-.554.697-.368 1.24-.822 1.63-1.36V8.386c0-.257.1-.478.305-.662.203-.184.447-.276.733-.276a.93.93 0 0 1 .668.282.884.884 0 0 1 .292.655v11.11a.91.91 0 0 1-.298.683c-.2.188-.438.282-.714.282a.97.97 0 0 1-.695-.282.917.917 0 0 1-.293-.682v-.976c-.536.6-1.207 1.1-2.012 1.503s-1.657.604-2.557.604c-2.726 0-4.09-1.355-4.09-4.06zm-12.146-3.816h6.32a3.008 3.008 0 0 0-.213-.957 3.41 3.41 0 0 0-.547-.9c-.237-.286-.564-.517-.98-.693a3.62 3.62 0 0 0-1.414-.263c-.503 0-.955.086-1.357.258s-.725.398-.967.68c-.242.284-.433.584-.57.9s-.23.642-.274.976zm-3.48 1.183c0-1.225.28-2.342.838-3.353a6.24 6.24 0 0 1 2.37-2.408c1.02-.595 2.166-.893 3.438-.893 1.437 0 2.68.383 3.73 1.15 1.053.766 1.808 1.813 2.267 3.14.25.797.376 1.44.376 1.928 0 .412-.152.767-.46 1.067-.307.3-.677.45-1.11.45h-7.917a3.262 3.262 0 0 0 1.148 2.113c.654.56 1.505.84 2.552.84a5.23 5.23 0 0 0 2.492-.628 1.49 1.49 0 0 1 .662-.167c.372 0 .705.13 1 .392.294.26.44.58.44.957 0 .35-.175.67-.525.957-.35.287-.793.51-1.33.67-.536.157-1.074.277-1.615.358s-1.04.122-1.5.122c-1.98 0-3.62-.614-4.912-1.844-1.293-1.23-1.94-2.846-1.94-4.85zm-11.86-.18c0 1.08.298 1.93.895 2.555.598.625 1.38.938 2.35.938.554 0 1.104-.137 1.648-.41.545-.274.96-.617 1.246-1.028v-4.11c-.275-.42-.687-.764-1.232-1.034a3.705 3.705 0 0 0-1.66-.404c-.97 0-1.753.312-2.35.938-.598.623-.897 1.475-.897 2.554zm-3.48 0c0-2.03.526-3.617 1.578-4.76 1.05-1.143 2.412-1.715 4.082-1.715 1.584 0 2.903.65 3.96 1.953v-.13c0-.46.163-.853.492-1.174.33-.32.74-.48 1.233-.48.467 0 .863.16 1.188.48.324.322.487.714.487 1.176v10.328c0 .933-.14 1.76-.422 2.48-.28.72-.647 1.297-1.098 1.733-.45.437-.986.797-1.61 1.08s-1.24.475-1.855.577a11.796 11.796 0 0 1-4.906-.232c-.994-.257-1.665-.65-2.01-1.182-.148-.23-.222-.48-.222-.745 0-.394.14-.724.422-.99s.612-.397.993-.397c.26 0 .497.06.714.18.856.523 1.878.784 3.063.784.44 0 .856-.052 1.246-.154.39-.103.762-.27 1.116-.5s.638-.563.85-.996c.213-.433.318-.948.318-1.548v-1.298c-1.073 1.336-2.393 2.004-3.96 2.004-1.67 0-3.03-.565-4.08-1.695-1.052-1.13-1.577-2.723-1.577-4.78zM96.4 16.49c0 .574.23 1.028.693 1.362s1.036.5 1.72.5c.562 0 1.088-.094 1.577-.282s.867-.462 1.136-.822v-1.566c-.27-.36-.646-.634-1.136-.822s-1.015-.283-1.577-.283c-.692 0-1.268.17-1.727.507s-.687.807-.687 1.405zm-3.402-.077c0-.573.09-1.096.267-1.566a3.33 3.33 0 0 1 .714-1.17 4.22 4.22 0 0 1 1.03-.777c.39-.21.79-.362 1.2-.456s.83-.142 1.254-.142c.856 0 1.642.135 2.355.405.713.27 1.282.653 1.706 1.15v-1.708c0-.643-.258-1.158-.772-1.548s-1.196-.584-2.044-.584c-1.073 0-2.03.274-2.87.822-.207.12-.41.18-.61.18-.327 0-.624-.12-.888-.36s-.396-.548-.396-.925c0-.214.065-.433.195-.655.355-.565 1.074-1.006 2.155-1.323 1.082-.318 2.08-.477 3-.477.77 0 1.475.082 2.114.244.64.163 1.23.424 1.77.784.54.36.963.86 1.267 1.504.303.642.454 1.404.454 2.287v6.706c0 .463-.16.854-.48 1.176s-.71.48-1.167.48h-.26c-.096 0-.212-.02-.35-.057a2.463 2.463 0 0 1-.475-.2 1.182 1.182 0 0 1-.454-.455 1.433 1.433 0 0 1-.188-.752c-.44.515-1.02.914-1.733 1.2-.714.288-1.49.432-2.33.432-.527 0-1.05-.09-1.563-.27s-.993-.438-1.435-.77-.796-.777-1.064-1.33A4.178 4.178 0 0 1 93 16.415zM80.59 18.227a1.3 1.3 0 0 1 .43-.982c.284-.27.61-.404.973-.404.27 0 .497.06.688.18 1.204.686 2.36 1.028 3.467 1.028.71 0 1.246-.126 1.61-.38.363-.252.545-.584.545-.994 0-.283-.14-.515-.422-.694s-.647-.32-1.097-.424c-.45-.103-.945-.203-1.486-.302s-1.082-.235-1.623-.41-1.036-.397-1.486-.662a3.053 3.053 0 0 1-1.097-1.137c-.28-.492-.42-1.077-.42-1.753 0-1.122.47-2.07 1.414-2.845s2.224-1.163 3.842-1.163c.927 0 1.854.142 2.784.424.93.283 1.564.66 1.902 1.13.14.188.207.407.207.655 0 .35-.135.65-.403.9a1.318 1.318 0 0 1-1.558.205c-.866-.505-1.835-.758-2.908-.758-.597 0-1.082.12-1.454.36s-.558.54-.558.9c0 .247.14.453.422.615.28.163.645.295 1.09.398.446.103.937.203 1.474.302.536.1 1.075.242 1.616.43.54.188 1.034.422 1.48.7s.808.674 1.09 1.188.42 1.118.42 1.812c0 1.19-.492 2.17-1.478 2.936s-2.345 1.15-4.075 1.15c-.962 0-1.97-.15-3.025-.45-1.057-.3-1.766-.71-2.13-1.232a1.16 1.16 0 0 1-.234-.72zm-12.458 0c0-.385.143-.713.428-.982s.61-.404.974-.404c.268 0 .498.06.688.18 1.203.686 2.358 1.028 3.466 1.028.71 0 1.246-.126 1.61-.38.363-.252.544-.584.544-.994 0-.283-.14-.515-.422-.694s-.647-.32-1.097-.424a34.71 34.71 0 0 0-1.486-.302 12.53 12.53 0 0 1-1.623-.41 7.446 7.446 0 0 1-1.486-.662 3.038 3.038 0 0 1-1.097-1.137c-.28-.492-.42-1.077-.42-1.753 0-1.122.47-2.07 1.414-2.845s2.224-1.163 3.842-1.163c.926 0 1.854.142 2.784.424.93.283 1.564.66 1.902 1.13.138.188.208.407.208.655 0 .35-.134.65-.402.9-.27.247-.576.372-.922.372-.225 0-.437-.056-.636-.167-.865-.505-1.834-.758-2.908-.758-.597 0-1.082.12-1.454.36s-.558.54-.558.9c0 .247.14.453.422.615.28.163.645.295 1.09.398.445.103.937.203 1.473.302s1.075.242 1.616.43c.542.188 1.035.422 1.48.7s.81.674 1.09 1.188.422 1.118.422 1.812c0 1.19-.493 2.17-1.48 2.936-.986.768-2.345 1.15-4.076 1.15-.96 0-1.97-.15-3.024-.45-1.056-.3-1.765-.71-2.128-1.232a1.177 1.177 0 0 1-.232-.72zm-11.057-5.473h6.32c-.016-.325-.087-.645-.213-.957s-.307-.612-.545-.9c-.238-.286-.564-.517-.98-.693a3.613 3.613 0 0 0-1.415-.263c-.502 0-.954.086-1.356.258a2.56 2.56 0 0 0-.967.68 3.582 3.582 0 0 0-.844 1.875zm-3.478 1.183c0-1.225.28-2.342.837-3.353a6.24 6.24 0 0 1 2.37-2.408c1.02-.595 2.166-.893 3.44-.893 1.436 0 2.68.383 3.73 1.15 1.052.766 1.807 1.813 2.265 3.14.25.797.375 1.44.375 1.928 0 .412-.153.767-.46 1.067-.308.3-.678.45-1.11.45h-7.918a3.262 3.262 0 0 0 1.148 2.113c.653.56 1.503.84 2.55.84a5.23 5.23 0 0 0 2.493-.628 1.49 1.49 0 0 1 .662-.167c.372 0 .705.13 1 .392.294.26.44.58.44.957 0 .35-.174.67-.524.957-.35.287-.794.51-1.33.67-.538.157-1.076.277-1.617.358-.542.08-1.042.122-1.5.122-1.982 0-3.62-.614-4.913-1.844-1.294-1.23-1.94-2.846-1.94-4.85zm-21.61 4.868V9.08c0-.453.164-.838.493-1.155.33-.317.74-.476 1.233-.476.45 0 .837.16 1.162.48.325.322.487.705.487 1.15v.18c.32-.463.878-.908 1.674-1.336a5.27 5.27 0 0 1 2.53-.643c.927 0 1.69.202 2.292.605.602.402 1.023.972 1.266 1.708.398-.625 1.002-1.167 1.81-1.625a5.198 5.198 0 0 1 2.604-.688c1.203 0 2.133.32 2.79.963.66.643.987 1.602.987 2.877v7.682c0 .463-.164.854-.493 1.176-.33.32-.74.48-1.233.48-.468 0-.864-.16-1.19-.48a1.592 1.592 0 0 1-.485-1.176v-6.525c0-.625-.156-1.118-.467-1.478-.312-.36-.796-.54-1.454-.54a2.85 2.85 0 0 0-1.525.437c-.473.29-.847.634-1.124 1.028v7.078c0 .463-.167.854-.5 1.176-.333.32-.747.48-1.24.48-.467 0-.863-.16-1.188-.48a1.592 1.592 0 0 1-.486-1.177v-6.525c0-1.345-.636-2.017-1.908-2.017-.537 0-1.043.148-1.52.444a3.895 3.895 0 0 0-1.14 1.047v7.053c0 .463-.166.854-.494 1.176-.33.32-.73.48-1.207.48-.467 0-.863-.16-1.188-.48a1.58 1.58 0 0 1-.49-1.175z"/></defs><clipPath id="b"><use xlink:href="#a" overflow="visible"/></clipPath><g clip-path="url(#b)"><defs><path id="c" d="M-172-39h1440v6123H-172z"/></defs><clipPath id="d"><use xlink:href="#c" overflow="visible"/></clipPath><path clip-path="url(#d)" fill="#FFF" d="M26.986 2.282h139.747V30.46H26.986z"/></g><g><defs><path id="e" d="M2.02 17.386C4.638 22.206 9.04 27 10.627 27c2.434 0 10.534-9.84 10.358-16.638S16.287 0 10.492 0C4.697 0 0 5.015 0 10.362c0 1.862.624 4.448 2.02 7.024zm3.272-3.183a6.465 6.465 0 0 1-1.333-3.94c0-3.616 2.968-6.548 6.63-6.548s6.633 2.932 6.633 6.55-2.97 6.548-6.632 6.548h-.044v3.704S6.252 15.9 5.292 14.203z"/></defs><clipPath id="f"><use xlink:href="#e" overflow="visible"/></clipPath><g clip-path="url(#f)"><defs><path id="g" d="M-172-39h1440v6123H-172z"/></defs><clipPath id="h"><use xlink:href="#g" overflow="visible"/></clipPath><path clip-path="url(#h)" fill="#FFF" d="M-5-5h30.987v37H-5z"/></g></g></svg>