<?xml version="1.0" encoding="UTF-8" standalone="no"?>
<svg width="111px" height="55px" viewBox="0 0 111 55" version="1.1" xmlns="http://www.w3.org/2000/svg" xmlns:xlink="http://www.w3.org/1999/xlink" xmlns:sketch="http://www.bohemiancoding.com/sketch/ns">
    <!-- Generator: Sketch 3.5.2 (25235) - http://www.bohemiancoding.com/sketch -->
    <title>Group 2</title>
    <desc>Created with Sketch.</desc>
    <defs>
        <filter x="-50%" y="-50%" width="200%" height="200%" filterUnits="objectBoundingBox" id="filter-1">
            <feOffset dx="0" dy="0.5" in="SourceAlpha" result="shadowOffsetOuter1"></feOffset>
            <feGaussianBlur stdDeviation="0" in="shadowOffsetOuter1" result="shadowBlurOuter1"></feGaussianBlur>
            <feColorMatrix values="0 0 0 0 0.764705882   0 0 0 0 0.756862745   0 0 0 0 0.768627451  0 0 0 0.7 0" in="shadowBlurOuter1" type="matrix" result="shadowMatrixOuter1"></feColorMatrix>
            <feOffset dx="0" dy="-0.5" in="SourceAlpha" result="shadowOffsetOuter2"></feOffset>
            <feGaussianBlur stdDeviation="0" in="shadowOffsetOuter2" result="shadowBlurOuter2"></feGaussianBlur>
            <feColorMatrix values="0 0 0 0 0.764705882   0 0 0 0 0.756862745   0 0 0 0 0.768627451  0 0 0 0.7 0" in="shadowBlurOuter2" type="matrix" result="shadowMatrixOuter2"></feColorMatrix>
            <feMerge>
                <feMergeNode in="shadowMatrixOuter1"></feMergeNode>
                <feMergeNode in="shadowMatrixOuter2"></feMergeNode>
                <feMergeNode in="SourceGraphic"></feMergeNode>
            </feMerge>
        </filter>
    </defs>
    <g id="MessageUs" stroke="none" stroke-width="1" fill="none" fill-rule="evenodd" sketch:type="MSPage">
        <g id="01-Home" sketch:type="MSArtboardGroup" transform="translate(-302.000000, -4958.000000)">
            <rect id="Rectangle-119" fill="#F9F9F9" filter="url(#filter-1)" sketch:type="MSShapeGroup" x="0" y="4317" width="1440" height="1176"></rect>
            <g id="Group-5" sketch:type="MSLayerGroup" transform="translate(240.000000, 4739.000000)">
                <g id="Businesses" transform="translate(0.000000, 162.000000)" sketch:type="MSShapeGroup">
                    <rect id="Rectangle-47-Copy" stroke="#C3C1C4" fill="#FFFFFF" x="0" y="0" width="466" height="466"></rect>
                    <g id="Group-2" transform="translate(63.000000, 58.000000)" stroke-width="2" stroke-linecap="round" stroke-linejoin="round">
                        <g id="298---User-(Outline)" transform="translate(0.000000, 6.000000)" stroke="#49444C">
                            <path d="M40,47 L40,46.1132075 L40,44.3014906 C40,41.6074151 38.4390909,39.1447925 35.9690909,37.9396415 L27.2854545,33.7043208 C26.1636364,33.1571698 25.4545455,32.0380377 25.4545455,30.8142642 L25.4545455,27.490566 C25.6981818,27.2200943 25.9781818,26.8715849 26.2763636,26.4601132 C27.4590909,24.8301887 28.3545455,23.0362075 28.9754545,21.1535472 C30.0881818,20.8192264 30.9090909,19.8153774 30.9090909,18.6226415 L30.9090909,15.0754717 C30.9090909,14.2950943 30.5536364,13.5971887 30,13.1094528 L30,7.98113208 C30,7.98113208 31.0790909,0 20,0 C8.92,0 10,7.98113208 10,7.98113208 L10,13.1094528 C9.44636364,13.5971887 9.09090909,14.2950943 9.09090909,15.0754717 L9.09090909,18.6226415 C9.09090909,19.5573208 9.59454545,20.3793774 10.3481818,20.8546981 C11.2563636,24.7140189 13.6363636,27.490566 13.6363636,27.490566 L13.6363636,30.7317925 C13.6363636,31.9138868 12.9745455,33.0019811 11.91,33.5686415 L3.8,37.8837736 C1.45727273,39.129717 0,41.5249434 0,44.1276792 L0,46.1132075 L0,47 L40,47 Z" id="Path"></path>
                        </g>
                        <g id="298---User-(Outline)-Copy" transform="translate(69.000000, 6.000000)" stroke="#49444C">
                            <path d="M40,47 L40,46.1132075 L40,44.3014906 C40,41.6074151 38.4390909,39.1447925 35.9690909,37.9396415 L27.2854545,33.7043208 C26.1636364,33.1571698 25.4545455,32.0380377 25.4545455,30.8142642 L25.4545455,27.490566 C25.6981818,27.2200943 25.9781818,26.8715849 26.2763636,26.4601132 C27.4590909,24.8301887 28.3545455,23.0362075 28.9754545,21.1535472 C30.0881818,20.8192264 30.9090909,19.8153774 30.9090909,18.6226415 L30.9090909,15.0754717 C30.9090909,14.2950943 30.5536364,13.5971887 30,13.1094528 L30,7.98113208 C30,7.98113208 31.0790909,-3.55271368e-15 20,-3.55271368e-15 C8.92,-3.55271368e-15 10,7.98113208 10,7.98113208 L10,13.1094528 C9.44636364,13.5971887 9.09090909,14.2950943 9.09090909,15.0754717 L9.09090909,18.6226415 C9.09090909,19.5573208 9.59454545,20.3793774 10.3481818,20.8546981 C11.2563636,24.7140189 13.6363636,27.490566 13.6363636,27.490566 L13.6363636,30.7317925 C13.6363636,31.9138868 12.9745455,33.0019811 11.91,33.5686415 L3.8,37.8837736 C1.45727273,39.129717 0,41.5249434 0,44.1276792 L0,46.1132075 L0,47 L40,47 Z" id="Path"></path>
                        </g>
                        <g id="297---User-(Outline)" transform="translate(33.000000, 0.000000)" stroke="#A500E6" fill="#FFFFFF">
                            <path d="M44,53 L44,52 L44,50.957 C44,47.919 42.283,45.142 39.566,43.783 L28.539,39.007 C27.936,38.705 27.445,38.063 27.099,37.367 C26.787,36.739 27.253,36 27.954,36 L35.72,36 C35.72,36 38.568,36.273 40.764,35.33 C42.05,34.777 42.494,33.162 41.689,32.017 C39.336,28.668 34.473,20.782 34.316,12.638 C34.316,12.638 34.046,0.102 21.678,0 C14.463,0.06 11.055,4.306 9.468,7.835 C8.582,9.804 8.203,11.95 8.06,14.104 C7.547,21.866 3.594,29.195 1.752,32.23 C1.127,33.259 1.429,34.629 2.463,35.247 C4.157,36.26 6.231,36 6.231,36 L14.18,36 C14.955,36 15.297,36.979 14.688,37.459 C14.192,37.85 13.72,38.204 13.464,38.343 L4.18,43.72 C1.603,45.125 0,47.826 0,50.761 L0,52 L0,53 L44,53 Z" id="Path"></path>
                        </g>
                    </g>
                </g>
            </g>
        </g>
    </g>
</svg>