<?xml version="1.0" encoding="UTF-8" standalone="no"?>
<svg width="60px" height="60px" viewBox="0 0 60 60" version="1.1" xmlns="http://www.w3.org/2000/svg" xmlns:xlink="http://www.w3.org/1999/xlink" xmlns:sketch="http://www.bohemiancoding.com/sketch/ns">
    <!-- Generator: Sketch 3.5.2 (25235) - http://www.bohemiancoding.com/sketch -->
    <title>icons/Consumer-Messaging</title>
    <desc>Created with Sketch.</desc>
    <defs></defs>
    <g id="MessageUs" stroke="none" stroke-width="1" fill="none" fill-rule="evenodd" sketch:type="MSPage">
        <g id="01-Home" sketch:type="MSArtboardGroup" transform="translate(-359.000000, -2122.000000)" stroke-linecap="round" stroke-width="2">
            <g id="Message" sketch:type="MSLayerGroup" transform="translate(359.000000, 2122.000000)">
                <g id="icons/Consumer-Messaging" transform="translate(1.000000, 1.000000)" sketch:type="MSShapeGroup">
                    <path d="M18,23 L29,23 L18,23 Z" id="Path" stroke="#A500E6" stroke-linejoin="round"></path>
                    <path d="M13,30 L34,30 L13,30 Z" id="Path" stroke="#A500E6" stroke-linejoin="round"></path>
                    <path d="M13,37 L34,37 L13,37 Z" id="Path" stroke="#A500E6" stroke-linejoin="round"></path>
                    <path d="M33.224,10.988 L13.776,10.988 C6.168,10.988 0,17.155 0,24.764 L0,36.108 C0,43.717 6.392,49.988 14,49.988 L14,57.434 C14,57.937 14.384,58.189 14.74,57.833 L16.261,56.313 C20.377,52.197 25.96,49.988 31.781,49.988 L33.224,49.988 C40.832,49.988 47,43.717 47,36.108 L47,24.764 C47,17.155 40.832,10.988 33.224,10.988 L33.224,10.988 Z M14,45.833 L14,49.988 L14,45.833 Z" id="Stroke-3" stroke="#49444C" stroke-linejoin="round"></path>
                    <path d="M44.224,0.988 L24.776,0.988 C18.404,0.988 13.059,5.319 11.484,11.193 C12.231,11.068 12.993,10.988 13.776,10.988 L33.224,10.988 C40.832,10.988 47,17.155 47,24.764 L47,36.108 C47,37.367 46.817,38.584 46.5,39.748 C52.957,38.555 58,32.864 58,26.108 L58,14.764 C58,7.155 51.832,0.988 44.224,0.988 L44.224,0.988 Z" id="Stroke-5" stroke="#49444C"></path>
                </g>
            </g>
        </g>
    </g>
</svg>