<?xml version="1.0" encoding="UTF-8" standalone="no"?>
<svg width="105px" height="105px" viewBox="0 0 105 105" version="1.1" xmlns="http://www.w3.org/2000/svg" xmlns:xlink="http://www.w3.org/1999/xlink" xmlns:sketch="http://www.bohemiancoding.com/sketch/ns">
    <!-- Generator: Sketch 3.5.2 (25235) - http://www.bohemiancoding.com/sketch -->
    <title>Icons/Live-chat</title>
    <desc>Created with Sketch.</desc>
    <defs></defs>
    <g id="MessageUs" stroke="none" stroke-width="1" fill="none" fill-rule="evenodd" sketch:type="MSPage">
        <g id="02-Businesses-home" sketch:type="MSArtboardGroup" transform="translate(-807.000000, -1400.000000)">
            <g id="Icons/Live-chat" sketch:type="MSLayerGroup" transform="translate(807.000000, 1400.000000)">
                <g id="Group-9-Copy" fill="#24CE83" sketch:type="MSShapeGroup">
                    <ellipse id="Oval-75-Copy" cx="52.5" cy="52.5" rx="52.5" ry="52.5"></ellipse>
                </g>
                <g id="114---Macbook-Pro-(Outline)" transform="translate(23.000000, 30.000000)" sketch:type="MSShapeGroup">
                    <path d="M11,12 L15,8 L11,12 Z" id="Path" stroke="#000000" stroke-width="2" stroke-linecap="round" stroke-linejoin="round"></path>
                    <path d="M11,17 L13,15 L11,17 Z" id="Path" stroke="#000000" stroke-width="2" stroke-linecap="round" stroke-linejoin="round"></path>
                    <path d="M17,11 L20,8 L17,11 Z" id="Path" stroke="#000000" stroke-width="2" stroke-linecap="round" stroke-linejoin="round"></path>
                    <path d="M11,22 L20,13 L11,22 Z" id="Path" stroke="#000000" stroke-width="2" stroke-linecap="round" stroke-linejoin="round"></path>
                    <path d="M24,9 L25,8 L24,9 Z" id="Path" stroke="#000000" stroke-width="2" stroke-linecap="round" stroke-linejoin="round"></path>
                    <path d="M34.907,36 C34.7,36.58 34.149,37 33.5,37 L25.5,37 C24.851,37 24.3,36.58 24.093,36 L0.578,36 C0.259,36 0,36.259 0,36.578 L0,39.422 C0,39.741 0.259,40 0.578,40 L57.422,40 C57.741,40 58,39.741 58,39.422 L58,36.578 C58,36.259 57.741,36 57.422,36 L34.907,36 L34.907,36 Z" id="Path" stroke="#49444C" stroke-width="2" stroke-linecap="round" stroke-linejoin="round" fill="#C3C1C4"></path>
                    <path d="M24.093,36 C24.3,36.58 24.851,37 25.5,37 L33.5,37 C34.149,37 34.7,36.58 34.907,36 L55,36 L55,3.067 C55,1.373 53.627,0 51.933,0 L6.067,0 C4.373,0 3,1.373 3,3.067 L3,36 L24.093,36 L24.093,36 Z" id="Path" stroke="#49444C" stroke-width="2" stroke-linecap="round" stroke-linejoin="round" fill="#C3C1C4"></path>
                    <path d="M6,3 L52,3 L52,33 L6,33 L6,3 Z" id="Path" stroke="#49444C" stroke-width="2" stroke-linecap="round" stroke-linejoin="round" fill="#FFFFFF"></path>
                    <g id="53---Chat-Conversation-(Outline)" transform="translate(21.000000, 9.000000)">
                        <path d="M8.5,-4.54747351e-13 C3.80565517,-4.54747351e-13 0,3.76603988 0,8.41139394 C0,10.1234361 0.518206897,11.7148072 1.40572414,13.0434839 C1.28906897,14.5785633 0.953758621,16.740615 0,17.7933333 C0,17.7933333 2.91432759,17.3420297 4.88808621,16.0262936 C5.98458621,16.5361535 7.2082931,16.8227879 8.5,16.8227879 C13.1943448,16.8227879 17,13.056748 17,8.41139394 C17,3.76603988 13.1943448,-4.54747351e-13 8.5,-4.54747351e-13 L8.5,-4.54747351e-13 Z" id="Path" fill="#A500E6"></path>
                        <path d="M5.27586207,8.41139394 C5.27586207,8.94745855 4.88222414,9.38193939 4.39655172,9.38193939 C3.91087931,9.38193939 3.51724138,8.94745855 3.51724138,8.41139394 C3.51724138,7.87532933 3.91087931,7.44084848 4.39655172,7.44084848 C4.88222414,7.44084848 5.27586207,7.87532933 5.27586207,8.41139394 L5.27586207,8.41139394 Z" id="Path" stroke="#FFFFFF" stroke-width="0.6" stroke-linecap="round" stroke-linejoin="round" fill="#FFFFFF"></path>
                        <path d="M9.37931034,8.41139394 C9.37931034,8.94745855 8.98567241,9.38193939 8.5,9.38193939 C8.01432759,9.38193939 7.62068966,8.94745855 7.62068966,8.41139394 C7.62068966,7.87532933 8.01432759,7.44084848 8.5,7.44084848 C8.98567241,7.44084848 9.37931034,7.87532933 9.37931034,8.41139394 L9.37931034,8.41139394 Z" id="Path" stroke="#FFFFFF" stroke-width="0.6" stroke-linecap="round" stroke-linejoin="round" fill="#FFFFFF"></path>
                        <path d="M13.4827586,8.41139394 C13.4827586,8.94745855 13.0891207,9.38193939 12.6034483,9.38193939 C12.1177759,9.38193939 11.7241379,8.94745855 11.7241379,8.41139394 C11.7241379,7.87532933 12.1177759,7.44084848 12.6034483,7.44084848 C13.0891207,7.44084848 13.4827586,7.87532933 13.4827586,8.41139394 L13.4827586,8.41139394 Z" id="Path" stroke="#FFFFFF" stroke-width="0.6" stroke-linecap="round" stroke-linejoin="round" fill="#FFFFFF"></path>
                    </g>
                </g>
            </g>
        </g>
    </g>
</svg>