<?xml version="1.0" encoding="UTF-8" standalone="no"?>
<svg width="35px" height="60px" viewBox="0 0 35 60" version="1.1" xmlns="http://www.w3.org/2000/svg" xmlns:xlink="http://www.w3.org/1999/xlink" xmlns:sketch="http://www.bohemiancoding.com/sketch/ns">
    <!-- Generator: Sketch 3.5.2 (25235) - http://www.bohemiancoding.com/sketch -->
    <title>Icons/Requesting</title>
    <desc>Created with Sketch.</desc>
    <defs></defs>
    <g id="MessageUs" stroke="none" stroke-width="1" fill="none" fill-rule="evenodd" sketch:type="MSPage">
        <g id="01-Home" sketch:type="MSArtboardGroup" transform="translate(-826.000000, -2938.000000)">
            <g id="Request" sketch:type="MSLayerGroup" transform="translate(826.000000, 2938.000000)">
                <g id="Icons/Requesting" transform="translate(1.000000, 1.000000)" sketch:type="MSShapeGroup">
                    <path d="M30.038,58 L3.962,58 C2.326,58 1,56.674 1,55.038 L1,2.962 C1,1.326 2.326,0 3.962,0 L30.038,0 C31.674,0 33,1.326 33,2.962 L33,55.038 C33,56.674 31.674,58 30.038,58 L30.038,58 Z" id="Path" stroke="#49444C" stroke-width="2" stroke-linecap="round" stroke-linejoin="round"></path>
                    <path d="M1,6 L33,6 L33,50 L1,50 L1,6 Z" id="Path" stroke="#49444C" stroke-width="2" stroke-linecap="round" stroke-linejoin="round"></path>
                    <path d="M16,3 L21,3 L16,3 Z" id="Path" stroke="#49444C" stroke-width="2" stroke-linecap="round" stroke-linejoin="round"></path>
                    <path d="M12,3 L13,3 L12,3 Z" id="Path" stroke="#49444C" stroke-width="2" stroke-linecap="round" stroke-linejoin="round"></path>
                    <path d="M0,9 L0,10 L0,9 Z" id="Path" stroke="#49444C" stroke-width="2" stroke-linecap="round" stroke-linejoin="round"></path>
                    <path d="M0,13 L0,14 L0,13 Z" id="Path" stroke="#49444C" stroke-width="2" stroke-linecap="round" stroke-linejoin="round"></path>
                    <path d="M0,17 L0,18 L0,17 Z" id="Path" stroke="#49444C" stroke-width="2" stroke-linecap="round" stroke-linejoin="round"></path>
                    <path d="M20,54 C20,55.657 18.657,57 17,57 C15.343,57 14,55.657 14,54 C14,52.343 15.343,51 17,51 C18.657,51 20,52.343 20,54 L20,54 Z" id="Path" stroke="#49444C" stroke-width="2" stroke-linecap="round" stroke-linejoin="round"></path>
                    <path d="M12.7825644,28.9949088 C12.1844305,28.2234803 11.829811,27.263481 11.829811,26.2229451 C11.829811,23.6775051 13.9519515,21.6140182 16.5697445,21.6140182 C19.1875374,21.6140182 21.3096779,23.6775051 21.3096779,26.2229451 C21.3096779,28.7683851 19.1875374,30.8318719 16.5697445,30.8318719 C16.5589123,30.8318719 16.5480886,30.8318366 16.5372735,30.831766 L16.5372735,33.4383222 C16.5372735,33.4383222 13.4688968,30.188756 12.7825644,28.9949088 Z M10.4448203,31.2343335 C12.3144911,34.6268296 15.4605617,38 16.5945468,38 C18.3344384,38 24.1232535,31.0757941 23.9979984,26.291735 C23.8727433,21.5076759 20.6405821,19 16.4989992,19 C12.3574163,19 9,22.5293142 9,26.291735 C9,27.6019749 9.44582492,29.421668 10.4448203,31.2343335 Z" id="Oval-39" fill="#A500E6"></path>
                </g>
            </g>
        </g>
    </g>
</svg>