<?xml version="1.0" encoding="UTF-8" standalone="no"?>
<svg width="69px" height="58px" viewBox="0 0 69 58" version="1.1" xmlns="http://www.w3.org/2000/svg" xmlns:xlink="http://www.w3.org/1999/xlink" xmlns:sketch="http://www.bohemiancoding.com/sketch/ns">
    <!-- Generator: Sketch 3.5.2 (25235) - http://www.bohemiancoding.com/sketch -->
    <title>Icons/Team-Messaging</title>
    <desc>Created with Sketch.</desc>
    <defs></defs>
    <g id="MessageUs" stroke="none" stroke-width="1" fill="none" fill-rule="evenodd" sketch:type="MSPage">
        <g id="02-Businesses-home" sketch:type="MSArtboardGroup" transform="translate(-733.000000, -3717.000000)" stroke-width="2">
            <g id="Team-messaging" sketch:type="MSLayerGroup" transform="translate(733.000000, 3717.000000)">
                <g id="Icons/Team-Messaging" transform="translate(1.000000, 1.000000)" sketch:type="MSShapeGroup">
                    <circle id="Oval-56" stroke="#49444C" cx="5" cy="5" r="5"></circle>
                    <circle id="Oval-56-Copy" stroke="#49444C" cx="5" cy="30" r="5"></circle>
                    <g id="Group-4" transform="translate(35.000000, 45.000000)">
                        <path d="M7.49562215,11 L30.0087557,11 C31.1001025,11 32,10.1081436 32,9.00798298 L32,1.99201702 C32,0.900176167 31.1084896,0 30.0087557,0 L5.99124431,0 C4.89989752,0 4,0.891856397 4,1.99201702 L4,7.44444444 L0,11 L7.49562215,11 Z" id="Rectangle-94-Copy" stroke="#49444C" stroke-linejoin="round" transform="translate(16.000000, 5.500000) scale(-1, 1) translate(-16.000000, -5.500000) "></path>
                        <path d="M4,5 L24,5" id="Line" stroke="#A500E6"></path>
                    </g>
                    <g id="Group-3" transform="translate(16.000000, 0.000000)">
                        <path d="M7.50099979,19 L44.9980004,19 C46.1018839,19 47,18.1057238 47,17.0025781 L47,1.99742191 C47,0.890925393 46.1036743,0 44.9980004,0 L6.00199958,0 C4.89811611,0 4,0.894276248 4,1.99742191 L4,15.4444444 L0,19 L7.50099979,19 Z" id="Rectangle-94" stroke="#49444C" stroke-linejoin="round" transform="translate(23.500000, 9.500000) scale(1, -1) translate(-23.500000, -9.500000) "></path>
                        <path d="M8,5 L43,5" id="Line" stroke="#A500E6"></path>
                        <path d="M8,9 L43,9" id="Line-Copy" stroke="#A500E6"></path>
                        <path d="M8,13 L38,13" id="Line-Copy-2" stroke="#A500E6"></path>
                    </g>
                    <g id="Group-3-Copy" transform="translate(16.000000, 25.000000)">
                        <path d="M7.49910691,14 L33.0017862,14 C34.1056623,14 35,13.1019465 35,11.9941413 L35,2.00585866 C35,0.897060126 34.1053692,0 33.0017862,0 L5.99821383,0 C4.89433765,0 4,0.898053512 4,2.00585866 L4,10.4444444 L0,14 L7.49910691,14 Z" id="Rectangle-94" stroke="#49444C" stroke-linejoin="round" transform="translate(17.500000, 7.000000) scale(1, -1) translate(-17.500000, -7.000000) "></path>
                        <path d="M8,5 L32.083189,5" id="Line" stroke="#A500E6"></path>
                        <path d="M8,9 L27,9" id="Line-Copy" stroke="#A500E6"></path>
                    </g>
                </g>
            </g>
        </g>
    </g>
</svg>