<?xml version="1.0" encoding="UTF-8" standalone="no"?>
<svg width="20px" height="29px" viewBox="0 0 20 29" version="1.1" xmlns="http://www.w3.org/2000/svg" xmlns:xlink="http://www.w3.org/1999/xlink">
    <!-- Generator: Sketch Beta 3.6 (26298) - http://www.bohemiancoding.com/sketch -->
    <title>angellist</title>
    <desc>Created with Sketch Beta.</desc>
    <defs></defs>
    <g id="MessageUs" stroke="none" stroke-width="1" fill="none" fill-rule="evenodd">
        <g id="05-About" transform="translate(-892.000000, -799.000000)" fill="#605C62">
            <g id="Assets/Icon-Angellist" transform="translate(892.000000, 799.000000)">
                <path d="M0,20.5843137 C0,19.3901961 0.260707635,18.4614379 0.782122905,17.7980392 C1.21042831,17.2104575 1.89944134,16.7839869 2.84916201,16.5186275 C2.55121043,15.7604575 2.40223464,15.2013072 2.40223464,14.8411765 C2.40223464,14.2156863 2.72811918,13.5522876 3.37988827,12.8509804 C4.0689013,12.1875817 4.7113594,11.8558824 5.30726257,11.8558824 C5.62383613,11.8558824 5.99627561,11.9411765 6.42458101,12.1117647 C5.53072626,9.51503268 4.88826816,7.54379085 4.4972067,6.19803922 C4.05027933,4.6627451 3.82681564,3.57287582 3.82681564,2.92843137 C3.82681564,2.01862745 4.05027933,1.30784314 4.4972067,0.796078431 C4.96275605,0.265359477 5.58659218,0 6.36871508,0 C7.70949721,0 9.32029795,2.79575163 11.2011173,8.3872549 L11.6759777,9.78039216 C11.7877095,9.49607843 11.8994413,9.18333333 12.0111732,8.84215686 C13.8733706,3.30751634 15.5493482,0.540196078 17.0391061,0.540196078 C17.7839851,0.540196078 18.3705773,0.796078431 18.7988827,1.30784314 C19.2458101,1.81960784 19.4692737,2.48300654 19.4692737,3.29803922 C19.4692737,3.82875817 19.2458101,4.8996732 18.7988827,6.51078431 C18.4078212,7.89444444 17.7932961,9.78986928 16.9553073,12.1970588 C18.0167598,12.4624183 18.7802607,12.974183 19.2458101,13.7323529 C19.7486034,14.5473856 20,15.8078431 20,17.5137255 C20,20.8875817 19.0130354,23.6454248 17.0391061,25.7872549 C15.027933,27.929085 12.4767225,29 9.38547486,29 C8.15642458,29 6.97392924,28.772549 5.83798883,28.3176471 C4.73929236,27.9196078 3.74301676,27.2941176 2.84916201,26.4411765 C1.89944134,25.5313725 1.19180633,24.5931373 0.726256983,23.6264706 C0.242085661,22.6029412 0,21.5888889 0,20.5843137 L0,20.5843137 Z M1.81564246,20.4421569 C1.81564246,20.9160131 1.94599628,21.4751634 2.20670391,22.1196078 C2.44878957,22.7261438 2.81191806,23.3611111 3.29608939,24.0245098 C4.05959032,25.029085 4.96275605,25.796732 6.00558659,26.327451 C7.06703911,26.8581699 8.26815642,27.1235294 9.60893855,27.1235294 C12.0111732,27.1235294 14.0316574,26.2042484 15.6703911,24.3656863 C17.2905028,22.5460784 18.1005587,20.2431373 18.1005587,17.4568627 C18.1005587,16.5849673 18.0446927,15.9120915 17.9329609,15.4382353 C17.839851,15.0212418 17.6629423,14.6990196 17.4022346,14.4715686 C16.8994413,14.0356209 15.9124767,13.6565359 14.4413408,13.3343137 C12.9702048,12.9931373 11.405959,12.822549 9.74860335,12.822549 C9.33891993,12.822549 9.07821229,12.8794118 8.96648045,12.9931373 C8.83612663,13.05 8.77094972,13.2395425 8.77094972,13.5617647 C8.77094972,14.3388889 9.19925512,14.8885621 10.0558659,15.2107843 C10.9869646,15.6088235 12.5232775,15.8078431 14.6648045,15.8078431 L15.4469274,15.8078431 C15.744879,15.8078431 15.9590317,15.9120915 16.0893855,16.1205882 C16.2383613,16.2722222 16.3407821,16.5660131 16.396648,17.0019608 C16.0800745,17.324183 15.5679702,17.6179739 14.8603352,17.8833333 C14.1899441,18.1297386 13.6964618,18.3761438 13.3798883,18.622549 C12.6350093,19.1722222 12.0391061,19.8261438 11.5921788,20.5843137 C11.1638734,21.3235294 10.9497207,22.0248366 10.9497207,22.6882353 C10.9497207,23.0862745 11.0428305,23.5696078 11.2290503,24.1382353 C11.433892,24.7637255 11.5363128,25.1712418 11.5363128,25.3607843 L11.5363128,25.5313725 L11.424581,25.9578431 C10.6052142,25.9009804 10.009311,25.5124183 9.63687151,24.7921569 C9.32029795,24.1856209 9.1433892,23.4084967 9.10614525,22.4607843 C9.05027933,22.4797386 8.93854749,22.4892157 8.77094972,22.4892157 L8.46368715,22.4892157 C8.48230912,22.5839869 8.49162011,22.6977124 8.49162011,22.8303922 C8.49162011,23.3990196 8.27746741,23.8823529 7.84916201,24.2803922 C7.42085661,24.6784314 6.91806331,24.877451 6.34078212,24.877451 C5.46554935,24.877451 4.58100559,24.4509804 3.68715084,23.5980392 C2.79329609,22.7261438 2.34636872,21.8732026 2.34636872,21.0392157 C2.34636872,20.8875817 2.37430168,20.7359477 2.4301676,20.5843137 C2.44878957,20.451634 2.59776536,20.2431373 2.87709497,19.9588235 C3.34264432,20.5464052 3.65921788,20.9539216 3.82681564,21.1813725 C4.60893855,22.2996732 5.31657356,22.8588235 5.94972067,22.8588235 C6.11731844,22.8588235 6.27560521,22.8019608 6.42458101,22.6882353 C6.53631285,22.5745098 6.59217877,22.4797386 6.59217877,22.4039216 C6.59217877,22.2522876 6.48044693,21.977451 6.25698324,21.5794118 C6.10800745,21.295098 5.76350093,20.7928105 5.22346369,20.072549 C4.70204842,19.3901961 4.283054,18.9163399 3.96648045,18.6509804 C3.68715084,18.3856209 3.48230912,18.2529412 3.35195531,18.2529412 C2.9981378,18.2529412 2.65363128,18.4614379 2.31843575,18.8784314 C1.98324022,19.2954248 1.81564246,19.8166667 1.81564246,20.4421569 L1.81564246,20.4421569 Z M4.32960894,15.0117647 C4.32960894,15.2581699 4.47858473,15.6846405 4.77653631,16.2911765 C5.03724395,16.8029412 5.45623836,17.4473856 6.03351955,18.2245098 C6.61080074,18.9826797 7.13221601,19.5702614 7.59776536,19.9872549 C8.04469274,20.3663399 8.37988827,20.5558824 8.60335196,20.5558824 C8.73370577,20.5558824 8.86405959,20.4895425 8.99441341,20.3568627 C9.12476723,20.2052288 9.18994413,20.0535948 9.18994413,19.9019608 C9.18994413,19.6745098 9.02234637,19.1248366 8.68715084,18.2529412 C8.29608939,17.2862745 7.86778399,16.4143791 7.40223464,15.6372549 C6.99255121,14.9738562 6.62942272,14.5094771 6.31284916,14.2441176 C6.01489758,13.9598039 5.72625698,13.8176471 5.44692737,13.8176471 C5.24208566,13.8176471 5.00931099,13.9598039 4.74860335,14.2441176 C4.46927374,14.5284314 4.32960894,14.7843137 4.32960894,15.0117647 L4.32960894,15.0117647 Z M5.58659218,2.72941176 C5.58659218,3.37385621 5.81005587,4.3879085 6.25698324,5.77156863 C6.66666667,7.11732026 7.28119181,8.91797386 8.10055866,11.1735294 C8.2867784,11.0598039 8.54748603,11.0029412 8.88268156,11.0029412 C8.90130354,11.0029412 8.96182495,11.0076797 9.06424581,11.0171569 C9.16666667,11.026634 9.26443203,11.0313725 9.3575419,11.0313725 C9.4320298,11.0313725 9.67411546,11.0503268 10.0837989,11.0882353 L8.15642458,5.40196078 C7.63500931,3.88562092 7.22532588,2.9 6.9273743,2.44509804 C6.68528864,2.04705882 6.44320298,1.84803922 6.20111732,1.84803922 C6.03351955,1.84803922 5.89385475,1.92385621 5.78212291,2.0754902 C5.65176909,2.24607843 5.58659218,2.46405229 5.58659218,2.72941176 L5.58659218,2.72941176 Z M10.2234637,17.2294118 C10.3910615,17.6653595 10.5679702,18.1392157 10.7541899,18.6509804 C11.1266294,18.2150327 11.4990689,17.854902 11.8715084,17.5705882 C11.7783985,17.551634 11.6387337,17.5279412 11.452514,17.4995098 C11.2662942,17.4710784 11.1266294,17.4473856 11.0335196,17.4284314 C10.6610801,17.3526144 10.3910615,17.2862745 10.2234637,17.2294118 L10.2234637,17.2294118 Z M13.1564246,11.4294118 L15.027933,11.7705882 C15.8659218,9.42026144 16.5083799,7.53431373 16.9553073,6.1127451 C17.4208566,4.57745098 17.6536313,3.66764706 17.6536313,3.38333333 C17.6536313,3.08006536 17.5884544,2.84313725 17.4581006,2.67254902 C17.3836127,2.53986928 17.2439479,2.47352941 17.0391061,2.47352941 C16.7783985,2.47352941 16.4897579,2.72941176 16.1731844,3.24117647 C15.8193669,3.79084967 15.4189944,4.74803922 14.972067,6.1127451 L13.1564246,11.4294118 Z" id="angellist"></path>
            </g>
        </g>
    </g>
</svg>