<?xml version="1.0" encoding="iso-8859-1"?>
<!-- Generator: Adobe Illustrator 16.0.0, SVG Export Plug-In . SVG Version: 6.00 Build 0)  -->
<!DOCTYPE svg PUBLIC "-//W3C//DTD SVG 1.1//EN" "http://www.w3.org/Graphics/SVG/1.1/DTD/svg11.dtd">
<svg version="1.1" id="Layer_1" xmlns="http://www.w3.org/2000/svg" xmlns:xlink="http://www.w3.org/1999/xlink" x="0px" y="0px"
	 width="17.997px" height="16.013px" viewBox="0 0 17.997 16.013" style="enable-background:new 0 0 17.997 16.013;"
	 xml:space="preserve">
<path style="fill-rule:evenodd;clip-rule:evenodd;fill:#929FAB;" d="M3.327,16.013c-0.844,0-1.687-0.324-2.343-0.974
	c-1.317-1.305-1.311-3.355,0.014-4.667l9.143-9.057C10.996,0.467,12.155,0,13.403,0c1.249,0,2.407,0.467,3.263,1.315
	c1.773,1.757,1.773,4.406,0,6.163l-6.584,6.512c-0.119,0.117-0.312,0.118-0.431-0.001c-0.119-0.118-0.119-0.309,0.001-0.427
	l6.584-6.511c1.527-1.513,1.527-3.795,0-5.309c-1.535-1.521-4.129-1.521-5.664,0l-9.143,9.057c-1.083,1.073-1.09,2.748-0.014,3.813
	c1.075,1.064,2.767,1.059,3.85-0.014l8.838-8.754c0.477-0.473,0.477-1.214,0-1.687c-0.466-0.461-1.237-0.461-1.703,0L6,10.497
	c-0.119,0.118-0.312,0.118-0.431,0c-0.119-0.118-0.119-0.309,0-0.427l6.4-6.339c0.695-0.689,1.869-0.689,2.564,0
	c0.348,0.344,0.54,0.795,0.539,1.27c0,0.474-0.191,0.925-0.539,1.27l-8.838,8.755C5.03,15.683,4.178,16.013,3.327,16.013z"/>
</svg>
