<?xml version="1.0" encoding="iso-8859-1"?>
<!-- Generator: Adobe Illustrator 16.0.0, SVG Export Plug-In . SVG Version: 6.00 Build 0)  -->
<!DOCTYPE svg PUBLIC "-//W3C//DTD SVG 1.1//EN" "http://www.w3.org/Graphics/SVG/1.1/DTD/svg11.dtd">
<svg version="1.1" id="Layer_1" xmlns="http://www.w3.org/2000/svg" xmlns:xlink="http://www.w3.org/1999/xlink" x="0px" y="0px"
	 width="18.5px" height="17px" viewBox="0 0 18.5 17" style="enable-background:new 0 0 18.5 17;" xml:space="preserve">
<path style="fill-rule:evenodd;clip-rule:evenodd;fill:#5C6B78;" d="M18.192,1.546h-2.479L12.95,12.981c0,0,0,0.001,0,0.001
	c0,0.048-0.013,0.093-0.033,0.133l-0.229,0.95c0.518,0.249,0.879,0.776,0.879,1.389c0,0.853-0.692,1.545-1.542,1.545
	s-1.542-0.693-1.542-1.545c0-0.349,0.121-0.668,0.316-0.927H4.926c0.195,0.259,0.316,0.578,0.316,0.927C5.242,16.308,4.55,17,3.7,17
	s-1.542-0.693-1.542-1.545c0-0.852,0.692-1.545,1.542-1.545h8.391l0.149-0.618H2.641c-0.135,0-0.253-0.087-0.294-0.216L0.014,5.657
	C-0.015,5.563,0.001,5.461,0.06,5.381c0.058-0.079,0.15-0.126,0.249-0.126H1.69L0.025,1.359c-0.065-0.153,0.001-0.33,0.151-0.401
	L2.12,0.031C2.194-0.005,2.28-0.01,2.358,0.02c0.078,0.028,0.141,0.087,0.175,0.163l2.291,5.073h1.959V3.092
	c0-0.171,0.138-0.309,0.309-0.309h3.659l0.617-0.599c0.062-0.06,0.144-0.097,0.232-0.086c0.085,0.005,0.166,0.045,0.221,0.112
	l2.395,2.908l0.956-3.953c0.033-0.138,0.157-0.236,0.299-0.236h2.722c0.17,0,0.308,0.139,0.308,0.31
	C18.5,1.408,18.362,1.546,18.192,1.546z M3.7,14.528c-0.51,0-0.925,0.416-0.925,0.927S3.19,16.382,3.7,16.382
	c0.51,0,0.925-0.416,0.925-0.927S4.21,14.528,3.7,14.528z M12.025,14.528c-0.51,0-0.925,0.416-0.925,0.927s0.415,0.927,0.925,0.927
	c0.51,0,0.925-0.416,0.925-0.927S12.535,14.528,12.025,14.528z M2.101,0.725L0.708,1.389l1.653,3.867h1.785L2.101,0.725z M7.4,3.401
	v1.854h0.8l1.913-1.854H7.4z M11.558,2.86l-2.47,2.395h4.441L11.558,2.86z M8.32,5.874C8.32,5.874,8.32,5.874,8.32,5.874H4.633
	c0,0,0,0,0,0H0.729l2.139,6.8h9.522l1.644-6.8H8.32z"/>
</svg>
