<?xml version="1.0" encoding="UTF-8" standalone="no"?>
<svg width="26px" height="26px" viewBox="0 0 26 26" version="1.1" xmlns="http://www.w3.org/2000/svg" xmlns:xlink="http://www.w3.org/1999/xlink">
    <!-- Generator: Sketch Beta 3.6 (26298) - http://www.bohemiancoding.com/sketch -->
    <title>facebook</title>
    <desc>Created with Sketch Beta.</desc>
    <defs></defs>
    <g id="MessageUs" stroke="none" stroke-width="1" fill="none" fill-rule="evenodd">
        <g id="05-About" transform="translate(-942.000000, -801.000000)" fill="#605C62">
            <g id="Assets/Icon-Facebook" transform="translate(942.000000, 801.000000)">
                <path d="M1.48348348,0 C0.702702703,0 0,0.702702703 0,1.48348348 L0,24.5165165 C0,25.2972973 0.702702703,26 1.48348348,26 L24.5165165,26 C25.2972973,26 26,25.2972973 26,24.5165165 L26,1.48348348 C26,0.702702703 25.2972973,0 24.5165165,0 L1.48348348,0 Z M18.4654655,14.6006006 L18.4654655,24.1261261 L14.8348348,24.1261261 L14.8348348,14.6006006 L12.2972973,14.6006006 L12.2972973,11.1651652 L14.8348348,11.1651652 L14.8348348,8.1981982 C14.8348348,5.89489489 16.3573574,3.74774775 19.7927928,3.74774775 C21.1981982,3.74774775 22.1741742,3.9039039 22.1741742,3.9039039 L22.0960961,7.10510511 L19.9099099,7.10510511 C18.6606607,7.10510511 18.4654655,7.65165165 18.4654655,8.62762763 L18.4654655,8.78378378 L18.4654655,11.1651652 L22.2132132,11.1651652 L22.0570571,14.6006006 L18.4654655,14.6006006 Z" id="facebook"></path>
            </g>
        </g>
    </g>
</svg>